<?xml version="1.0" encoding="UTF-8"?>
<!DOCTYPE svg PUBLIC "-//W3C//DTD SVG 1.1//EN" "http://www.w3.org/Graphics/SVG/1.1/DTD/svg11.dtd">
<svg version="1.1" xmlns="http://www.w3.org/2000/svg" xmlns:xlink="http://www.w3.org/1999/xlink" x="0" y="0" width="40" height="40" viewBox="0, 0, 40, 40">
  <g id="zmap-ers-inc-civdem" transform="translate(0, 0)">
    <path d="M40,19.985 L20.015,39.97 L0,19.985 L20.015,-0 z M38.393,19.985 L20.015,1.607 L1.638,19.985 L20.015,38.362 z M13.92,21.168 L15.042,21.168 L15.042,26.02 L13.92,26.02 z M11.312,21.168 L12.434,21.168 L12.434,26.02 L11.312,26.02 z M23.867,7.005 L22.381,14.284 L19.651,13.707 L18.347,19.5 L17.65,19.378 L17.892,18.135 L13.859,18.135 L13.859,21.168 L12.494,21.168 L12.494,18.135 L8.036,18.135 L8.036,17.195 L12.494,17.195 L12.494,15.77 Q11.888,15.588 11.509,15.027 Q11.13,14.466 11.13,13.768 Q11.13,12.919 11.736,12.328 Q12.343,11.736 13.192,11.736 Q14.011,11.736 14.617,12.328 Q15.224,12.919 15.224,13.768 Q15.224,14.466 14.845,14.996 Q14.466,15.527 13.859,15.77 L13.859,17.195 L18.135,17.195 L18.954,13.525 L16.103,12.98 L17.65,5.701 z M18.074,6.308 Q18.074,6.429 17.968,6.914 Q17.862,7.4 17.726,8.052 Q17.589,8.704 17.437,9.431 Q17.286,10.159 17.149,10.811 Q17.013,11.463 16.907,11.933 Q16.801,12.403 16.77,12.525 Q16.952,12.585 17.726,12.737 Q18.499,12.889 19.378,13.071 Q20.258,13.252 21.016,13.404 Q21.774,13.556 21.926,13.586 L23.23,7.43 z M17.71,11.676 Q17.528,11.585 17.528,11.342 Q17.619,11.16 17.832,11.16 Q18.014,11.251 18.014,11.463 Q17.923,11.676 17.71,11.676 z M17.71,10.978 L17.892,9.795 L18.347,9.856 L18.014,11.039 z M19.5,11.918 Q19.439,11.979 19.378,11.979 Q19.318,11.979 19.257,11.979 Q18.923,11.979 18.635,11.766 Q18.347,11.554 18.347,11.16 Q18.347,10.705 18.65,10.402 Q18.954,10.099 19.318,10.099 Q19.803,10.099 20.03,10.371 Q20.258,10.644 20.258,10.917 Q20.258,11.251 20.045,11.433 Q19.833,11.615 19.651,11.615 Q19.53,11.615 19.454,11.524 Q19.378,11.433 19.378,11.342 Q19.136,11.463 19.014,11.463 Q18.772,11.372 18.772,11.039 Q18.832,10.857 18.984,10.705 Q19.136,10.553 19.378,10.553 Q19.469,10.553 19.621,10.614 Q19.773,10.675 19.833,10.675 L19.651,11.16 Q19.56,11.221 19.56,11.251 L19.56,11.281 Q19.56,11.403 19.712,11.403 Q19.773,11.403 19.894,11.296 Q20.015,11.19 20.015,10.857 Q20.015,10.614 19.833,10.462 Q19.651,10.311 19.318,10.311 Q19.045,10.311 18.817,10.493 Q18.59,10.675 18.59,11.099 Q18.59,11.524 18.817,11.66 Q19.045,11.797 19.5,11.797 z M19.5,10.796 L19.318,10.796 Q19.227,10.796 19.121,10.887 Q19.014,10.978 19.014,11.16 Q19.014,11.221 19.045,11.221 Q19.075,11.221 19.136,11.281 Q19.318,11.281 19.439,11.039 z M20.379,12.161 L20.5,11.736 L20.318,11.676 L20.379,11.403 L20.622,11.463 L20.743,11.16 L20.5,11.16 L20.561,10.917 L20.804,10.978 L21.016,10.493 L21.198,10.553 L21.077,10.978 L21.319,11.039 L21.44,10.614 L21.683,10.675 L21.562,11.099 L21.744,11.16 L21.683,11.403 L21.44,11.342 L21.319,11.676 L21.562,11.676 L21.501,11.918 L21.259,11.857 L21.077,12.343 L20.804,12.282 L21.016,11.857 L20.743,11.797 L20.622,12.221 z M21.137,11.615 L21.198,11.281 L20.955,11.221 L20.864,11.524 z M18.256,9.067 Q18.074,8.946 18.074,8.734 Q18.165,8.552 18.347,8.552 Q18.59,8.552 18.59,8.795 Q18.59,9.067 18.256,9.067 z M18.256,8.37 L18.469,7.187 L18.893,7.248 L18.59,8.431 z M20.136,9.31 Q20.015,9.371 19.894,9.371 Q19.56,9.371 19.227,9.143 Q18.893,8.916 18.893,8.491 Q18.893,8.067 19.196,7.748 Q19.5,7.43 19.894,7.43 Q20.349,7.43 20.576,7.703 Q20.804,7.976 20.804,8.309 Q20.804,8.643 20.652,8.779 Q20.5,8.916 20.258,8.916 Q20.015,8.916 20.015,8.795 L20.015,8.673 Q19.833,8.855 19.712,8.855 Q19.591,8.855 19.484,8.779 Q19.378,8.704 19.378,8.552 Q19.378,8.309 19.56,8.127 Q19.742,7.945 20.015,7.945 Q20.197,7.945 20.44,8.067 L20.258,8.552 Q20.197,8.613 20.197,8.734 L20.197,8.764 Q20.197,8.795 20.258,8.795 Q20.349,8.795 20.485,8.688 Q20.622,8.582 20.622,8.249 Q20.622,8.067 20.455,7.839 Q20.288,7.612 20.015,7.612 Q19.742,7.612 19.439,7.839 Q19.136,8.067 19.136,8.431 Q19.136,9.189 20.136,9.189 z M20.136,8.188 L20.015,8.127 Q19.924,8.127 19.818,8.203 Q19.712,8.279 19.651,8.431 Q19.651,8.522 19.666,8.567 Q19.682,8.613 19.833,8.613 Q19.924,8.613 20.015,8.431 z M20.955,9.553 L21.137,9.128 L20.864,9.067 L20.955,8.795 L21.198,8.855 L21.319,8.552 L21.077,8.491 L21.137,8.249 L21.38,8.309 L21.562,7.885 L21.804,7.945 L21.622,8.37 L21.865,8.431 L22.047,8.006 L22.32,8.067 L22.108,8.491 L22.32,8.491 L22.32,8.734 L21.986,8.734 L21.926,8.976 L22.108,9.067 L22.047,9.31 L21.804,9.249 L21.683,9.674 L21.44,9.674 L21.562,9.189 L21.38,9.128 L21.198,9.613 z M21.683,8.916 L21.804,8.673 L21.562,8.613 L21.44,8.916 z M22.987,27.445 L24.17,27.445 L24.17,32.358 L22.987,32.358 z M20.379,27.445 L21.562,27.445 L21.562,32.358 L20.379,32.358 z M32.54,15.83 L31.327,21.35 L28.567,20.804 L27.475,25.747 L26.778,25.625 L27.02,24.443 L22.926,24.443 L22.926,27.445 L21.622,27.445 L21.622,24.443 L17.104,24.443 L17.104,23.533 L21.622,23.533 L21.622,22.047 Q21.016,21.835 20.607,21.319 Q20.197,20.804 20.197,20.106 Q20.197,19.257 20.804,18.666 Q21.41,18.074 22.259,18.074 Q23.139,18.074 23.745,18.666 Q24.352,19.257 24.352,20.106 Q24.352,20.804 23.942,21.319 Q23.533,21.835 22.926,22.047 L22.926,23.533 L27.202,23.533 L27.9,20.682 L25.049,20.045 L26.353,14.526 z M26.778,15.193 L25.716,19.621 Q25.898,19.682 26.672,19.833 Q27.445,19.985 28.324,20.167 Q29.204,20.349 29.962,20.516 Q30.72,20.682 30.872,20.743 Q30.902,20.561 31.069,19.894 Q31.236,19.227 31.403,18.484 Q31.569,17.741 31.706,17.089 Q31.842,16.437 31.873,16.255 z M26.899,18.741 Q26.657,18.62 26.657,18.499 Q26.657,18.347 26.732,18.241 Q26.808,18.135 26.96,18.135 Q27.263,18.135 27.263,18.438 Q27.263,18.741 26.899,18.741 z M26.899,17.923 L27.142,16.376 L27.657,16.497 L27.263,17.983 z M27.839,18.923 Q27.597,18.832 27.597,18.681 Q27.597,18.529 27.672,18.423 Q27.748,18.317 27.839,18.317 Q28.203,18.317 28.203,18.681 Q28.112,18.923 27.839,18.923 z M27.779,18.135 L28.021,16.558 L28.567,16.679 L28.143,18.196 z M30.144,19.227 Q30.053,19.287 29.932,19.287 Q29.841,19.287 29.75,19.287 Q29.325,19.287 28.976,18.999 Q28.628,18.711 28.628,18.256 Q28.628,17.741 28.992,17.346 Q29.356,16.952 29.871,16.952 Q30.356,16.952 30.675,17.225 Q30.993,17.498 30.993,17.923 Q30.993,18.347 30.781,18.575 Q30.569,18.802 30.326,18.802 Q29.932,18.802 29.932,18.499 Q29.75,18.681 29.447,18.681 Q29.143,18.59 29.143,18.135 Q29.356,17.559 29.871,17.559 Q30.023,17.559 30.22,17.574 Q30.417,17.589 30.508,17.68 L30.265,18.317 Q30.205,18.378 30.205,18.499 Q30.205,18.62 30.326,18.62 Q30.387,18.62 30.569,18.499 Q30.751,18.378 30.751,17.983 Q30.751,17.65 30.538,17.422 Q30.326,17.195 29.81,17.195 Q29.538,17.195 29.219,17.453 Q28.901,17.71 28.901,18.196 Q28.901,18.56 29.128,18.832 Q29.356,19.105 29.81,19.105 Q29.871,19.105 29.932,19.105 Q30.023,19.105 30.083,19.045 z M30.144,17.801 L29.871,17.801 Q29.629,17.801 29.507,18.196 Q29.507,18.378 29.629,18.438 Q29.871,18.438 30.023,18.135 z" fill="#C74343"/>
  </g>
</svg>
