<?xml version="1.0" encoding="UTF-8"?>
<!DOCTYPE svg PUBLIC "-//W3C//DTD SVG 1.1//EN" "http://www.w3.org/Graphics/SVG/1.1/DTD/svg11.dtd">
<svg version="1.1" xmlns="http://www.w3.org/2000/svg" xmlns:xlink="http://www.w3.org/1999/xlink" x="0" y="0" width="40" height="40" viewBox="0, 0, 40, 40">
  <g id="zmap-ers-inc-bompexp" transform="translate(0, 0)">
    <path d="M40,19.985 L20.015,39.97 L0,19.985 L20.015,-0 z M38.393,19.985 L20.015,1.607 L1.638,19.985 L20.015,38.362 z M17.528,22.835 Q17.559,22.805 17.619,22.638 Q17.68,22.472 17.756,22.29 Q17.832,22.108 17.892,21.941 Q17.953,21.774 18.014,21.713 Q17.832,21.713 17.407,21.607 Q16.983,21.501 16.588,21.35 Q16.315,21.259 16.194,21.168 Q16.073,21.077 15.8,20.804 Q15.679,20.925 15.557,21.046 Q15.345,21.319 15.163,21.713 Q15.011,22.077 14.92,22.472 L14.86,22.957 Q14.86,23.017 14.89,23.078 Q14.92,23.139 14.936,23.184 Q14.951,23.23 14.981,23.29 Q15.072,23.442 15.269,23.594 Q15.466,23.745 15.861,23.897 Q16.103,23.988 16.224,24.033 Q16.346,24.079 16.71,24.139 Q17.225,24.139 17.225,24.079 L17.346,23.533 z M28.082,21.046 L31.114,23.139 L28.324,23.351 L28.264,22.957 L29.81,22.957 L28.021,21.986 L27.415,20.591 L31.175,20.591 L26.778,19.56 L25.838,18.499 L29.932,16.315 L25.353,16.315 L27.142,13.101 L22.623,15.315 L24.049,10.038 L20.682,12.525 L20.015,7.612 L18.529,12.464 L16.77,9.674 L16.285,14.89 L13.434,12.221 L14.102,15.193 L9.522,15.193 L13.738,18.256 L7.703,18.681 L12.858,20.531 L8.34,23.29 L12.07,22.775 L12.009,23.078 L6.914,23.715 L8.461,22.835 L7.46,22.957 L11.615,20.47 L5.914,18.499 L8.522,18.317 L6.459,17.741 L11.948,17.316 L8.461,14.89 L10.19,14.89 L9.007,14.284 L13.495,14.284 L12.737,10.978 L13.859,12.221 L13.313,10.159 L16.164,12.828 L16.588,8.734 L16.952,9.371 L17.104,7.945 L18.772,10.614 L20.197,6.065 L20.258,6.823 L20.682,5.337 L21.44,10.917 L24.989,8.249 L23.685,13.889 L28.203,11.857 L26.293,15.375 L32.237,15.83 L30.69,16.437 L31.509,16.619 L26.596,18.741 L32.237,20.227 L31.691,20.349 L33.055,20.743 z M22.502,17.923 Q22.775,18.044 23.002,18.165 Q23.23,18.287 23.472,18.438 Q25.201,19.378 26.308,21.092 Q27.415,22.805 27.415,24.898 Q27.415,26.444 26.823,27.779 Q26.232,29.113 25.231,30.114 Q24.23,31.114 22.881,31.691 Q21.531,32.267 20.015,32.267 Q18.469,32.267 17.119,31.691 Q15.77,31.114 14.769,30.114 Q13.768,29.113 13.192,27.779 Q12.616,26.444 12.616,24.898 Q12.616,23.685 12.98,22.578 Q13.343,21.471 13.995,20.561 Q14.647,19.651 15.557,18.969 Q16.467,18.287 17.528,17.923 L17.528,16.133 L19.439,16.133 Q19.439,15.8 19.515,15.557 Q19.591,15.315 19.651,15.133 L20.379,15.375 Q20.197,15.709 20.197,16.133 L22.502,16.133 z" fill="#C74343"/>
  </g>
</svg>
