<?xml version="1.0" encoding="UTF-8"?>
<!DOCTYPE svg PUBLIC "-//W3C//DTD SVG 1.1//EN" "http://www.w3.org/Graphics/SVG/1.1/DTD/svg11.dtd">
<svg version="1.1" xmlns="http://www.w3.org/2000/svg" xmlns:xlink="http://www.w3.org/1999/xlink" x="0" y="0" width="40" height="40" viewBox="0, 0, 40, 40">
  <g id="zmap-ers-ops-triage" transform="translate(0, 0)">
    <path d="M20.015,35.135 Q23.153,35.135 25.891,33.95 Q28.629,32.766 30.69,30.705 Q32.751,28.644 33.935,25.891 Q35.119,23.138 35.119,20 Q35.119,16.862 33.935,14.109 Q32.751,11.356 30.69,9.31 Q28.629,7.265 25.891,6.065 Q23.153,4.865 20.015,4.865 Q16.878,4.865 14.125,6.065 Q11.371,7.265 9.31,9.31 Q7.249,11.356 6.065,14.109 Q4.881,16.862 4.881,20 Q4.881,23.138 6.065,25.891 Q7.249,28.644 9.31,30.705 Q11.371,32.766 14.125,33.95 Q16.878,35.135 20.015,35.135 z M36.196,20 Q36.196,23.353 34.919,26.306 Q33.643,29.259 31.443,31.443 Q29.244,33.627 26.306,34.904 Q23.368,36.181 20.015,36.181 Q16.662,36.181 13.709,34.904 Q10.756,33.627 8.557,31.443 Q6.357,29.259 5.081,26.306 Q3.804,23.353 3.804,20 Q3.804,16.647 5.081,13.694 Q6.357,10.741 8.557,8.557 Q10.756,6.373 13.709,5.096 Q16.662,3.819 20.015,3.819 Q23.368,3.819 26.306,5.096 Q29.244,6.373 31.443,8.557 Q33.643,10.741 34.919,13.694 Q36.196,16.647 36.196,20 z M30.413,15.293 Q30.597,15.355 30.905,15.54 Q31.213,15.724 31.49,16.032 Q31.766,16.339 31.982,16.816 Q32.197,17.293 32.197,17.97 L32.197,27.598 L7.834,27.598 L7.834,17.97 Q7.834,17.293 8.034,16.816 Q8.234,16.339 8.526,16.032 Q8.818,15.724 9.126,15.54 Q9.433,15.355 9.618,15.293 Q9.987,15.14 10.387,14.801 Q10.787,14.463 11.125,13.479 Q11.248,13.048 11.556,12.74 Q11.864,12.433 12.202,12.233 Q12.54,12.033 12.879,11.94 Q13.217,11.848 13.463,11.848 L14.632,11.848 L14.632,9.479 Q14.632,8.587 15.232,7.941 Q15.832,7.295 16.693,7.295 L23.307,7.295 Q24.168,7.295 24.768,7.941 Q25.368,8.587 25.368,9.479 L25.368,11.848 L26.568,11.848 Q26.783,11.848 27.121,11.94 Q27.46,12.033 27.798,12.233 Q28.136,12.433 28.444,12.74 Q28.752,13.048 28.906,13.479 Q29.244,14.463 29.628,14.801 Q30.013,15.14 30.413,15.293 z M16.693,11.848 L23.307,11.848 L23.307,9.479 L16.693,9.479 z M18.2,21.692 Q18.2,21.415 18.585,21.184 Q18.969,20.954 19.492,20.769 L19.492,22.861 Q19.431,22.799 19.369,22.799 Q19.031,22.646 18.646,22.43 Q18.262,22.215 18.2,21.753 z M20.508,20.738 Q21.092,20.954 21.492,21.169 Q21.892,21.384 21.892,21.692 L21.892,21.753 Q21.83,22.215 21.446,22.43 Q21.061,22.646 20.723,22.799 L20.508,22.892 z M18.139,17.693 Q17.924,17.693 17.924,17.508 Q17.924,17.324 18.139,17.324 Q18.385,17.324 18.385,17.508 Q18.385,17.693 18.139,17.693 z M21.923,17.324 Q22.169,17.324 22.169,17.508 Q22.169,17.693 21.923,17.693 Q21.677,17.693 21.677,17.508 Q21.677,17.324 21.923,17.324 z M20.508,26.368 L20.508,24.184 Q20.784,24.307 21.092,24.43 Q21.338,24.553 21.661,24.66 Q21.984,24.768 22.261,24.891 Q22.845,25.137 23.107,25.429 Q23.368,25.722 23.43,25.814 Q23.461,25.875 23.491,25.937 Q23.522,25.999 23.553,26.06 Q23.584,26.152 23.584,26.214 L23.738,26.275 L23.768,26.214 L23.768,26.06 Q23.768,25.968 23.707,25.722 Q23.676,25.629 23.568,25.46 Q23.461,25.291 23.292,25.091 Q23.122,24.891 22.922,24.691 Q22.722,24.491 22.538,24.399 Q22.323,24.307 22.046,24.168 Q21.769,24.03 21.523,23.876 Q21.215,23.722 20.877,23.538 L21.83,23.076 Q21.892,23.045 22.061,22.969 Q22.23,22.892 22.415,22.738 Q22.599,22.584 22.738,22.353 Q22.876,22.123 22.876,21.784 L22.876,21.692 Q22.815,21.354 22.584,21.077 Q22.353,20.8 22.076,20.646 Q21.738,20.461 21.369,20.308 Q21.83,20.185 22.261,20.062 Q22.63,19.938 23.015,19.8 Q23.399,19.662 23.645,19.508 Q24.076,19.262 24.23,18.785 Q24.384,18.308 24.384,18.154 Q24.384,18 24.26,17.662 Q24.137,17.324 23.738,17.139 Q23.338,16.955 22.722,16.908 Q22.107,16.862 21.861,16.862 Q21.615,16.862 21.338,17.031 Q21.061,17.201 21.061,17.539 Q21.061,17.877 21.323,18.062 Q21.584,18.247 21.861,18.247 Q22.107,18.247 22.353,18.185 Q22.476,18.154 22.569,18.093 Q22.599,18.124 22.661,18.124 Q22.722,18.154 22.753,18.154 Q22.784,18.154 22.815,18.185 Q22.999,18.308 22.999,18.708 Q22.999,18.8 22.892,18.908 Q22.784,19.016 22.661,19.077 Q22.507,19.2 22.323,19.262 L20.508,19.754 L20.508,15.786 Q20.569,15.816 20.692,15.847 Q20.754,15.878 20.861,15.893 Q20.969,15.909 21.061,15.939 Q21.246,16.001 21.4,16.001 L21.584,16.001 L27.121,16.001 L27.244,15.939 Q27.367,15.878 27.367,15.816 Q27.367,15.786 27.183,15.663 Q27.091,15.601 26.998,15.57 L24.507,14.34 Q24.353,14.309 24.23,14.278 Q24.107,14.248 23.984,14.217 Q23.861,14.186 23.707,14.186 Q23.553,14.186 23.43,14.217 Q23.307,14.248 23.184,14.278 Q23.061,14.309 22.938,14.34 L20.508,15.263 L20.508,15.017 L20.692,15.017 L20.815,14.955 Q20.969,14.894 20.969,14.801 Q20.969,14.74 20.815,14.647 L20.692,14.586 L21.031,13.848 L21.031,13.817 Q21.031,13.786 21.046,13.771 Q21.061,13.755 21.061,13.725 Q21.061,13.663 21.031,13.632 L20.877,13.479 L20.815,13.417 L20.323,13.048 Q20.292,13.048 20.231,13.017 Q20.108,12.956 20.015,12.956 Q19.892,12.956 19.769,13.017 Q19.708,13.048 19.677,13.048 L19.185,13.417 L18.969,13.632 L18.939,13.694 L19.308,14.586 Q19.216,14.617 19.154,14.647 Q19.031,14.709 19.031,14.801 Q19.031,14.894 19.154,14.955 Q19.216,14.986 19.308,15.017 L19.492,15.017 L19.492,15.263 L17.062,14.34 Q16.939,14.309 16.816,14.278 Q16.693,14.248 16.57,14.217 Q16.447,14.186 16.293,14.186 Q16.139,14.186 16.016,14.217 Q15.893,14.248 15.77,14.278 Q15.647,14.309 15.524,14.34 L13.002,15.57 Q12.909,15.601 12.817,15.663 Q12.633,15.786 12.633,15.816 Q12.633,15.878 12.756,15.939 L12.879,16.001 L18.416,16.001 L18.6,16.001 Q18.723,16.001 18.969,15.939 L19.492,15.786 L19.492,19.754 L17.739,19.262 Q17.524,19.2 17.401,19.077 Q17.062,18.923 17.062,18.708 Q17.062,18.308 17.247,18.185 Q17.278,18.154 17.308,18.154 Q17.339,18.154 17.401,18.124 Q17.462,18.124 17.493,18.093 Q17.585,18.154 17.708,18.185 Q17.954,18.247 18.231,18.247 Q18.477,18.247 18.739,18.062 Q19,17.877 19,17.539 Q19,17.201 18.739,17.031 Q18.477,16.862 18.231,16.862 Q18.108,16.862 17.862,16.878 Q17.616,16.893 17.339,16.908 Q17.062,16.924 16.785,16.985 Q16.509,17.047 16.324,17.139 Q15.924,17.324 15.801,17.662 Q15.678,18 15.678,18.154 Q15.678,18.308 15.832,18.785 Q15.986,19.262 16.416,19.508 Q16.662,19.662 17.047,19.8 Q17.431,19.938 17.801,20.062 Q18.231,20.185 18.723,20.308 Q18.323,20.461 17.985,20.646 Q17.708,20.8 17.478,21.077 Q17.247,21.354 17.216,21.692 L17.216,21.784 Q17.216,22.092 17.339,22.323 Q17.462,22.553 17.631,22.692 Q17.801,22.83 17.954,22.922 Q18.108,23.015 18.2,23.045 L19.185,23.538 Q18.846,23.722 18.539,23.876 Q18.293,24.03 18,24.168 Q17.708,24.307 17.524,24.399 Q17.339,24.491 17.139,24.691 Q16.939,24.891 16.785,25.091 Q16.632,25.291 16.524,25.46 Q16.416,25.629 16.385,25.722 Q16.324,25.968 16.324,26.06 L16.324,26.214 L16.355,26.275 L16.478,26.214 Q16.509,26.152 16.539,26.06 Q16.601,25.875 16.632,25.814 Q16.693,25.722 16.97,25.445 Q17.247,25.168 17.801,24.922 Q18.077,24.799 18.37,24.676 Q18.662,24.553 18.908,24.43 Q19.216,24.307 19.492,24.184 L19.492,26.368 z" fill="#C74343"/>
  </g>
</svg>
