<?xml version="1.0" encoding="UTF-8"?>
<!DOCTYPE svg PUBLIC "-//W3C//DTD SVG 1.1//EN" "http://www.w3.org/Graphics/SVG/1.1/DTD/svg11.dtd">
<svg version="1.1" xmlns="http://www.w3.org/2000/svg" xmlns:xlink="http://www.w3.org/1999/xlink" x="0" y="0" width="40" height="40" viewBox="0, 0, 40, 40">
  <g id="zmap-poi-fire" transform="translate(0, 0)">
    <path d="M34.998,10 C34.998,5.874 36.48,3.859 36.492,3.844 C36.748,3.511 36.718,3.041 36.422,2.744 L33.922,0.244 C33.662,-0.018 33.26,-0.073 32.935,0.101 C32.907,0.116 30.009,1.666 26.667,1.666 C23.325,1.666 20.429,0.117 20.399,0.101 C20.15,-0.033 19.849,-0.033 19.602,0.101 C19.574,0.116 16.676,1.666 13.334,1.666 C9.992,1.666 7.096,0.117 7.066,0.101 C6.742,-0.074 6.341,-0.018 6.079,0.244 L3.579,2.744 C3.286,3.039 3.256,3.507 3.506,3.839 C3.521,3.859 5.001,5.874 5.001,10 C5.001,11.877 4.696,13.177 4.346,14.68 C3.872,16.712 3.334,19.014 3.334,23.334 C3.334,31.25 9.491,34.878 19.63,39.913 C19.747,39.97 19.874,40 20,40 C20.127,40 20.254,39.97 20.369,39.913 C30.509,34.878 36.665,31.25 36.665,23.334 C36.665,19.015 36.128,16.712 35.653,14.68 C35.302,13.175 34.998,11.875 34.998,10 z" fill="#F78F8F"/>
    <path d="M18.375,7 L18.188,7.781 C17.887,9.127 15.954,11.349 13.969,14.062 C11.984,16.776 10,20.162 10,24.406 C10,26.411 10.611,28.55 12.125,30.219 C13.639,31.887 16.047,33 19.312,33 C19.455,33 19.579,32.971 19.719,32.969 C19.814,32.972 19.903,33 20,33 C20.305,33 20.592,32.966 20.875,32.938 C20.962,32.931 21.04,32.913 21.125,32.906 C24.471,32.63 26.694,31.598 28.062,30.062 C29.667,28.263 30,25.978 30,24 C30,19.536 27.431,15.382 24.938,12.312 C22.444,9.243 19.938,7.219 19.938,7.219 L19.656,7 L19.312,7 L19.156,7 L18.375,7 z" fill="#EEE586"/>
    <path d="M18.375,7 L18.188,7.781 C17.887,9.127 15.954,11.349 13.969,14.062 C11.984,16.776 10,20.162 10,24.406 C10,26.411 10.611,28.55 12.125,30.219 C13.639,31.887 16.047,33 19.312,33 C19.455,33 19.579,32.971 19.719,32.969 C19.814,32.972 19.903,33 20,33 C20.305,33 20.592,32.966 20.875,32.938 C20.962,32.931 21.04,32.913 21.125,32.906 C24.471,32.63 26.694,31.598 28.062,30.062 C29.667,28.263 30,25.978 30,24 C30,19.536 27.431,15.382 24.938,12.312 C22.444,9.243 19.938,7.219 19.938,7.219 L19.656,7 L19.312,7 L19.156,7 L18.375,7 z M22.562,21.219 C23.025,22.394 23.531,23.582 23.781,24.812 C24.144,26.6 24.136,28.237 23.625,29.281 C23.241,30.064 22.648,30.636 21.438,30.875 C21.303,30.902 21.15,30.919 21,30.938 C20.686,30.963 20.345,30.989 20,31 C19.91,31 19.836,31.003 19.75,31 C17.587,30.928 16.548,29.964 16.156,28.5 C15.832,27.291 16.254,25.611 17.156,23.906 C17.6,24.367 18.074,24.702 18.625,24.875 C19.645,25.195 20.78,24.806 21.469,24 C22.06,23.308 22.405,22.352 22.562,21.219 z" fill="#FFFFFF"/>
    <path d="M18.375,7 L18.188,7.781 C17.887,9.127 15.954,11.349 13.969,14.062 C11.984,16.776 10,20.162 10,24.406 C10,26.411 10.611,28.55 12.125,30.219 C13.639,31.887 16.047,33 19.312,33 C19.455,33 19.579,32.971 19.719,32.969 C19.814,32.972 19.903,33 20,33 C20.305,33 20.592,32.966 20.875,32.938 C20.962,32.931 21.04,32.913 21.125,32.906 C24.471,32.63 26.694,31.598 28.062,30.062 C29.667,28.263 30,25.978 30,24 C30,19.536 27.431,15.382 24.938,12.312 C22.444,9.243 19.938,7.219 19.938,7.219 L19.656,7 L19.312,7 L19.156,7 L18.375,7 z M22.562,21.219 C23.025,22.394 23.531,23.582 23.781,24.812 C24.144,26.6 24.136,28.237 23.625,29.281 C23.241,30.064 22.648,30.636 21.438,30.875 C21.303,30.902 21.15,30.919 21,30.938 C20.686,30.963 20.345,30.989 20,31 C19.91,31 19.836,31.003 19.75,31 C17.587,30.928 16.548,29.964 16.156,28.5 C15.832,27.291 16.254,25.611 17.156,23.906 C17.6,24.367 18.074,24.702 18.625,24.875 C19.645,25.195 20.78,24.806 21.469,24 C22.06,23.308 22.405,22.352 22.562,21.219 z" fill="#C74343" display="none"/>
    <path d="M18.375,7 L18.188,7.781 C17.887,9.127 15.954,11.349 13.969,14.062 C11.984,16.776 10,20.162 10,24.406 C10,26.411 10.611,28.55 12.125,30.219 C13.639,31.887 16.047,33 19.312,33 C19.455,33 19.579,32.971 19.719,32.969 C19.814,32.972 19.903,33 20,33 C20.305,33 20.592,32.966 20.875,32.938 C20.962,32.931 21.04,32.913 21.125,32.906 C24.471,32.63 26.694,31.598 28.062,30.062 C29.667,28.263 30,25.978 30,24 C30,19.536 27.431,15.382 24.938,12.312 C22.444,9.243 19.938,7.219 19.938,7.219 L19.656,7 L19.312,7 L19.156,7 L18.375,7 z M19.5,9.5 C20.308,10.211 21.67,11.494 23.375,13.594 C25.728,16.491 28,20.331 28,24 C28,25.755 27.693,27.451 26.562,28.719 C26.32,28.991 26.027,29.259 25.688,29.5 C26.226,27.941 26.108,26.167 25.75,24.406 C25.341,22.394 24.562,20.377 23.812,18.75 C23.063,17.123 22.423,15.976 21.875,15.344 L21.594,15 L21.125,15 L21,15 L19.656,15 L20.031,16.281 C21.078,19.685 20.526,21.999 19.938,22.688 C19.643,23.032 19.515,23.062 19.219,22.969 C18.922,22.876 18.386,22.487 17.875,21.531 L17.125,20.125 L16.188,21.406 C14.318,23.927 13.6,26.689 14.219,29 C14.273,29.203 14.36,29.401 14.438,29.594 C14.139,29.368 13.863,29.137 13.625,28.875 C12.508,27.644 12,26.001 12,24.406 C12,20.784 13.702,17.836 15.594,15.25 C17.134,13.145 18.632,11.366 19.5,9.5 z M22.562,21.219 C23.025,22.394 23.531,23.582 23.781,24.812 C24.144,26.6 24.136,28.237 23.625,29.281 C23.241,30.064 22.648,30.636 21.438,30.875 C21.303,30.902 21.15,30.919 21,30.938 C20.686,30.963 20.345,30.989 20,31 C19.91,31 19.836,31.003 19.75,31 C17.587,30.928 16.548,29.964 16.156,28.5 C15.832,27.291 16.254,25.611 17.156,23.906 C17.6,24.367 18.074,24.702 18.625,24.875 C19.645,25.195 20.78,24.806 21.469,24 C22.06,23.308 22.405,22.352 22.562,21.219 z" fill="#C74343"/>
    <path d="M34.998,10 C34.998,5.874 36.48,3.859 36.492,3.844 C36.748,3.511 36.718,3.041 36.422,2.744 L33.922,0.244 C33.662,-0.018 33.26,-0.073 32.935,0.101 C32.907,0.116 30.009,1.666 26.667,1.666 C23.325,1.666 20.429,0.117 20.399,0.101 C20.15,-0.033 19.849,-0.033 19.602,0.101 C19.574,0.116 16.676,1.666 13.334,1.666 C9.992,1.666 7.096,0.117 7.066,0.101 C6.742,-0.074 6.341,-0.018 6.079,0.244 L3.579,2.744 C3.286,3.039 3.256,3.507 3.506,3.839 C3.521,3.859 5.001,5.874 5.001,10 C5.001,11.877 4.696,13.177 4.346,14.68 C3.872,16.712 3.334,19.014 3.334,23.334 C3.334,31.25 9.491,34.878 19.63,39.913 C19.747,39.97 19.874,40 20,40 C20.127,40 20.254,39.97 20.369,39.913 C30.509,34.878 36.665,31.25 36.665,23.334 C36.665,19.015 36.128,16.712 35.653,14.68 C35.302,13.175 34.998,11.875 34.998,10 z M20,38.235 C10.691,33.603 5.001,30.337 5.001,23.334 C5.001,19.205 5.516,17.004 5.969,15.059 C6.327,13.52 6.667,12.069 6.667,10 C6.667,6.609 5.764,4.449 5.222,3.457 L6.836,1.846 C7.924,2.346 10.447,3.336 13.334,3.336 C16.382,3.336 19.024,2.232 20,1.767 C20.977,2.232 23.619,3.336 26.667,3.336 C29.554,3.336 32.077,2.344 33.165,1.846 L34.779,3.457 C34.237,4.449 33.334,6.609 33.334,10 C33.334,12.069 33.674,13.52 34.032,15.059 C34.485,17.004 35,19.205 35,23.334 C35,30.335 29.31,33.602 20,38.235 z" fill="#C74343"/>
  </g>
</svg>
