<?xml version="1.0" encoding="UTF-8"?>
<!DOCTYPE svg PUBLIC "-//W3C//DTD SVG 1.1//EN" "http://www.w3.org/Graphics/SVG/1.1/DTD/svg11.dtd">
<svg version="1.1" xmlns="http://www.w3.org/2000/svg" xmlns:xlink="http://www.w3.org/1999/xlink" x="0" y="0" width="40" height="40" viewBox="0, 0, 40, 40">
  <g id="zmap-ers-ops-ambulance" transform="translate(0, 0)">
    <path d="M20.015,35.835 Q23.153,35.835 25.891,34.651 Q28.629,33.466 30.69,31.405 Q32.751,29.344 33.935,26.591 Q35.119,23.838 35.119,20.7 Q35.119,17.562 33.935,14.809 Q32.751,12.056 30.69,10.01 Q28.629,7.965 25.891,6.765 Q23.153,5.565 20.015,5.565 Q16.878,5.565 14.125,6.765 Q11.371,7.965 9.31,10.01 Q7.249,12.056 6.065,14.809 Q4.881,17.562 4.881,20.7 Q4.881,23.838 6.065,26.591 Q7.249,29.344 9.31,31.405 Q11.371,33.466 14.125,34.651 Q16.878,35.835 20.015,35.835 z M36.196,20.7 Q36.196,24.053 34.919,27.006 Q33.643,29.959 31.443,32.144 Q29.244,34.328 26.306,35.604 Q23.368,36.881 20.015,36.881 Q16.662,36.881 13.709,35.604 Q10.756,34.328 8.557,32.144 Q6.357,29.959 5.081,27.006 Q3.804,24.053 3.804,20.7 Q3.804,17.347 5.081,14.394 Q6.357,11.441 8.557,9.257 Q10.756,7.073 13.709,5.796 Q16.662,4.52 20.015,4.52 Q23.368,4.52 26.306,5.796 Q29.244,7.073 31.443,9.257 Q33.643,11.441 34.919,14.394 Q36.196,17.347 36.196,20.7 z M7.003,25.161 L7.865,25.161 L7.865,26.514 L7.003,26.514 z M28.844,17.132 Q29.89,17.132 30.628,17.409 Q31.366,17.686 31.828,18.162 Q32.289,18.639 32.505,19.27 Q32.72,19.9 32.72,20.639 L32.72,26.514 L30.074,26.514 Q29.951,27.406 29.259,28.021 Q28.567,28.637 27.644,28.637 Q26.721,28.637 26.029,28.021 Q25.337,27.406 25.214,26.514 L14.571,26.514 Q14.448,27.406 13.771,28.021 Q13.094,28.637 12.171,28.637 Q11.218,28.637 10.541,28.021 Q9.864,27.406 9.741,26.514 L8.111,26.514 L8.111,23.684 Q8.111,23.284 8.772,22.9 Q9.433,22.515 10.233,22.177 Q11.156,21.808 12.356,21.469 Q12.786,20.977 13.217,20.516 Q13.555,20.116 13.955,19.67 Q14.355,19.224 14.601,18.885 Q15.124,18.239 15.693,17.686 Q16.262,17.132 17.247,17.132 z M26.168,20.731 L23.83,20.731 L23.83,18.393 L21.677,18.393 L21.677,20.731 L19.369,20.731 L19.369,22.854 L21.677,22.854 L21.677,25.191 L23.83,25.191 L23.83,22.854 L26.168,22.854 z M18.077,16.67 Q18.108,16.271 18.293,15.932 Q18.447,15.655 18.739,15.425 Q19.031,15.194 19.554,15.194 Q19.923,15.194 20.169,15.317 Q20.415,15.44 20.569,15.594 Q20.723,15.748 20.815,15.948 Q20.907,16.147 20.969,16.301 Q21.031,16.486 21.061,16.67 L19.492,16.67 z M17.585,9.903 L17.462,9.964 Q16.785,9.995 16.078,10.149 Q15.463,10.303 14.755,10.61 Q14.048,10.918 13.402,11.533 Q12.879,11.995 12.602,12.594 Q12.325,13.194 12.187,13.748 Q12.048,14.302 12.017,14.732 Q11.987,15.163 11.987,15.348 L11.987,15.44 L11.956,15.563 Q11.956,15.594 11.925,15.625 Q11.894,15.655 11.771,15.655 Q11.679,15.655 11.617,15.594 Q11.587,15.563 11.587,15.532 L11.587,15.378 Q11.587,15.225 11.617,14.748 Q11.648,14.271 11.802,13.671 Q11.956,13.071 12.279,12.425 Q12.602,11.779 13.156,11.256 Q13.802,10.672 14.463,10.333 Q15.124,9.995 15.724,9.841 Q16.324,9.688 16.755,9.641 Q17.185,9.595 17.37,9.595 L17.462,9.595 L17.585,9.657 L17.647,9.78 z M18.17,11.841 Q18.17,11.902 18.108,11.964 L18.047,12.025 L17.924,12.056 L17.801,12.056 Q17.554,12.056 16.832,12.225 Q16.109,12.395 15.34,13.102 Q14.97,13.44 14.771,13.84 Q14.571,14.24 14.478,14.609 Q14.386,14.979 14.355,15.255 Q14.324,15.532 14.324,15.625 L14.324,15.686 L14.263,15.809 L14.201,15.871 Q14.14,15.932 14.048,15.932 Q13.986,15.932 13.925,15.871 Q13.863,15.84 13.832,15.809 L13.802,15.686 Q13.832,15.194 13.955,14.671 Q14.078,14.24 14.294,13.733 Q14.509,13.225 14.94,12.794 Q15.34,12.395 15.77,12.148 Q16.201,11.902 16.57,11.764 Q16.939,11.625 17.247,11.595 Q17.554,11.564 17.739,11.564 L17.924,11.564 L18.047,11.595 Q18.047,11.625 18.077,11.625 L18.139,11.687 z M16.724,14.086 Q17.462,13.287 18.416,13.287 Q18.539,13.287 18.6,13.379 Q18.693,13.471 18.693,13.594 Q18.693,13.687 18.6,13.779 Q18.539,13.871 18.416,13.871 Q17.739,13.871 17.124,14.486 Q16.632,15.04 16.632,15.717 Q16.632,15.778 16.601,15.824 Q16.57,15.871 16.539,15.932 Q16.478,15.994 16.416,15.994 Q16.355,16.024 16.324,16.024 Q16.262,16.024 16.232,15.994 Q16.139,15.994 16.139,15.932 Q16.047,15.84 16.047,15.717 Q16.047,15.317 16.186,14.932 Q16.324,14.548 16.57,14.24 z M22.569,14.271 Q22.815,14.579 22.953,14.948 Q23.092,15.317 23.092,15.717 Q23.092,15.84 22.999,15.932 Q22.938,15.994 22.876,15.994 Q22.815,16.024 22.784,16.024 Q22.722,16.024 22.692,15.994 Q22.599,15.994 22.599,15.932 Q22.507,15.84 22.507,15.717 Q22.507,15.378 22.369,15.055 Q22.23,14.732 21.984,14.486 Q21.43,13.871 20.723,13.871 Q20.6,13.871 20.508,13.779 Q20.415,13.687 20.415,13.594 Q20.415,13.471 20.508,13.379 Q20.6,13.287 20.723,13.287 Q21.615,13.287 22.415,14.086 z M21.523,9.688 L21.584,9.626 L21.677,9.595 L21.769,9.595 Q21.953,9.595 22.384,9.641 Q22.815,9.688 23.415,9.841 Q24.014,9.995 24.676,10.333 Q25.337,10.672 25.983,11.256 Q26.537,11.779 26.844,12.41 Q27.152,13.041 27.306,13.64 Q27.46,14.24 27.49,14.702 Q27.521,15.163 27.521,15.348 L27.521,15.44 L27.49,15.563 Q27.49,15.594 27.46,15.625 Q27.429,15.655 27.337,15.655 Q27.275,15.655 27.214,15.594 Q27.183,15.563 27.183,15.532 L27.152,15.44 L27.152,15.348 Q27.152,15.194 27.121,14.748 Q27.091,14.302 26.952,13.748 Q26.814,13.194 26.521,12.594 Q26.229,11.995 25.706,11.533 Q25.06,10.918 24.368,10.61 Q23.676,10.303 23.061,10.149 Q22.353,9.995 21.677,9.964 L21.584,9.934 Q21.553,9.934 21.523,9.903 Q21.492,9.872 21.492,9.78 z M21,11.718 L21.061,11.595 L21.184,11.564 L21.369,11.564 Q21.553,11.564 21.861,11.595 Q22.169,11.625 22.538,11.764 Q22.907,11.902 23.338,12.148 Q23.768,12.395 24.168,12.794 Q24.599,13.225 24.814,13.733 Q25.03,14.24 25.153,14.671 Q25.276,15.194 25.337,15.686 L25.276,15.809 L25.214,15.871 Q25.153,15.932 25.06,15.932 Q24.999,15.932 24.922,15.886 Q24.845,15.84 24.845,15.809 L24.814,15.717 L24.814,15.594 Q24.814,15.501 24.783,15.225 Q24.753,14.948 24.66,14.594 Q24.568,14.24 24.368,13.84 Q24.168,13.44 23.799,13.102 Q23.03,12.395 22.307,12.225 Q21.584,12.056 21.338,12.056 L21.215,12.056 L21.061,12.025 L21,11.964 Q20.969,11.933 20.969,11.841 z" fill="#C74343"/>
  </g>
</svg>
