<?xml version="1.0" encoding="UTF-8"?>
<!DOCTYPE svg PUBLIC "-//W3C//DTD SVG 1.1//EN" "http://www.w3.org/Graphics/SVG/1.1/DTD/svg11.dtd">
<svg version="1.1" xmlns="http://www.w3.org/2000/svg" xmlns:xlink="http://www.w3.org/1999/xlink" x="0" y="0" width="40" height="40" viewBox="0, 0, 40, 40">
  <g id="zmap-ers-inc-marineacc" transform="translate(0, 0)">
    <path d="M40,19.985 L20.015,39.97 L0,19.985 L20.015,-0 z M38.393,19.985 L20.015,1.607 L1.638,19.985 L20.015,38.362 z M26.899,26.444 L17.225,21.592 L9.947,21.592 L6.581,17.074 L11.615,17.074 L11.615,14.951 L14.041,14.951 L13.252,11.403 L14.92,10.978 L15.982,14.89 L16.892,14.89 L17.165,21.289 L19.894,15.436 L20.864,15.951 L21.744,12.464 L23.412,12.828 L22.623,16.74 L24.473,17.741 L25.353,14.344 L27.02,14.708 L26.232,18.62 L28.385,19.682 L27.475,21.592 L31.933,23.836 z" fill="#C74343"/>
  </g>
</svg>
