<?xml version="1.0" encoding="UTF-8"?>
<!DOCTYPE svg PUBLIC "-//W3C//DTD SVG 1.1//EN" "http://www.w3.org/Graphics/SVG/1.1/DTD/svg11.dtd">
<svg version="1.1" xmlns="http://www.w3.org/2000/svg" xmlns:xlink="http://www.w3.org/1999/xlink" x="0" y="0" width="40" height="40" viewBox="0, 0, 40, 40">
  <g id="zmap-ers-ops-hospital" transform="translate(0, 0)">
    <path d="M20.39,35.01 Q23.528,35.01 26.266,33.826 Q29.004,32.642 31.065,30.581 Q33.126,28.52 34.31,25.766 Q35.494,23.013 35.494,19.875 Q35.494,16.738 34.31,13.985 Q33.126,11.231 31.065,9.186 Q29.004,7.14 26.266,5.94 Q23.528,4.741 20.39,4.741 Q17.253,4.741 14.5,5.94 Q11.746,7.14 9.685,9.186 Q7.624,11.231 6.44,13.985 Q5.256,16.738 5.256,19.875 Q5.256,23.013 6.44,25.766 Q7.624,28.52 9.685,30.581 Q11.746,32.642 14.5,33.826 Q17.253,35.01 20.39,35.01 z M36.571,19.875 Q36.571,23.229 35.294,26.182 Q34.018,29.135 31.818,31.319 Q29.619,33.503 26.681,34.78 Q23.743,36.056 20.39,36.056 Q17.037,36.056 14.084,34.78 Q11.131,33.503 8.932,31.319 Q6.732,29.135 5.456,26.182 Q4.179,23.229 4.179,19.875 Q4.179,16.522 5.456,13.569 Q6.732,10.616 8.932,8.432 Q11.131,6.248 14.084,4.971 Q17.037,3.695 20.39,3.695 Q23.743,3.695 26.681,4.971 Q29.619,6.248 31.818,8.432 Q34.018,10.616 35.294,13.569 Q36.571,16.522 36.571,19.875 z M11.131,24.767 L11.131,10.985 Q11.131,10.678 11.346,10.462 Q11.562,10.247 11.839,10.247 L28.911,10.247 Q29.219,10.247 29.419,10.462 Q29.619,10.678 29.619,10.985 L29.619,28.766 Q29.619,29.073 29.419,29.289 Q29.219,29.504 28.911,29.504 L11.839,29.504 Q11.562,29.504 11.346,29.289 Q11.131,29.073 11.131,28.766 z M22.636,12.339 L22.636,18.153 L17.806,18.153 L17.806,12.339 L14.423,12.339 L14.423,27.381 L17.806,27.381 L17.806,21.075 L22.636,21.075 L22.636,27.381 L26.051,27.381 L26.051,12.339 z" fill="#C74343"/>
  </g>
</svg>
