<?xml version="1.0" encoding="UTF-8"?>
<!DOCTYPE svg PUBLIC "-//W3C//DTD SVG 1.1//EN" "http://www.w3.org/Graphics/SVG/1.1/DTD/svg11.dtd">
<svg version="1.1" xmlns="http://www.w3.org/2000/svg" xmlns:xlink="http://www.w3.org/1999/xlink" x="0" y="0" width="40" height="40" viewBox="0, 0, 40, 40">
  <g id="zmap-ers-evt-flood" transform="translate(0, 0)">
    <path d="M40,19.985 L20.015,39.97 L0,19.985 L20.015,0 z M34.784,23.594 L34.602,23.533 Q34.541,23.533 34.42,23.654 Q34.147,23.897 33.844,24.079 Q33.601,24.23 33.283,24.367 Q32.964,24.503 32.661,24.503 Q32.418,24.503 32.146,24.337 Q31.873,24.17 31.569,23.927 Q31.266,23.685 31.008,23.412 Q30.751,23.139 30.569,22.896 Q30.447,22.775 30.326,22.775 Q30.265,22.775 30.144,22.896 Q29.78,23.381 29.386,23.715 Q29.052,24.018 28.597,24.261 Q28.143,24.503 27.718,24.503 Q27.233,24.503 26.778,24.276 Q26.323,24.049 25.929,23.745 Q25.474,23.412 25.049,22.957 Q24.928,22.835 24.837,22.835 Q24.776,22.835 24.655,22.957 Q24.503,23.139 24.23,23.412 Q23.958,23.685 23.594,23.942 Q23.23,24.2 22.851,24.397 Q22.472,24.594 22.108,24.594 Q21.774,24.594 21.44,24.397 Q21.107,24.2 20.834,23.912 Q20.561,23.624 20.349,23.321 Q20.136,23.017 20.015,22.835 Q20.015,22.745 19.955,22.729 Q19.894,22.714 19.833,22.714 Q19.621,22.714 19.56,22.835 Q19.257,23.351 18.923,23.715 Q18.62,24.049 18.196,24.321 Q17.771,24.594 17.286,24.594 Q16.801,24.594 16.361,24.321 Q15.921,24.049 15.588,23.73 Q15.254,23.412 15.057,23.139 Q14.86,22.866 14.86,22.835 L14.678,22.714 Q14.587,22.714 14.466,22.835 Q14.435,22.835 14.177,23.093 Q13.92,23.351 13.525,23.639 Q13.131,23.927 12.646,24.185 Q12.161,24.443 11.676,24.443 Q11.19,24.443 10.796,24.185 Q10.402,23.927 10.068,23.594 Q9.704,23.23 9.371,22.714 Q9.31,22.593 9.128,22.593 Q9.067,22.593 8.946,22.714 Q8.734,23.108 8.461,23.412 Q8.218,23.654 7.9,23.867 Q7.582,24.079 7.218,24.079 L7.157,24.079 Q6.732,24.049 6.414,23.942 Q6.096,23.836 5.853,23.685 Q5.55,23.533 5.337,23.351 L5.155,23.29 L4.973,23.351 L20.015,38.362 z M12.252,16.255 L12.07,19.924 L14.86,20.167 L15.102,16.437 z M14.526,16.952 L14.405,19.621 L12.555,19.5 L12.737,16.892 z M33.237,20.743 L27.839,12.403 Q27.718,12.282 27.657,12.282 L23.108,11.918 L23.108,9.613 L20.622,9.371 L20.622,9.431 L19.257,9.613 L19.136,11.615 L14.102,11.221 L13.98,11.221 L13.98,11.281 L13.92,11.281 L6.52,19.621 L6.914,19.985 L7.945,18.741 L7.703,23.412 L8.218,23.017 Q8.279,21.744 8.37,20.743 Q8.431,19.864 8.476,19.151 Q8.522,18.438 8.522,18.378 Q8.552,18.347 8.946,17.892 Q9.34,17.437 9.932,16.74 Q10.523,16.042 11.19,15.254 Q11.857,14.466 12.464,13.738 Q13.071,13.01 13.51,12.494 Q13.95,11.979 14.041,11.857 Q14.132,11.979 14.526,12.555 Q14.92,13.131 15.466,13.935 Q16.012,14.738 16.634,15.648 Q17.255,16.558 17.771,17.346 Q18.287,18.135 18.635,18.666 Q18.984,19.196 19.014,19.227 L18.832,23.199 L19.318,22.593 L19.5,19.864 L20.136,20.864 Q20.258,20.986 20.318,20.986 L31.751,20.986 L31.751,23.654 L32.115,24.018 L32.237,21.107 L33.055,21.168 Q33.116,21.168 33.177,21.137 Q33.237,21.107 33.237,21.046 L33.298,20.925 z M20.864,9.917 Q21.046,9.917 21.304,9.932 Q21.562,9.947 21.835,9.977 Q22.108,10.008 22.335,10.023 Q22.563,10.038 22.684,10.038 L22.502,13.95 Q22.381,13.92 22.138,13.904 Q21.895,13.889 21.622,13.874 Q21.35,13.859 21.092,13.844 Q20.834,13.829 20.682,13.829 z M20.379,9.917 L20.197,13.283 Q20.015,12.949 19.818,12.646 Q19.621,12.343 19.56,12.282 Q19.56,12.252 19.575,11.933 Q19.591,11.615 19.621,11.236 Q19.651,10.857 19.666,10.508 Q19.682,10.159 19.682,10.038 z M20.5,20.47 Q20.44,20.44 20.03,19.818 Q19.621,19.196 18.999,18.302 Q18.378,17.407 17.665,16.331 Q16.952,15.254 16.315,14.299 Q15.679,13.343 15.208,12.646 Q14.738,11.948 14.617,11.736 L19.075,12.1 L19.075,12.403 L20.318,14.284 L22.987,14.466 L22.987,12.403 Q23.351,12.434 24.064,12.479 Q24.776,12.525 25.504,12.585 Q26.232,12.646 26.808,12.691 Q27.384,12.737 27.445,12.767 Q27.475,12.828 27.839,13.374 Q28.203,13.92 28.734,14.738 Q29.265,15.557 29.886,16.513 Q30.508,17.468 31.069,18.317 Q31.63,19.166 32.024,19.803 Q32.418,20.44 32.54,20.591 z" fill="#C74343"/>
  </g>
</svg>
