<?xml version="1.0" encoding="UTF-8"?>
<!DOCTYPE svg PUBLIC "-//W3C//DTD SVG 1.1//EN" "http://www.w3.org/Graphics/SVG/1.1/DTD/svg11.dtd">
<svg version="1.1" xmlns="http://www.w3.org/2000/svg" xmlns:xlink="http://www.w3.org/1999/xlink" x="0" y="0" width="40" height="40" viewBox="0, 0, 40, 40">
  <g id="zmap-ers-inc-bombth" transform="translate(0, 0)">
    <path d="M40,19.985 L20.015,39.97 L0,19.985 L20.015,-0 z M38.393,19.985 L20.015,1.607 L1.638,19.985 L20.015,38.362 z M22.502,17.923 Q22.835,18.074 23.154,18.226 Q23.472,18.378 23.806,18.56 Q25.444,19.53 26.429,21.213 Q27.415,22.896 27.415,24.898 Q27.415,26.444 26.823,27.779 Q26.232,29.113 25.231,30.114 Q24.23,31.114 22.881,31.691 Q21.531,32.267 20.015,32.267 Q18.469,32.267 17.119,31.691 Q15.77,31.114 14.769,30.114 Q13.768,29.113 13.192,27.779 Q12.616,26.444 12.616,24.898 Q12.616,23.685 12.98,22.578 Q13.343,21.471 13.995,20.561 Q14.647,19.651 15.557,18.969 Q16.467,18.287 17.528,17.923 L17.528,16.133 L19.439,16.133 Q19.439,15.679 19.56,15.315 Q19.682,14.951 19.848,14.647 Q20.015,14.344 20.136,14.056 Q20.258,13.768 20.258,13.404 Q20.258,12.98 20.03,12.479 Q19.803,11.979 19.136,11.221 L19.712,10.735 Q20.44,11.615 20.728,12.252 Q21.016,12.889 21.016,13.404 Q21.016,13.798 20.895,14.147 Q20.773,14.496 20.607,14.814 Q20.44,15.133 20.318,15.451 Q20.197,15.77 20.197,16.133 L22.502,16.133 z M20.561,29.052 L19.014,29.052 L19.014,30.599 L20.561,30.599 z M23.169,23.594 Q23.321,23.29 23.366,22.987 Q23.412,22.684 23.412,22.35 Q23.412,21.077 22.532,20.318 Q21.653,19.56 20.076,19.56 Q19.318,19.56 18.575,19.712 Q17.832,19.864 17.286,20.045 L17.286,21.531 L17.407,21.531 Q17.832,21.198 18.529,21.001 Q19.227,20.804 19.894,20.804 Q20.834,20.804 21.35,21.213 Q21.865,21.622 21.865,22.411 Q21.865,23.199 21.152,24.064 Q20.44,24.928 19.075,25.444 L19.075,27.688 L20.44,27.688 L20.44,26.08 Q21.137,25.686 21.683,25.307 Q22.229,24.928 22.623,24.443 z M19.439,5.823 L19.955,5.883 L19.5,9.189 z M24.473,10.099 L24.534,10.735 L21.198,10.735 z M18.469,9.431 L17.165,7.763 L17.589,7.491 z M16.103,14.89 L15.709,14.526 L18.135,12.282 z M22.441,8.006 L22.805,8.37 L20.743,9.795 z M17.65,11.342 L15.406,12.039 L15.284,11.524 z M17.771,10.22 L15.163,9.431 L15.345,8.916 z" fill="#C74343"/>
  </g>
</svg>
