<?xml version="1.0" encoding="UTF-8"?>
<!DOCTYPE svg PUBLIC "-//W3C//DTD SVG 1.1//EN" "http://www.w3.org/Graphics/SVG/1.1/DTD/svg11.dtd">
<svg version="1.1" xmlns="http://www.w3.org/2000/svg" xmlns:xlink="http://www.w3.org/1999/xlink" x="0" y="0" width="40" height="40" viewBox="0, 0, 40, 40">
  <g id="zmap-ers-inc-vecacc" transform="translate(0, 0)">
    <path d="M40,19.985 L20.015,39.97 L0,19.985 L20.015,-0 z M38.393,19.985 L20.015,1.607 L1.638,19.985 L20.015,38.362 z M31.691,24.261 L31.236,25.201 L30.933,25.019 L30.508,25.747 L27.839,24.443 Q27.506,24.928 26.99,25.186 Q26.475,25.444 25.898,25.444 Q25.625,25.444 25.368,25.398 Q25.11,25.353 24.867,25.201 Q24.261,24.867 23.912,24.306 Q23.563,23.745 23.563,23.078 Q23.563,22.896 23.594,22.714 Q23.624,22.532 23.685,22.35 L18.256,19.682 L15.861,20.106 L15.861,20.227 Q15.861,21.016 15.315,21.683 Q14.769,22.35 13.92,22.532 L13.556,22.532 Q12.767,22.532 12.13,22.092 Q11.494,21.653 11.251,20.925 L7.278,21.653 L7.096,20.682 L6.581,20.743 L6.338,19.287 L6.793,19.166 L6.581,16.952 L11.372,15.375 L12.616,12.161 L16.71,11.403 L18.256,19.439 L21.804,12.039 L25.898,14.071 L26.657,17.68 L31.448,21.713 L31.327,24.079 z M13.798,22.047 Q14.496,21.895 14.92,21.365 Q15.345,20.834 15.345,20.167 L15.345,19.864 Q15.193,19.166 14.663,18.741 Q14.132,18.317 13.495,18.317 L13.192,18.317 Q12.494,18.469 12.055,18.984 Q11.615,19.5 11.615,20.167 L11.615,20.47 Q11.766,21.168 12.297,21.607 Q12.828,22.047 13.495,22.047 z M16.77,14.829 L16.285,12.221 L13.192,12.767 L12.373,15.648 z M25.231,17.498 L25.595,16.679 L25.171,14.526 L22.108,12.98 L20.955,15.315 z M27.597,23.897 Q27.779,23.533 27.779,23.078 Q27.779,22.926 27.779,22.775 Q27.779,22.623 27.718,22.472 Q27.415,21.683 26.778,21.41 Q26.535,21.319 26.308,21.243 Q26.08,21.168 25.838,21.168 Q25.686,21.168 25.565,21.198 Q25.444,21.228 25.292,21.289 Q24.958,21.44 24.685,21.668 Q24.412,21.895 24.23,22.229 Q24.049,22.593 24.049,23.017 Q24.049,23.533 24.306,24.003 Q24.564,24.473 25.049,24.776 Q25.413,24.958 25.838,24.958 Q26.353,24.958 26.854,24.685 Q27.354,24.412 27.597,23.897 z" fill="#C74343"/>
  </g>
</svg>
