<?xml version="1.0" encoding="UTF-8"?>
<!DOCTYPE svg PUBLIC "-//W3C//DTD SVG 1.1//EN" "http://www.w3.org/Graphics/SVG/1.1/DTD/svg11.dtd">
<svg version="1.1" xmlns="http://www.w3.org/2000/svg" xmlns:xlink="http://www.w3.org/1999/xlink" x="0" y="0" width="40" height="40" viewBox="0, 0, 40, 40">
  <g id="zmap-ers-ops-evacp" transform="translate(0, 0)">
    <path d="M20.015,35.135 Q23.153,35.135 25.891,33.95 Q28.629,32.766 30.69,30.705 Q32.751,28.644 33.935,25.891 Q35.119,23.138 35.119,20 Q35.119,16.862 33.935,14.109 Q32.751,11.356 30.69,9.31 Q28.629,7.265 25.891,6.065 Q23.153,4.865 20.015,4.865 Q16.878,4.865 14.125,6.065 Q11.371,7.265 9.31,9.31 Q7.249,11.356 6.065,14.109 Q4.881,16.862 4.881,20 Q4.881,23.138 6.065,25.891 Q7.249,28.644 9.31,30.705 Q11.371,32.766 14.125,33.95 Q16.878,35.135 20.015,35.135 z M36.196,20 Q36.196,23.353 34.919,26.306 Q33.643,29.259 31.443,31.443 Q29.244,33.627 26.306,34.904 Q23.368,36.181 20.015,36.181 Q16.662,36.181 13.709,34.904 Q10.756,33.627 8.557,31.443 Q6.357,29.259 5.081,26.306 Q3.804,23.353 3.804,20 Q3.804,16.647 5.081,13.694 Q6.357,10.741 8.557,8.557 Q10.756,6.373 13.709,5.096 Q16.662,3.819 20.015,3.819 Q23.368,3.819 26.306,5.096 Q29.244,6.373 31.443,8.557 Q33.643,10.741 34.919,13.694 Q36.196,16.647 36.196,20 z M25.491,26.429 L17.093,26.429 L17.093,27.813 L13.832,25.783 L17.093,23.784 L17.093,25.168 L25.491,25.168 z M29.644,22.184 L29.644,24.399 L30.628,24.399 L30.628,29.075 L29.582,29.075 L29.582,24.46 L28.567,24.46 L28.567,29.075 L27.552,29.075 L27.552,24.399 L28.506,24.399 L28.506,22.184 L24.876,22.184 L24.876,21.384 L28.506,21.384 L28.506,20.092 Q27.952,19.908 27.614,19.446 Q27.275,18.985 27.275,18.37 Q27.275,17.631 27.798,17.093 Q28.321,16.555 29.09,16.555 Q29.828,16.555 30.367,17.093 Q30.905,17.631 30.905,18.37 Q30.905,18.985 30.551,19.446 Q30.198,19.908 29.644,20.092 L29.644,21.384 L33.274,21.384 L33.274,22.184 z M18.416,12.217 L18.416,14.401 L19.369,14.401 L19.369,19.108 L18.354,19.108 L18.354,14.463 L17.308,14.463 L17.308,19.108 L16.293,19.108 L16.293,14.401 L17.247,14.401 L17.247,12.217 L13.617,12.217 L13.617,11.387 L17.247,11.387 L17.247,10.125 Q16.724,9.941 16.37,9.479 Q16.016,9.018 16.016,8.403 Q16.016,7.634 16.539,7.111 Q17.062,6.588 17.831,6.588 Q18.57,6.588 19.108,7.111 Q19.646,7.634 19.646,8.403 Q19.646,9.018 19.292,9.479 Q18.939,9.941 18.416,10.125 L18.416,11.387 L22.015,11.387 L22.015,12.217 z M11.248,17.57 L11.248,19.754 L12.202,19.754 L12.202,24.43 L11.187,24.43 L11.187,19.815 L10.172,19.815 L10.172,24.43 L9.126,24.43 L9.126,19.754 L10.11,19.754 L10.11,17.57 L6.48,17.57 L6.48,16.739 L10.11,16.739 L10.11,15.447 Q9.556,15.293 9.203,14.817 Q8.849,14.34 8.849,13.725 Q8.849,12.986 9.387,12.448 Q9.926,11.91 10.664,11.91 Q11.433,11.91 11.956,12.448 Q12.479,12.986 12.479,13.725 Q12.479,14.34 12.125,14.801 Q11.771,15.263 11.248,15.447 L11.248,16.739 L14.878,16.739 L14.878,17.57 z" fill="#C74343"/>
  </g>
</svg>
