<?xml version="1.0" encoding="UTF-8"?>
<!DOCTYPE svg PUBLIC "-//W3C//DTD SVG 1.1//EN" "http://www.w3.org/Graphics/SVG/1.1/DTD/svg11.dtd">
<svg version="1.1" xmlns="http://www.w3.org/2000/svg" xmlns:xlink="http://www.w3.org/1999/xlink" x="0" y="0" width="40" height="40" viewBox="0, 0, 40, 40">
  <g id="zmap-ers-inc-marineinc" transform="translate(0, 0)">
    <path d="M40,19.985 L20.015,39.97 L-0,19.985 L20.015,0 z M38.393,19.985 L20.015,1.607 L1.638,19.985 L20.015,38.362 z M34.663,19.287 L30.751,24.655 L9.249,24.655 L5.337,19.287 L11.251,19.287 L11.251,16.831 L14.102,16.831 L13.192,12.707 L15.163,12.221 L16.346,16.831 L18.893,16.831 L17.953,12.707 L19.955,12.221 L21.137,16.831 L23.624,16.831 L22.745,12.707 L24.716,12.282 L25.898,16.831 L28.779,16.831 L28.779,19.287 z" fill="#C74343"/>
  </g>
</svg>
