<?xml version="1.0" encoding="UTF-8"?>
<!DOCTYPE svg PUBLIC "-//W3C//DTD SVG 1.1//EN" "http://www.w3.org/Graphics/SVG/1.1/DTD/svg11.dtd">
<svg version="1.1" xmlns="http://www.w3.org/2000/svg" xmlns:xlink="http://www.w3.org/1999/xlink" x="0" y="0" width="40" height="40" viewBox="0, 0, 40, 40">
  <g id="zmap-marker-food" transform="translate(0, 0)">
    <path d="M19.999,38.251 C17.896,35.874 7.5,23.628 7.5,14 C7.5,7.107 13.107,1.5 20,1.5 C26.893,1.5 32.5,7.107 32.5,14 C32.5,23.58 22.102,35.866 19.999,38.251 z" fill="#84D09C"/>
    <path d="M20,2 C26.617,2 32,7.383 32,14 C32,22.932 22.71,34.349 19.999,37.491 C17.286,34.358 8,22.977 8,14 C8,7.383 13.383,2 20,2 M20,1 C12.82,1 7,6.82 7,14 C7,24.981 20,39 20,39 C20,39 33,24.926 33,14 C33,6.82 27.18,1 20,1 L20,1 z" fill="#37A55A"/>
    <g>
      <path d="M19.722,12.88 L18.167,12.88 L18.167,7.436 L16.611,7.436 L16.611,12.88 L15.056,12.88 L15.056,7.436 L13.5,7.436 L13.5,12.88 C13.5,14.533 14.791,15.871 16.417,15.972 L16.417,22.992 L18.361,22.992 L18.361,15.972 C19.987,15.871 21.278,14.533 21.278,12.88 L21.278,7.436 L19.722,7.436 L19.722,12.88 z M23.611,10.547 L23.611,16.769 L25.556,16.769 L25.556,22.992 L27.5,22.992 L27.5,7.436 C25.353,7.436 23.611,9.178 23.611,10.547 z" fill="#F2FAFF"/>
      <path d="M19.722,12.88 L18.167,12.88 L18.167,7.436 L16.611,7.436 L16.611,12.88 L15.056,12.88 L15.056,7.436 L13.5,7.436 L13.5,12.88 C13.5,14.533 14.791,15.871 16.417,15.972 L16.417,22.992 L18.361,22.992 L18.361,15.972 C19.987,15.871 21.278,14.533 21.278,12.88 L21.278,7.436 L19.722,7.436 L19.722,12.88 z M23.611,10.547 L23.611,16.769 L25.556,16.769 L25.556,22.992 L27.5,22.992 L27.5,7.436 C25.353,7.436 23.611,9.178 23.611,10.547 z" fill-opacity="0" stroke="#36A55A" stroke-width="1"/>
    </g>
  </g>
</svg>
