<?xml version="1.0" encoding="UTF-8"?>
<!DOCTYPE svg PUBLIC "-//W3C//DTD SVG 1.1//EN" "http://www.w3.org/Graphics/SVG/1.1/DTD/svg11.dtd">
<svg version="1.1" xmlns="http://www.w3.org/2000/svg" xmlns:xlink="http://www.w3.org/1999/xlink" x="0" y="0" width="40" height="40" viewBox="0, 0, 40, 40">
  <g id="zmap-ers-inc-criminal" transform="translate(0, 0)">
    <path d="M40,19.985 L20.015,39.97 L0,19.985 L20.015,0 z M38.393,19.985 L20.015,1.607 L1.638,19.985 L20.015,38.362 z M11.251,14.526 Q11.16,14.678 11.069,14.769 Q10.978,14.86 10.887,14.951 Q10.553,15.436 10.402,15.876 Q10.25,16.315 10.25,16.74 Q10.25,17.589 10.538,17.983 Q10.826,18.378 11.16,18.62 Q11.494,18.863 11.782,19.09 Q12.07,19.318 12.07,19.803 Q12.07,20.227 11.736,20.576 Q11.403,20.925 10.948,20.925 Q10.705,21.289 10.508,21.789 Q10.311,22.29 10.311,22.896 Q10.311,23.503 10.614,24.094 Q10.917,24.685 11.387,25.155 Q11.857,25.625 12.434,25.914 Q13.01,26.202 13.556,26.202 Q14.496,26.202 14.981,26.02 Q15.466,25.838 15.739,25.61 Q16.012,25.383 16.149,25.201 Q16.285,25.019 16.528,25.019 Q16.77,25.019 16.998,25.262 Q17.225,25.504 17.225,25.747 Q17.225,25.898 17.18,25.989 Q17.134,26.08 17.074,26.141 Q17.013,26.232 16.952,26.262 L16.528,27.202 L16.285,26.748 L15.345,27.87 L15.224,27.384 L14.041,28.173 L14.041,27.627 L12.676,27.991 L12.798,27.506 Q12.07,27.384 11.387,26.914 Q10.705,26.444 10.159,25.792 Q9.613,25.14 9.28,24.367 Q8.946,23.594 8.946,22.896 Q8.946,22.047 9.249,21.304 Q9.553,20.561 9.886,20.045 Q9.826,19.924 9.826,19.742 L9.886,19.5 Q9.553,19.014 9.249,18.256 Q8.946,17.498 8.946,16.619 Q8.946,15.679 9.386,14.845 Q9.826,14.011 10.508,13.389 Q11.19,12.767 12.009,12.403 Q12.828,12.039 13.556,12.039 L15.102,10.432 L16.71,11.039 L19.318,13.404 L19.955,14.951 L18.347,16.679 L15.345,13.889 Q15.011,13.707 14.572,13.556 Q14.132,13.404 13.616,13.404 Q13.131,13.404 12.631,13.556 Q12.13,13.707 11.615,14.132 z M31.751,22.168 Q31.751,22.532 31.721,22.851 Q31.691,23.169 31.63,23.472 Q31.418,24.291 30.993,24.882 Q30.569,25.474 30.053,25.853 Q29.538,26.232 28.976,26.444 Q28.415,26.657 27.961,26.748 Q27.688,27.324 27.02,27.324 Q26.353,27.324 26.02,26.808 Q25.474,26.687 24.792,26.414 Q24.109,26.141 23.503,25.595 Q22.896,25.049 22.472,24.185 Q22.047,23.321 22.047,21.986 Q22.047,20.925 22.381,20.212 Q22.714,19.5 23.23,18.984 L23.108,16.679 L25.11,15.77 L28.203,15.77 L29.689,16.376 L29.81,18.317 Q30.478,18.741 30.963,19.363 Q31.448,19.985 31.63,20.925 z M27.779,25.383 Q28.143,25.292 28.597,25.095 Q29.052,24.898 29.447,24.519 Q29.841,24.139 30.114,23.563 Q30.387,22.987 30.387,22.168 Q30.387,21.259 30.083,20.652 Q29.78,20.045 29.356,19.666 Q28.931,19.287 28.446,19.105 Q27.961,18.923 27.597,18.863 L25.777,18.923 Q25.444,19.045 25.034,19.257 Q24.625,19.469 24.261,19.833 Q23.897,20.197 23.654,20.758 Q23.412,21.319 23.412,22.108 Q23.412,23.048 23.7,23.669 Q23.988,24.291 24.412,24.67 Q24.837,25.049 25.322,25.231 Q25.807,25.413 26.232,25.444 Q26.535,25.14 27.02,25.14 Q27.202,25.14 27.415,25.186 Q27.627,25.231 27.779,25.383 z M27.657,16.497 L27.779,17.255 Q27.657,17.377 27.657,17.437 Q27.657,17.619 27.779,17.771 Q27.9,17.923 28.082,17.923 Q28.446,17.832 28.446,17.498 Q28.446,17.377 28.324,17.255 L28.385,16.437 z M16.164,11.463 L15.709,12.1 Q15.648,12.1 15.588,12.1 Q15.527,12.1 15.466,12.161 Q15.406,12.221 15.375,12.267 Q15.345,12.312 15.345,12.464 Q15.345,12.616 15.375,12.661 Q15.406,12.707 15.466,12.767 Q15.618,12.919 15.8,12.919 Q15.891,12.919 15.936,12.873 Q15.982,12.828 16.042,12.767 Q16.103,12.646 16.103,12.464 L16.71,11.979 z M26.96,15.011 Q26.869,15.163 26.748,15.208 Q26.626,15.254 26.475,15.315 Q26.323,15.315 26.217,15.299 Q26.111,15.284 25.959,15.193 Q25.807,15.133 25.686,14.981 Q25.565,14.829 25.474,14.647 Q25.383,14.466 25.307,14.268 Q25.231,14.071 25.231,13.829 Q25.171,13.677 25.171,13.556 Q25.171,13.434 25.171,13.343 Q25.171,12.737 25.474,12.343 L24.594,11.099 Q24.443,11.16 24.321,11.19 Q24.2,11.221 24.049,11.221 Q23.897,11.221 23.73,11.19 Q23.563,11.16 23.351,11.099 Q22.896,10.948 22.578,10.705 Q22.259,10.462 22.108,10.159 L20.864,10.159 Q20.682,10.675 20.258,11.099 Q19.985,11.433 19.636,11.615 Q19.287,11.797 18.954,11.797 Q18.56,11.797 18.408,11.524 Q18.135,11.281 18.135,10.917 Q18.135,10.584 18.317,10.265 Q18.499,9.947 18.832,9.613 Q19.166,9.28 19.515,9.128 Q19.864,8.976 20.197,8.976 Q20.531,8.976 20.743,9.189 Q20.955,9.401 20.955,9.674 L22.047,9.674 Q22.138,9.34 22.472,9.158 Q22.805,8.976 23.23,8.976 Q23.381,8.976 23.563,9.022 Q23.745,9.067 23.927,9.128 Q24.564,9.31 24.928,9.644 Q25.292,9.977 25.292,10.371 L25.292,10.553 Q25.231,10.644 25.186,10.735 Q25.14,10.826 25.049,10.917 L25.838,12.039 L26.02,11.979 L26.293,12.039 Q26.444,12.1 26.535,12.176 Q26.626,12.252 26.717,12.343 Q27.111,12.737 27.202,13.525 Q27.263,13.677 27.263,13.829 Q27.263,13.98 27.263,14.132 Q27.202,14.344 27.202,14.466 Q27.202,14.556 27.142,14.708 z M20.015,10.857 Q20.197,10.675 20.303,10.493 Q20.409,10.311 20.5,10.159 L20.136,10.159 L19.955,10.099 Q19.894,10.038 19.894,9.917 Q19.894,9.795 19.955,9.735 L20.136,9.674 L20.561,9.674 Q20.561,9.553 20.44,9.431 Q20.379,9.371 20.197,9.371 Q19.955,9.371 19.651,9.507 Q19.348,9.644 19.075,9.917 Q18.802,10.159 18.666,10.417 Q18.529,10.675 18.529,10.917 Q18.529,11.16 18.65,11.281 Q18.711,11.342 18.893,11.342 Q19.075,11.342 19.303,11.312 Q19.53,11.281 19.773,11.099 z M26.899,14.405 Q26.899,14.344 26.929,14.284 Q26.929,14.223 26.945,14.162 Q26.96,14.102 26.96,14.011 L26.899,13.586 Q26.808,13.01 26.581,12.707 Q26.353,12.403 26.111,12.403 L26.353,12.767 L26.414,12.98 Q26.414,13.101 26.293,13.101 Q26.232,13.161 26.111,13.161 Q26.02,13.161 25.898,13.04 L25.656,12.707 Q25.595,12.858 25.565,13.04 Q25.534,13.222 25.534,13.465 L25.534,13.768 Q25.625,14.132 25.716,14.405 Q25.898,14.799 26.171,14.89 Q26.232,14.951 26.353,14.951 L26.414,14.951 Q26.475,14.951 26.535,14.89 Q26.596,14.89 26.717,14.769 z M24.928,10.22 Q24.837,10.068 24.716,9.917 Q24.564,9.795 24.352,9.659 Q24.139,9.522 23.806,9.431 Q23.654,9.371 23.503,9.371 Q23.381,9.371 23.29,9.371 Q23.078,9.371 22.926,9.416 Q22.775,9.462 22.684,9.522 Q22.563,9.613 22.502,9.674 L23.108,9.674 Q23.169,9.674 23.23,9.704 Q23.351,9.765 23.351,9.917 Q23.351,10.068 23.23,10.129 Q23.169,10.159 23.108,10.159 L22.563,10.159 Q22.593,10.25 22.714,10.371 Q22.896,10.553 23.351,10.735 Q23.503,10.796 23.669,10.826 Q23.836,10.857 23.988,10.857 Q24.2,10.857 24.291,10.826 Q24.352,10.826 24.412,10.796 L24.23,10.493 L24.291,10.311 L24.412,10.22 L24.655,10.311 L24.867,10.553 L24.928,10.432 z" fill="#C74343"/>
  </g>
</svg>
