<?xml version="1.0" encoding="UTF-8"?>
<!DOCTYPE svg PUBLIC "-//W3C//DTD SVG 1.1//EN" "http://www.w3.org/Graphics/SVG/1.1/DTD/svg11.dtd">
<svg version="1.1" xmlns="http://www.w3.org/2000/svg" xmlns:xlink="http://www.w3.org/1999/xlink" x="0" y="0" width="40" height="40" viewBox="0, 0, 40, 40">
  <g id="zmap-ers-inc-airacc" transform="translate(0, 0)">
    <path d="M40,19.985 L20.015,39.97 L0,19.985 L20.015,0 z M38.393,19.985 L20.015,1.607 L1.638,19.985 L20.015,38.362 z M17.286,19.5 L11.372,20.591 L9.34,24.321 L8.461,24.503 L8.886,21.228 L8.764,20.531 L7.521,20.349 L8.582,19.621 L8.4,18.984 L6.581,16.194 L7.46,16.012 L10.887,18.499 L16.77,17.013 z M20.561,18.317 L21.137,18.681 L22.047,17.437 L24.352,8.249 L25.716,9.249 L25.534,14.071 L26.778,15.011 L26.02,15.951 L25.413,15.588 L25.413,17.559 L26.717,18.499 L25.959,19.5 L25.292,19.045 L25.292,21.653 L27.718,23.472 L30.083,25.838 L30.205,26.869 L29.143,27.051 L26.171,25.565 L23.745,23.776 L21.259,24.716 L21.865,25.14 L21.198,26.141 L19.894,25.201 L18.014,25.898 L18.59,26.323 L17.832,27.324 L16.588,26.384 L12.07,28.052 L10.705,27.142 L18.711,22.047 L19.651,20.804 L19.014,20.349 z" fill="#C74343"/>
  </g>
</svg>
