<?xml version="1.0" encoding="UTF-8"?>
<!DOCTYPE svg PUBLIC "-//W3C//DTD SVG 1.1//EN" "http://www.w3.org/Graphics/SVG/1.1/DTD/svg11.dtd">
<svg version="1.1" xmlns="http://www.w3.org/2000/svg" xmlns:xlink="http://www.w3.org/1999/xlink" x="0" y="0" width="40" height="40" viewBox="0, 0, 40, 40">
  <g id="zmap-ers-evt-subsidence" transform="translate(0, 0)">
    <path d="M40,19.985 L20.015,39.97 L0,19.985 L20.015,-0 z M4.61,22.957 L20.015,38.362 L35.421,22.957 L20.076,22.957 L20.076,23.715 Q20.045,23.806 19.924,23.927 L19.833,24.018 L19.5,24.321 Q19.439,24.412 19.378,24.534 Q19.257,24.776 19.257,24.898 L19.257,24.958 Q19.318,25.14 19.318,25.292 Q19.318,25.413 19.378,25.565 Q19.439,25.716 19.636,25.883 Q19.833,26.05 19.833,26.323 L19.833,26.505 Q19.833,26.869 19.682,27.066 Q19.53,27.263 19.378,27.445 Q19.287,27.597 19.212,27.733 Q19.136,27.87 19.136,28.052 Q19.136,28.143 19.166,28.279 Q19.196,28.415 19.257,28.567 Q19.409,28.84 19.484,29.022 Q19.56,29.204 19.56,29.356 Q19.56,29.477 19.378,29.659 Q19.136,29.901 18.984,29.962 Q18.832,30.023 18.832,30.356 L18.832,30.478 Q18.893,30.842 19.105,31.069 Q19.318,31.296 19.318,31.539 L19.318,31.6 Q19.257,31.873 19.121,32.039 Q18.984,32.206 18.832,32.418 Q18.772,32.509 18.757,32.691 Q18.741,32.873 18.711,33.071 Q18.681,33.268 18.635,33.434 Q18.59,33.601 18.438,33.662 Q18.287,33.723 18.089,33.783 Q17.892,33.844 17.71,33.844 Q17.377,33.844 17.225,33.601 Q17.043,33.389 16.983,33.086 Q16.952,32.964 16.952,32.843 L16.831,32.54 Q16.801,32.509 16.74,32.479 Q16.679,32.449 16.634,32.418 Q16.588,32.388 16.528,32.358 Q16.376,32.297 16.27,32.146 Q16.164,31.994 16.103,31.842 L16.103,31.357 Q16.133,31.296 16.194,31.236 Q16.224,31.175 16.255,31.114 Q16.285,31.054 16.285,30.963 L16.285,30.902 Q16.224,30.781 16.133,30.66 Q16.073,30.599 16.042,30.538 L15.588,30.417 Q15.466,30.387 15.375,30.296 Q15.163,30.144 15.163,29.932 Q15.163,29.689 15.193,29.583 Q15.224,29.477 15.284,29.234 L15.284,29.052 Q15.284,28.992 15.269,28.946 Q15.254,28.901 15.254,28.87 Q15.224,28.84 15.224,28.81 L14.981,28.567 L14.678,28.355 Q14.556,28.294 14.435,28.203 Q14.344,28.143 14.253,28.021 Q14.162,27.9 14.102,27.748 Q14.041,27.657 14.041,27.597 Q14.041,27.506 14.041,27.445 Q14.041,27.293 14.071,27.233 Q14.102,27.172 14.102,27.051 L14.162,26.748 L14.162,26.626 Q14.102,26.505 14.011,26.384 Q13.95,26.323 13.92,26.262 L13.556,26.02 Q13.465,25.959 13.374,25.868 Q13.222,25.716 13.222,25.383 L13.222,24.958 Q13.222,24.867 13.207,24.761 Q13.192,24.655 13.101,24.503 L12.737,23.958 L12.616,23.533 L12.252,22.957 z" fill="#C74343"/>
  </g>
</svg>
