<?xml version="1.0" encoding="UTF-8"?>
<!DOCTYPE svg PUBLIC "-//W3C//DTD SVG 1.1//EN" "http://www.w3.org/Graphics/SVG/1.1/DTD/svg11.dtd">
<svg version="1.1" xmlns="http://www.w3.org/2000/svg" xmlns:xlink="http://www.w3.org/1999/xlink" x="0" y="0" width="40" height="40" viewBox="0, 0, 40, 40">
  <g id="zmap-ers-inc-vehinc" transform="translate(0, 0)">
    <path d="M40,19.985 L20.015,39.97 L0,19.985 L20.015,-0 z M38.393,19.985 L20.015,1.607 L1.638,19.985 L20.015,38.362 z M32.995,20.227 L32.995,21.289 L32.631,21.289 L32.631,22.108 L29.629,22.108 Q29.477,22.987 28.81,23.563 Q28.143,24.139 27.263,24.139 Q26.384,24.139 25.732,23.563 Q25.08,22.987 24.928,22.108 L16.346,22.108 Q16.194,22.987 15.527,23.563 Q14.86,24.139 13.98,24.139 Q13.04,24.139 12.373,23.563 Q11.706,22.987 11.615,22.108 L7.582,22.108 L7.582,21.107 L7.096,21.107 L7.096,19.621 L7.582,19.621 L7.763,17.377 L12.737,16.679 L14.556,13.707 L23.23,13.707 L25.534,16.619 L31.63,18.074 L32.54,20.227 z M22.805,14.466 L19.136,14.466 L19.136,17.134 L24.17,17.134 L24.17,16.194 z M13.677,17.134 L18.135,17.134 L18.135,14.466 L14.981,14.466 z M27.263,23.654 Q28.052,23.654 28.597,23.108 Q29.143,22.563 29.143,21.774 Q29.143,20.986 28.597,20.455 Q28.052,19.924 27.263,19.924 Q26.475,19.924 25.944,20.455 Q25.413,20.986 25.413,21.774 Q25.413,22.563 25.944,23.108 Q26.475,23.654 27.263,23.654 z M13.98,23.654 Q14.738,23.654 15.299,23.108 Q15.861,22.563 15.861,21.774 Q15.861,20.986 15.299,20.455 Q14.738,19.924 13.98,19.924 Q13.192,19.924 12.631,20.455 Q12.07,20.986 12.07,21.774 Q12.07,22.563 12.631,23.108 Q13.192,23.654 13.98,23.654 z" fill="#C74343"/>
  </g>
</svg>
