<?xml version="1.0" encoding="UTF-8"?>
<!DOCTYPE svg PUBLIC "-//W3C//DTD SVG 1.1//EN" "http://www.w3.org/Graphics/SVG/1.1/DTD/svg11.dtd">
<svg version="1.1" xmlns="http://www.w3.org/2000/svg" xmlns:xlink="http://www.w3.org/1999/xlink" x="0" y="0" width="40" height="40" viewBox="0, 0, 40, 40">
  <g id="zmap-ers-ops-lawenfop" transform="translate(0, 0)">
    <path d="M20.015,35.135 Q23.153,35.135 25.891,33.95 Q28.629,32.766 30.69,30.705 Q32.751,28.644 33.935,25.891 Q35.119,23.138 35.119,20 Q35.119,16.862 33.935,14.109 Q32.751,11.356 30.69,9.31 Q28.629,7.265 25.891,6.065 Q23.153,4.865 20.015,4.865 Q16.878,4.865 14.125,6.065 Q11.371,7.265 9.31,9.31 Q7.249,11.356 6.065,14.109 Q4.881,16.862 4.881,20 Q4.881,23.138 6.065,25.891 Q7.249,28.644 9.31,30.705 Q11.371,32.766 14.125,33.95 Q16.878,35.135 20.015,35.135 z M36.196,20 Q36.196,23.353 34.919,26.306 Q33.643,29.259 31.443,31.443 Q29.244,33.627 26.306,34.904 Q23.368,36.181 20.015,36.181 Q16.662,36.181 13.709,34.904 Q10.756,33.627 8.557,31.443 Q6.357,29.259 5.081,26.306 Q3.804,23.353 3.804,20 Q3.804,16.647 5.081,13.694 Q6.357,10.741 8.557,8.557 Q10.756,6.373 13.709,5.096 Q16.662,3.819 20.015,3.819 Q23.368,3.819 26.306,5.096 Q29.244,6.373 31.443,8.557 Q33.643,10.741 34.919,13.694 Q36.196,16.647 36.196,20 z M31.674,25.968 Q31.674,26.583 31.259,26.983 Q30.844,27.383 30.228,27.383 Q29.613,27.383 29.198,26.983 Q28.782,26.583 28.782,25.968 L23.399,25.968 L20.723,30.613 Q21.43,31.013 21.43,31.874 Q21.43,32.458 21.015,32.874 Q20.6,33.289 20.015,33.289 Q19.4,33.289 18.985,32.874 Q18.57,32.458 18.57,31.874 Q18.57,31.013 19.277,30.613 L16.601,25.968 L11.218,25.968 Q11.218,26.583 10.802,26.983 Q10.387,27.383 9.772,27.383 Q9.187,27.383 8.772,26.983 Q8.357,26.583 8.357,25.968 Q8.357,25.353 8.772,24.937 Q9.187,24.522 9.772,24.522 Q10.202,24.522 10.51,24.737 L13.186,20.062 L10.51,15.386 Q10.202,15.601 9.772,15.601 Q9.187,15.601 8.772,15.186 Q8.357,14.771 8.357,14.155 Q8.357,13.54 8.772,13.14 Q9.187,12.74 9.772,12.74 Q10.387,12.74 10.802,13.14 Q11.218,13.54 11.218,14.155 L16.601,14.155 L19.277,9.51 Q18.57,9.11 18.57,8.249 Q18.57,7.665 18.985,7.249 Q19.4,6.834 20.015,6.834 Q20.6,6.834 21.015,7.249 Q21.43,7.665 21.43,8.249 Q21.43,9.11 20.723,9.51 L23.399,14.155 L28.782,14.155 Q28.782,13.54 29.198,13.14 Q29.613,12.74 30.228,12.74 Q30.844,12.74 31.259,13.14 Q31.674,13.54 31.674,14.155 Q31.674,14.771 31.259,15.186 Q30.844,15.601 30.228,15.601 Q29.767,15.601 29.521,15.386 L26.814,20.062 L29.521,24.737 Q29.767,24.522 30.228,24.522 Q30.844,24.522 31.259,24.937 Q31.674,25.353 31.674,25.968 z" fill="#C74343"/>
  </g>
</svg>
