<?xml version="1.0" encoding="UTF-8"?>
<!DOCTYPE svg PUBLIC "-//W3C//DTD SVG 1.1//EN" "http://www.w3.org/Graphics/SVG/1.1/DTD/svg11.dtd">
<svg version="1.1" xmlns="http://www.w3.org/2000/svg" xmlns:xlink="http://www.w3.org/1999/xlink" x="0" y="0" width="40" height="40" viewBox="0, 0, 40, 40">
  <g id="zmap-ers-ops-medops" transform="translate(0, 0)">
    <path d="M20.015,35.485 Q23.153,35.485 25.891,34.301 Q28.629,33.116 30.69,31.055 Q32.751,28.994 33.935,26.241 Q35.119,23.488 35.119,20.35 Q35.119,17.212 33.935,14.459 Q32.751,11.706 30.69,9.66 Q28.629,7.615 25.891,6.415 Q23.153,5.215 20.015,5.215 Q16.878,5.215 14.125,6.415 Q11.371,7.615 9.31,9.66 Q7.249,11.706 6.065,14.459 Q4.881,17.212 4.881,20.35 Q4.881,23.488 6.065,26.241 Q7.249,28.994 9.31,31.055 Q11.371,33.116 14.125,34.301 Q16.878,35.485 20.015,35.485 z M36.196,20.35 Q36.196,23.703 34.919,26.656 Q33.643,29.609 31.443,31.793 Q29.244,33.978 26.306,35.254 Q23.368,36.531 20.015,36.531 Q16.662,36.531 13.709,35.254 Q10.756,33.978 8.557,31.793 Q6.357,29.609 5.081,26.656 Q3.804,23.703 3.804,20.35 Q3.804,16.997 5.081,14.044 Q6.357,11.091 8.557,8.907 Q10.756,6.723 13.709,5.446 Q16.662,4.169 20.015,4.169 Q23.368,4.169 26.306,5.446 Q29.244,6.723 31.443,8.907 Q33.643,11.091 34.919,14.044 Q36.196,16.997 36.196,20.35 z M25.922,20.381 L30.874,23.242 L27.921,28.379 L22.969,25.518 L22.969,31.24 L17.062,31.24 L17.062,25.518 L12.079,28.379 L9.126,23.242 L14.109,20.381 L9.126,17.52 L12.079,12.383 L17.062,15.274 L17.062,9.522 L22.969,9.522 L22.969,15.274 L27.921,12.383 L30.874,17.52 z" fill="#C74343"/>
  </g>
</svg>
