<?xml version="1.0" encoding="UTF-8"?>
<!DOCTYPE svg PUBLIC "-//W3C//DTD SVG 1.1//EN" "http://www.w3.org/Graphics/SVG/1.1/DTD/svg11.dtd">
<svg version="1.1" xmlns="http://www.w3.org/2000/svg" xmlns:xlink="http://www.w3.org/1999/xlink" x="0" y="0" width="40" height="40" viewBox="0, 0, 40, 40">
  <g id="zmap-ers-evt-quake" transform="translate(0, 0)">
    <path d="M40,19.985 L20.015,39.97 L0,19.985 L20.015,0 z M19.955,17.68 Q19.014,17.68 18.362,18.362 Q17.71,19.045 17.71,19.985 Q17.71,20.925 18.362,21.577 Q19.014,22.229 19.955,22.229 Q20.895,22.229 21.531,21.577 Q22.168,20.925 22.168,19.985 Q22.168,19.045 21.531,18.362 Q20.895,17.68 19.955,17.68 z M14.526,19.924 Q14.526,22.138 16.164,23.776 Q16.892,24.534 17.892,24.928 Q18.893,25.322 19.955,25.322 Q21.016,25.322 22.002,24.928 Q22.987,24.534 23.745,23.776 Q24.534,22.987 24.943,21.986 Q25.353,20.986 25.353,19.924 Q25.353,18.802 24.928,17.832 Q24.503,16.861 23.776,16.133 Q23.048,15.406 22.062,14.996 Q21.077,14.587 19.955,14.587 Q18.832,14.587 17.847,14.996 Q16.861,15.406 16.118,16.133 Q15.375,16.861 14.951,17.832 Q14.526,18.802 14.526,19.924 z M17.013,22.896 Q15.77,21.653 15.77,19.924 Q15.77,19.075 16.103,18.332 Q16.437,17.589 16.998,17.028 Q17.559,16.467 18.317,16.149 Q19.075,15.83 19.955,15.83 Q20.804,15.83 21.562,16.149 Q22.32,16.467 22.881,17.028 Q23.442,17.589 23.776,18.332 Q24.109,19.075 24.109,19.924 Q24.109,20.773 23.791,21.531 Q23.472,22.29 22.866,22.896 Q21.683,24.079 19.955,24.079 Q18.196,24.079 17.013,22.896 z M14.162,14.132 Q13.01,15.315 12.373,16.801 Q11.736,18.287 11.736,19.924 Q11.736,21.562 12.358,23.078 Q12.98,24.594 14.132,25.777 Q15.284,26.929 16.77,27.521 Q18.256,28.112 19.894,28.112 Q21.562,28.112 23.063,27.521 Q24.564,26.929 25.716,25.747 Q26.869,24.594 27.506,23.078 Q28.143,21.562 28.143,19.924 Q28.143,18.226 27.491,16.74 Q26.839,15.254 25.716,14.162 Q24.594,13.071 23.093,12.434 Q21.592,11.797 19.894,11.797 Q18.256,11.797 16.785,12.388 Q15.315,12.98 14.162,14.132 z M14.617,25.322 Q13.525,24.261 12.949,22.866 Q12.373,21.471 12.373,19.924 Q12.373,18.408 12.949,17.028 Q13.525,15.648 14.617,14.587 Q15.679,13.525 17.028,12.964 Q18.378,12.403 19.894,12.403 Q21.471,12.403 22.866,12.995 Q24.261,13.586 25.292,14.602 Q26.323,15.618 26.914,16.998 Q27.506,18.378 27.506,19.924 Q27.506,21.471 26.929,22.866 Q26.353,24.261 25.292,25.322 Q24.23,26.384 22.835,26.945 Q21.44,27.506 19.894,27.506 Q18.378,27.506 17.028,26.945 Q15.679,26.384 14.617,25.322 z M12.252,12.282 Q10.705,13.798 9.886,15.754 Q9.067,17.71 9.067,19.864 Q9.067,22.108 9.871,24.094 Q10.675,26.08 12.221,27.657 Q13.768,29.234 15.724,30.038 Q17.68,30.842 19.894,30.842 Q22.077,30.842 24.094,30.038 Q26.111,29.234 27.657,27.627 Q29.204,26.08 30.008,24.094 Q30.811,22.108 30.811,19.864 Q30.811,17.619 29.947,15.648 Q29.083,13.677 27.597,12.221 Q26.111,10.766 24.124,9.917 Q22.138,9.067 19.894,9.067 Q17.71,9.067 15.754,9.871 Q13.798,10.675 12.252,12.282 z M12.434,27.445 Q10.917,25.929 10.144,23.973 Q9.371,22.017 9.371,19.864 Q9.371,17.771 10.144,15.876 Q10.917,13.98 12.434,12.464 Q13.92,10.978 15.845,10.174 Q17.771,9.371 19.894,9.371 Q22.077,9.371 24.003,10.19 Q25.929,11.008 27.384,12.434 Q28.84,13.859 29.674,15.77 Q30.508,17.68 30.508,19.864 Q30.508,22.017 29.704,23.973 Q28.901,25.929 27.384,27.445 Q25.898,28.931 23.973,29.735 Q22.047,30.538 19.894,30.538 Q17.771,30.538 15.845,29.735 Q13.92,28.931 12.434,27.445 z" fill="#C74343"/>
  </g>
</svg>
