<?xml version="1.0" encoding="UTF-8"?>
<!DOCTYPE svg PUBLIC "-//W3C//DTD SVG 1.1//EN" "http://www.w3.org/Graphics/SVG/1.1/DTD/svg11.dtd">
<svg version="1.1" xmlns="http://www.w3.org/2000/svg" xmlns:xlink="http://www.w3.org/1999/xlink" x="0" y="0" width="40" height="40" viewBox="0, 0, 40, 40">
  <g id="zmap-ers-inc-hazmat" transform="translate(0, 0)">
    <path d="M40,19.985 L20.015,39.97 L0,19.985 L20.015,-0 z M7.278,19.985 L7.278,14.344 L4.488,17.134 L4.488,19.985 z M24.231,19.985 L24.231,5.823 L21.441,3.033 L21.441,19.985 z M10.129,19.985 L12.919,19.985 L12.919,8.673 L10.129,11.463 z M35.542,19.985 L35.542,17.134 L32.752,14.344 L32.752,19.985 z M18.59,19.985 L18.59,3.033 L15.8,5.823 L15.8,19.985 z M29.871,19.985 L29.871,11.463 L27.081,8.673 L27.081,19.985 z M20.015,38.363 L38.09,20.288 L1.88,20.288 z" fill="#C74343"/>
  </g>
</svg>
