<?xml version="1.0" encoding="UTF-8"?>
<!DOCTYPE svg PUBLIC "-//W3C//DTD SVG 1.1//EN" "http://www.w3.org/Graphics/SVG/1.1/DTD/svg11.dtd">
<svg version="1.1" xmlns="http://www.w3.org/2000/svg" xmlns:xlink="http://www.w3.org/1999/xlink" x="0" y="0" width="40" height="40" viewBox="0, 0, 40, 40">
  <g id="zmap-ers-inc-looting" transform="translate(0, 0)">
    <path d="M40,19.985 L20.015,39.97 L0,19.985 L20.015,-0 z M38.393,19.985 L20.015,1.607 L1.638,19.985 L20.015,38.362 z M29.265,27.202 L29.265,28.992 L10.766,28.992 L10.766,27.202 L11.736,27.202 L11.736,9.977 L28.264,9.977 L28.264,27.202 z M11.008,27.445 L11.008,28.749 L29.022,28.749 L29.022,27.445 z M12.434,26.566 L13.98,26.566 L14.284,25.625 L12.858,26.262 L13.677,24.958 L12.434,25.08 z M17.589,26.566 L19.833,26.566 L19.833,25.898 L18.469,25.444 L19.136,26.323 L18.256,25.838 L18.893,26.505 L17.407,25.747 z M18.772,23.199 L19.833,23.472 L19.833,22.654 z M19.014,24.321 L19.833,25.14 L19.833,24.2 z M12.434,22.775 L13.04,22.775 L12.434,22.35 z M15.284,26.566 L15.163,26.08 L14.799,26.566 z M12.434,24.261 L12.919,24.018 L12.434,23.836 z M16.528,26.566 L16.346,26.323 L16.346,26.566 z M12.434,24.594 L12.434,24.958 L13.92,24.776 L13.192,26.02 L14.496,25.444 L14.162,26.566 L14.678,26.566 L15.224,25.838 L15.406,26.566 L16.042,26.566 L16.042,25.838 L16.71,26.566 L17.225,26.566 L16.892,25.322 L18.469,26.202 L17.468,25.08 L19.773,25.686 L18.256,24.321 L20.197,24.079 L17.953,23.472 L20.561,22.168 L18.196,22.411 L19.196,20.864 L17.165,21.986 L17.892,19.682 L16.406,21.592 L16.164,18.984 L15.588,20.864 L14.92,19.803 L14.738,21.774 L13.434,20.288 L13.859,22.047 L12.434,22.047 L12.434,22.168 L13.738,23.139 L12.434,23.139 L12.434,23.715 L13.434,24.018 z M13.192,19.864 L13.556,20.288 L13.374,19.56 L14.678,21.046 L14.86,19.439 L14.981,19.682 L15.042,19.227 L15.648,20.167 L15.982,19.105 L12.434,19.105 L12.434,21.531 L13.616,21.531 z M16.285,18.681 L16.406,18.135 L16.528,18.802 L19.833,18.802 L19.833,10.675 L12.434,10.675 L12.434,18.802 L16.103,18.802 L16.224,18.438 z M27.597,18.802 L27.597,10.675 L20.197,10.675 L20.197,18.802 z M20.197,19.105 L20.197,21.774 L21.38,21.653 L20.682,22.047 L21.198,21.986 L20.197,22.472 L20.197,23.594 L21.016,23.776 L20.197,23.958 L20.804,24.079 L20.197,24.2 L20.197,25.444 L20.44,25.625 L20.197,25.565 L20.197,26.566 L27.597,26.566 L27.597,19.105 z M19.773,20.167 L18.711,21.895 L19.833,21.895 L19.833,19.105 L18.347,19.105 L17.589,21.471 z M16.71,20.986 L18.135,19.105 L16.528,19.105 z" fill="#C74343"/>
  </g>
</svg>
