<?xml version="1.0" encoding="UTF-8"?>
<!DOCTYPE svg PUBLIC "-//W3C//DTD SVG 1.1//EN" "http://www.w3.org/Graphics/SVG/1.1/DTD/svg11.dtd">
<svg version="1.1" xmlns="http://www.w3.org/2000/svg" xmlns:xlink="http://www.w3.org/1999/xlink" x="0" y="0" width="40" height="40" viewBox="0, 0, 40, 40">
  <g id="zmap-ers-inc-poisoning" transform="translate(0, 0)">
    <path d="M40,20 L20.015,39.985 L-0,20 L20.015,0.015 z M38.393,20 L20.015,1.622 L1.638,20 L20.015,38.378 z M29.689,20.425 L21.804,23.487 L27.202,25.519 L27.839,24.033 L29.81,23.912 L30.326,25.641 L28.506,26.096 L28.901,27.824 L27.779,28.704 L26.293,27.763 L27.202,26.823 L20.076,24.155 L12.98,26.823 L13.677,27.763 L12.13,28.704 L11.13,27.824 L11.494,26.096 L9.704,25.641 L10.371,23.912 L12.13,24.033 L12.98,25.519 L18.347,23.487 L10.311,20.425 L9.462,21.547 L8.036,20.303 L8.886,19.121 L8.218,17.392 L9.522,16.573 L10.432,17.513 L10.311,19.121 L20.076,22.79 L29.689,19.121 L29.568,17.513 L30.508,16.573 L31.812,17.513 L31.054,19.121 L31.933,20.182 L30.569,21.425 z M20.136,19.818 L19.651,19.818 L19.651,20.819 L18.196,20.607 L18.196,19.818 L17.104,19.818 L17.013,20.485 L15.709,20.182 L15.982,18.271 L13.374,14.541 L14.162,13.359 L13.859,11.873 L14.799,9.083 L16.952,8.082 L20.136,6.839 L23.29,8.082 L25.474,9.083 L26.414,11.873 L26.111,13.359 L26.899,14.541 L24.291,18.271 L24.534,20.182 L23.23,20.485 L23.169,19.818 L22.047,19.818 L22.047,20.607 L20.622,20.819 L20.622,19.818 z M17.346,12.358 L16.285,12.358 L15.406,13.541 L16.649,14.845 L18.469,14.845 L19.651,13.662 L19.378,12.843 L18.347,12.843 z M19.378,16.209 L18.711,17.089 L19.56,17.756 L19.894,16.694 L19.894,16.209 z M21.926,12.843 L20.864,12.843 L20.622,13.662 L21.804,14.845 L23.563,14.845 L24.867,13.541 L23.927,12.358 L22.926,12.358 z M20.318,16.209 L20.318,16.694 L20.682,17.756 L21.562,17.089 L20.864,16.209 z" fill="#C74343"/>
  </g>
</svg>
