<?xml version="1.0" encoding="UTF-8"?>
<!DOCTYPE svg PUBLIC "-//W3C//DTD SVG 1.1//EN" "http://www.w3.org/Graphics/SVG/1.1/DTD/svg11.dtd">
<svg version="1.1" xmlns="http://www.w3.org/2000/svg" xmlns:xlink="http://www.w3.org/1999/xlink" x="0" y="0" width="40" height="40" viewBox="0, 0, 40, 40">
  <g id="zmap-ers-ops-firesup" transform="translate(0, 0)">
    <path d="M20.015,35.135 Q23.153,35.135 25.891,33.95 Q28.629,32.766 30.69,30.705 Q32.751,28.644 33.935,25.891 Q35.119,23.138 35.119,20 Q35.119,16.862 33.935,14.109 Q32.751,11.356 30.69,9.31 Q28.629,7.265 25.891,6.065 Q23.153,4.865 20.015,4.865 Q16.878,4.865 14.125,6.065 Q11.371,7.265 9.31,9.31 Q7.249,11.356 6.065,14.109 Q4.881,16.862 4.881,20 Q4.881,23.138 6.065,25.891 Q7.249,28.644 9.31,30.705 Q11.371,32.766 14.125,33.95 Q16.878,35.135 20.015,35.135 z M36.196,20 Q36.196,23.353 34.919,26.306 Q33.643,29.259 31.443,31.443 Q29.244,33.627 26.306,34.904 Q23.368,36.181 20.015,36.181 Q16.662,36.181 13.709,34.904 Q10.756,33.627 8.557,31.443 Q6.357,29.259 5.081,26.306 Q3.804,23.353 3.804,20 Q3.804,16.647 5.081,13.694 Q6.357,10.741 8.557,8.557 Q10.756,6.373 13.709,5.096 Q16.662,3.819 20.015,3.819 Q23.368,3.819 26.306,5.096 Q29.244,6.373 31.443,8.557 Q33.643,10.741 34.919,13.694 Q36.196,16.647 36.196,20 z M8.88,15.417 Q8.818,15.509 8.787,15.632 Q8.757,15.724 8.726,15.847 Q8.695,15.97 8.695,16.032 Q8.634,16.186 8.634,16.647 Q8.634,17.108 8.603,17.754 Q8.603,18.093 8.71,18.708 Q8.818,19.323 8.972,19.938 Q9.126,20.677 9.341,21.477 L9.218,21.661 Q9.126,21.846 9.126,22.03 Q9.126,22.215 9.218,22.43 Q9.31,22.646 9.603,22.83 Q9.895,23.015 10.479,23.168 Q11.064,23.322 12.079,23.353 L12.448,23.353 Q13.432,23.353 14.432,23.215 Q15.432,23.076 16.232,22.922 Q17.155,22.738 18.016,22.492 Q18.539,22.246 19.154,21.907 Q19.677,21.63 20.4,21.277 Q21.123,20.923 21.984,20.554 Q23.768,19.754 25.46,19.154 Q27.152,18.554 28.752,18.554 Q30.321,18.554 31.52,18.862 Q32.72,19.169 33.52,19.662 Q34.289,20.154 34.289,20.954 Q34.289,21.907 33.12,23.199 Q32.566,23.845 31.597,24.307 Q30.628,24.768 29.505,25.076 Q28.383,25.383 27.183,25.552 Q25.983,25.722 24.937,25.752 L24.63,25.752 Q23.584,25.752 22.461,25.522 Q21.338,25.291 20.354,24.983 Q19.216,24.645 18.108,24.184 Q17.708,24.307 17.308,24.43 Q16.97,24.553 16.539,24.66 Q16.109,24.768 15.678,24.86 Q15.247,24.953 14.494,25.091 Q13.74,25.229 12.894,25.368 Q12.048,25.506 11.233,25.599 Q10.418,25.691 9.864,25.691 Q9.126,25.691 8.526,25.552 Q7.926,25.414 7.588,25.26 Q7.249,25.106 6.957,24.676 Q6.665,24.245 6.665,23.876 Q6.665,23.107 7.249,22.522 Q7.403,22.369 7.665,22.169 Q7.926,21.969 8.203,21.784 Q8.541,21.569 8.91,21.323 Q8.818,20.8 8.695,20.338 Q8.603,19.938 8.51,19.569 Q8.418,19.2 8.387,19.016 Q8.326,18.708 8.264,18.031 Q8.203,17.354 8.203,16.77 Q8.203,16.37 8.234,16.247 Q8.264,16.032 8.341,15.801 Q8.418,15.57 8.51,15.355 Q8.634,15.109 8.726,14.894 L8.787,15.14 z M16.016,9.479 Q16.57,9.603 17.124,9.726 Q17.585,9.818 18.062,9.926 Q18.539,10.033 18.877,10.125 Q19,10.187 19.308,10.279 Q19.615,10.372 20.015,10.541 Q20.415,10.71 20.877,10.987 Q21.338,11.264 21.769,11.664 Q22.292,12.156 22.753,12.756 Q23.215,13.355 23.584,13.909 Q24.014,14.555 24.414,15.201 L25.214,16.77 L25.952,18.677 L25.952,18.739 Q25.922,18.8 25.922,18.831 Q25.891,18.862 25.891,18.893 Q25.891,18.923 25.829,18.923 L25.768,18.923 Q25.706,18.923 25.645,18.862 L25.583,18.8 Q25.399,18.37 25.245,17.97 Q25.091,17.631 24.953,17.262 Q24.814,16.893 24.722,16.647 Q24.599,16.401 24.414,16.032 Q24.23,15.663 23.999,15.278 Q23.768,14.894 23.538,14.509 Q23.307,14.125 23.122,13.848 Q22.907,13.571 22.661,13.248 Q22.415,12.925 22.153,12.633 Q21.892,12.34 21.677,12.094 Q21.461,11.848 21.338,11.756 Q21.215,11.664 20.984,11.51 Q20.754,11.356 20.492,11.218 Q20.231,11.079 19.985,10.956 Q19.739,10.833 19.585,10.771 Q19.4,10.71 18.969,10.602 Q18.539,10.495 18.108,10.372 Q17.585,10.249 17.001,10.064 Q17.862,10.495 18.693,11.018 Q19.4,11.448 20.169,12.033 Q20.938,12.617 21.461,13.232 Q21.769,13.602 22.061,14.155 Q22.353,14.709 22.599,15.34 Q22.845,15.97 23.061,16.601 Q23.276,17.231 23.43,17.754 Q23.615,18.4 23.707,18.77 Q23.768,18.985 23.83,19.169 L23.83,19.323 Q23.768,19.477 23.615,19.508 Q23.584,19.539 23.522,19.508 Q23.43,19.508 23.368,19.385 L23.307,19.262 L22.938,17.847 Q22.815,17.293 22.63,16.739 Q22.476,16.247 22.23,15.647 Q21.984,15.047 21.677,14.463 Q21.246,13.725 20.861,13.325 Q20.477,12.925 19.8,12.433 Q19.308,12.094 18.8,11.756 Q18.293,11.417 17.862,11.141 Q17.339,10.833 16.847,10.556 Q17.493,11.171 18.077,11.817 Q18.57,12.371 19.077,13.032 Q19.585,13.694 19.831,14.34 Q19.985,14.74 20.092,15.34 Q20.2,15.939 20.277,16.509 Q20.354,17.078 20.385,17.554 Q20.415,18.031 20.415,18.154 Q20.446,18.493 20.461,18.754 Q20.477,19.016 20.477,19.323 Q20.477,19.569 20.461,19.769 Q20.446,19.969 20.446,20.123 L20.446,20.431 L20.385,20.584 L20.323,20.646 Q20.292,20.677 20.169,20.677 Q20.077,20.677 20.015,20.615 L19.954,20.554 L19.923,20.431 L19.923,18.031 Q19.923,17.847 19.877,17.401 Q19.831,16.955 19.739,16.401 Q19.646,15.847 19.523,15.278 Q19.4,14.709 19.216,14.278 Q19.031,13.878 18.693,13.386 Q18.354,12.894 17.954,12.433 Q17.554,11.971 17.17,11.571 Q16.785,11.171 16.539,10.987 Q16.385,10.864 16.201,10.695 Q16.016,10.525 15.801,10.372 Q15.555,10.218 15.309,10.033 L13.402,10.464 L13.094,10.556 L14.509,11.848 L17.493,13.171 Q17.493,13.294 17.524,13.448 Q17.554,13.602 17.57,13.771 Q17.585,13.94 17.585,14.094 Q17.585,14.401 17.554,14.555 Q17.431,15.17 17.108,15.709 Q16.785,16.247 16.539,16.77 Q16.324,17.201 16.324,17.539 L16.324,17.631 Q16.324,17.97 16.493,18.277 Q16.662,18.585 16.908,18.862 Q17.185,19.2 17.524,19.477 L16.662,21.753 Q16.201,21.907 15.647,22.03 Q15.186,22.153 14.617,22.246 Q14.048,22.338 13.432,22.338 L13.186,22.338 Q13.032,22.338 12.879,22.338 Q12.756,22.338 12.602,22.307 Q11.987,22.246 11.433,22.03 Q10.879,21.815 10.448,21.569 Q9.956,21.292 9.526,21.015 L8.972,18.708 L9.156,18.523 Q9.249,18.431 9.356,18.323 Q9.464,18.216 9.587,18.062 Q9.71,17.908 9.741,17.724 Q9.772,17.539 9.772,17.324 Q9.772,17.078 9.741,16.893 Q9.71,16.708 9.679,16.616 Q9.649,16.524 9.541,16.262 Q9.433,16.001 9.295,15.678 Q9.156,15.355 9.049,15.063 Q8.941,14.771 8.941,14.617 Q8.941,14.463 8.941,14.309 Q8.941,14.125 8.972,13.971 Q8.972,13.817 9.003,13.663 L11.248,12.002 L12.94,10.156 L13.156,10.064 L14.386,9.818 z M8.757,21.846 Q8.48,22 8.203,22.184 Q7.957,22.338 7.726,22.538 Q7.495,22.738 7.342,22.953 Q7.157,23.23 7.095,23.445 Q7.034,23.661 7.034,23.814 Q7.034,23.907 7.049,23.968 Q7.065,24.03 7.065,24.061 Q7.095,24.153 7.28,24.46 Q7.465,24.768 7.895,25.014 Q8.326,25.229 8.849,25.276 Q9.372,25.322 9.679,25.322 Q9.987,25.322 10.941,25.229 Q11.894,25.137 12.971,24.891 Q13.555,24.737 14.217,24.476 Q14.878,24.214 15.432,23.938 Q16.078,23.599 16.724,23.261 Q16.078,23.384 15.34,23.507 Q14.724,23.599 13.94,23.676 Q13.156,23.753 12.356,23.753 Q11.679,23.753 11.033,23.661 Q10.141,23.538 9.679,23.322 Q9.218,23.107 9.003,22.861 Q8.757,22.584 8.757,22.276 z M17.031,23.507 Q16.662,23.722 16.324,23.891 Q15.986,24.061 15.74,24.214 Q15.432,24.368 15.186,24.491 Q15.616,24.46 16.109,24.337 Q16.539,24.245 17.062,24.107 Q17.585,23.968 18.2,23.722 Q18.785,23.507 19.154,23.322 Q19.523,23.138 19.831,22.984 Q20.138,22.83 20.461,22.722 Q20.784,22.615 21.277,22.553 Q21.707,22.492 22.092,22.461 Q22.476,22.43 22.784,22.43 Q23.491,22.43 23.83,22.522 Q24.107,22.584 24.583,22.707 Q25.06,22.83 25.214,22.892 Q25.368,22.953 25.552,23.107 Q25.737,23.261 25.737,23.445 L25.737,23.63 Q25.737,23.784 25.691,23.907 Q25.645,24.03 25.399,24.153 Q25.245,24.245 24.937,24.322 Q24.63,24.399 24.276,24.476 Q23.922,24.553 23.599,24.614 Q23.276,24.676 23.153,24.707 Q23.03,24.737 22.692,24.737 Q22.384,24.737 22.046,24.768 Q21.646,24.799 21.184,24.83 Q21.83,24.983 22.507,25.106 Q23.092,25.229 23.784,25.306 Q24.476,25.383 25.183,25.383 Q25.86,25.383 26.752,25.26 Q27.644,25.137 28.567,24.922 Q29.49,24.707 30.305,24.414 Q31.12,24.122 31.674,23.784 Q32.781,23.107 33.335,22.353 Q33.889,21.6 33.889,20.984 Q33.889,20.369 32.92,19.862 Q31.951,19.354 30.536,19.139 Q30.044,19.077 29.613,19.031 Q29.182,18.985 28.782,18.985 Q28.044,18.985 27.321,19.123 Q26.598,19.262 25.768,19.508 Q25.122,19.692 24.23,20.031 Q23.338,20.369 22.461,20.723 Q21.584,21.077 20.846,21.415 Q20.108,21.753 19.8,21.938 z M11.279,14.678 Q11.248,14.74 11.233,14.817 Q11.218,14.894 11.187,14.955 Q11.156,15.017 11.079,15.109 Q11.002,15.201 10.941,15.263 Q10.879,15.324 10.864,15.447 Q10.848,15.57 10.848,15.632 Q10.848,15.693 10.864,15.801 Q10.879,15.909 10.941,16.001 Q11.002,16.124 11.11,16.278 Q11.218,16.432 11.248,16.493 Q11.248,16.524 11.264,16.539 Q11.279,16.555 11.279,16.585 Q11.279,16.616 11.31,16.647 L11.617,16.401 Q11.556,16.278 11.525,16.155 Q11.464,15.847 11.464,15.601 Q11.464,15.447 11.525,15.201 Q11.556,15.078 11.617,14.955 z M14.078,14.955 Q14.109,15.047 14.171,15.17 Q14.294,15.417 14.294,15.663 Q14.294,15.909 14.263,16.078 Q14.232,16.247 14.201,16.37 Q14.14,16.493 14.109,16.585 L14.632,17.016 L14.632,16.955 Q14.632,16.924 14.694,16.801 Q14.755,16.678 14.894,16.57 Q15.032,16.462 15.155,16.247 Q15.278,16.093 15.278,15.847 Q15.278,15.693 15.186,15.447 Q15.063,15.201 14.94,15.094 Q14.817,14.986 14.694,14.832 Q14.571,14.709 14.571,14.647 Q14.54,14.586 14.571,14.555 z M13.463,17.201 Q13.432,17.231 13.34,17.262 Q13.248,17.293 12.879,17.293 Q12.54,17.293 12.356,17.201 Q12.233,17.139 12.171,17.078 L11.894,17.539 L11.956,17.539 Q11.987,17.539 12.048,17.601 L12.294,17.908 Q12.356,17.97 12.525,18.124 Q12.694,18.277 12.848,18.277 Q13.002,18.277 13.14,18.247 Q13.279,18.216 13.432,18.062 Q13.555,17.939 13.602,17.908 Q13.648,17.877 13.709,17.847 Q13.74,17.847 13.755,17.831 Q13.771,17.816 13.802,17.816 L13.863,17.816 z M12.786,14.955 Q13.002,14.955 13.156,15.047 Q13.309,15.109 13.432,15.278 Q13.555,15.447 13.555,15.755 Q13.555,16.278 13.263,16.385 Q12.971,16.493 12.848,16.493 L12.817,16.493 Q12.602,16.493 12.479,16.37 Q12.325,16.278 12.233,16.124 Q12.14,15.97 12.14,15.693 Q12.14,15.447 12.233,15.278 Q12.325,15.109 12.448,15.047 Q12.571,14.955 12.786,14.955 z M12.786,14.432 Q12.233,14.432 11.987,14.894 Q11.74,15.355 11.74,15.693 Q11.74,16.124 12.048,16.585 Q12.356,17.047 12.817,17.047 Q13.309,17.047 13.663,16.755 Q14.017,16.462 14.017,15.663 Q14.017,15.047 13.586,14.74 Q13.156,14.432 12.786,14.432 z M13.832,13.725 Q13.802,13.694 13.74,13.694 Q13.617,13.694 13.586,13.663 Q13.463,13.602 13.371,13.494 Q13.279,13.386 13.125,13.263 Q13.002,13.171 12.786,13.171 Q12.663,13.171 12.479,13.294 Q12.356,13.355 12.248,13.525 Q12.14,13.694 12.017,13.786 Q11.987,13.817 11.925,13.817 Q11.894,13.817 11.864,13.848 L12.171,14.34 Q12.202,14.309 12.325,14.278 Q12.386,14.248 12.51,14.217 Q12.633,14.186 12.786,14.186 Q12.909,14.186 13.032,14.217 Q13.156,14.248 13.248,14.278 Q13.371,14.309 13.432,14.34 z M12.817,10.833 L11.433,12.34 L9.341,13.848 Q9.31,13.909 9.31,14.001 L9.31,14.371 L9.31,14.586 Q9.31,14.832 9.449,15.17 Q9.587,15.509 9.756,15.863 Q9.926,16.216 10.049,16.555 Q10.172,16.893 10.172,17.17 Q10.172,17.754 9.987,18.093 Q9.802,18.431 9.679,18.554 L9.403,18.893 L9.864,20.8 Q10.325,21.107 10.818,21.354 Q11.248,21.569 11.756,21.753 Q12.263,21.938 12.786,21.969 L13.063,21.969 Q13.555,21.969 14.14,21.892 Q14.724,21.815 15.217,21.723 Q15.77,21.6 16.355,21.446 L17.062,19.569 L16.724,19.231 Q16.57,19.077 16.432,18.923 Q16.293,18.77 16.232,18.616 Q16.078,18.37 16.001,18.016 Q15.924,17.662 15.924,17.508 Q15.924,17.354 16.093,16.862 Q16.262,16.37 16.416,16.155 Q16.539,15.939 16.862,15.37 Q17.185,14.801 17.216,14.371 L17.216,14.063 Q17.216,13.909 17.201,13.802 Q17.185,13.694 17.185,13.602 L17.185,13.417 L14.263,12.156 z M12.848,20.246 Q13.217,20.246 13.555,20.215 Q13.894,20.185 14.14,20.123 Q14.448,20.062 14.724,20 Q14.786,20.062 14.878,20.123 Q15.001,20.215 15.063,20.369 L15.063,20.492 Q15.063,20.554 15.032,20.584 Q15.001,20.615 14.97,20.677 Q14.94,20.738 14.909,20.769 Q14.755,20.8 14.478,20.861 Q14.232,20.923 13.894,20.954 Q13.555,20.984 13.032,20.984 L12.94,20.984 Q12.417,20.984 12.017,20.907 Q11.617,20.831 11.341,20.708 Q11.002,20.584 10.756,20.4 Q10.725,20.369 10.725,20.338 L10.725,20.215 Q10.725,20.123 10.787,20 Q10.879,19.908 11.033,19.846 L11.218,19.785 Q11.402,19.908 11.648,20.031 Q12.14,20.246 12.756,20.246 z M12.817,12.894 Q12.879,12.894 13.032,12.925 Q13.186,12.956 13.248,13.017 Q13.34,13.079 13.525,13.217 Q13.709,13.355 13.771,13.386 L14.017,13.448 Q14.171,13.509 14.201,13.54 Q14.201,13.571 14.186,13.602 Q14.171,13.632 14.171,13.663 Q14.14,13.694 14.14,13.725 L13.678,14.494 L13.802,14.586 L13.894,14.74 L14.571,14.278 Q14.601,14.278 14.632,14.248 Q14.694,14.186 14.724,14.186 Q14.755,14.186 14.817,14.248 Q14.847,14.278 14.847,14.309 L14.878,14.647 Q14.909,14.709 15.001,14.801 L15.309,15.109 Q15.463,15.293 15.524,15.54 Q15.586,15.786 15.586,15.939 Q15.524,16.093 15.37,16.385 Q15.217,16.678 15.124,16.77 Q14.909,16.985 14.909,17.17 Q14.909,17.385 14.755,17.385 Q14.694,17.385 14.571,17.324 Q14.509,17.293 14.478,17.231 L13.955,16.801 L13.832,16.955 L13.678,17.047 L13.955,17.447 Q13.986,17.508 14.048,17.601 Q14.109,17.662 14.125,17.724 Q14.14,17.785 14.171,17.816 Q14.263,17.908 14.263,17.97 L14.232,18.031 Q14.109,18.093 13.894,18.093 Q13.74,18.154 13.617,18.277 Q13.555,18.339 13.402,18.431 Q13.248,18.523 13.094,18.554 L13.002,18.554 Q12.725,18.554 12.479,18.4 Q12.325,18.339 12.125,18.108 Q11.925,17.877 11.864,17.816 Q11.802,17.754 11.679,17.754 Q11.587,17.754 11.556,17.693 L11.525,17.631 Q11.525,17.57 11.587,17.447 L11.648,17.324 L11.956,16.893 L11.833,16.77 L11.771,16.647 L11.525,16.832 L11.464,16.893 Q11.371,16.985 11.31,16.985 Q11.248,17.016 11.187,17.016 Q11.094,17.016 11.064,16.985 Q11.064,16.955 11.048,16.847 Q11.033,16.739 11.033,16.678 Q11.033,16.616 10.956,16.524 Q10.879,16.432 10.818,16.37 Q10.756,16.309 10.679,16.062 Q10.602,15.816 10.572,15.663 L10.572,15.601 Q10.572,15.447 10.618,15.293 Q10.664,15.14 10.725,15.078 Q10.787,15.017 10.879,14.878 Q10.971,14.74 11.002,14.678 Q11.033,14.586 11.033,14.432 Q11.094,14.278 11.156,14.278 Q11.187,14.278 11.218,14.294 Q11.248,14.309 11.279,14.309 Q11.31,14.34 11.341,14.34 L11.771,14.709 L11.864,14.586 L11.956,14.524 L11.525,13.755 L11.525,13.725 Q11.525,13.663 11.587,13.663 Q11.648,13.663 11.771,13.602 Q11.956,13.479 12.048,13.386 Q12.171,13.171 12.356,13.079 Q12.448,12.986 12.586,12.94 Q12.725,12.894 12.817,12.894 z" fill="#C74343"/>
  </g>
</svg>
