<?xml version="1.0" encoding="UTF-8"?>
<!DOCTYPE svg PUBLIC "-//W3C//DTD SVG 1.1//EN" "http://www.w3.org/Graphics/SVG/1.1/DTD/svg11.dtd">
<svg version="1.1" xmlns="http://www.w3.org/2000/svg" xmlns:xlink="http://www.w3.org/1999/xlink" x="0" y="0" width="40" height="40" viewBox="0, 0, 40, 40">
  <g id="zmap-ers-ops-firehydrant" transform="translate(0, 0)">
    <path d="M22.692,33.024 Q22.199,33.085 21.461,33.147 Q20.723,33.208 20.015,33.208 Q19.308,33.208 18.539,33.147 Q17.77,33.085 17.339,33.024 Q17.124,32.993 16.785,32.947 Q16.447,32.901 16.078,32.839 Q15.709,32.778 15.355,32.701 Q15.001,32.624 14.755,32.532 Q14.263,32.378 13.802,32.193 Q13.34,32.009 13.032,31.793 Q12.602,31.517 12.479,31.24 Q12.325,31.024 12.325,30.686 L12.325,29.609 Q12.325,29.117 12.786,28.748 Q12.909,28.687 13.048,28.594 Q13.186,28.502 13.34,28.44 Q13.402,28.379 13.54,28.348 Q13.678,28.317 13.802,28.256 L14.109,28.133 L14.109,23.703 L12.909,23.703 L12.909,24.595 L10.079,24.595 L10.079,22.38 L8.972,22.38 L8.972,19.273 L10.079,19.273 L10.079,17.059 L12.909,17.059 L12.909,17.951 L14.109,17.951 L14.109,15.982 Q13.771,15.89 13.494,15.705 Q13.248,15.551 13.063,15.29 Q12.879,15.028 12.879,14.598 Q12.94,13.982 13.279,13.644 Q13.371,13.552 13.509,13.49 Q13.648,13.429 13.802,13.367 Q13.955,13.306 14.14,13.244 Q14.232,12.813 14.386,12.352 Q14.509,11.952 14.709,11.506 Q14.909,11.06 15.217,10.691 Q15.555,10.26 16.047,9.953 Q16.539,9.645 16.97,9.43 Q17.493,9.184 17.985,9.03 L17.985,8.292 L18.631,8.292 L18.631,7.03 L21.369,7.03 L21.369,8.292 L22.015,8.292 L22.015,9.03 Q22.538,9.184 23.061,9.43 Q23.491,9.645 23.968,9.953 Q24.445,10.26 24.814,10.691 Q25.091,11.06 25.291,11.506 Q25.491,11.952 25.614,12.352 Q25.737,12.813 25.86,13.244 Q26.045,13.306 26.198,13.367 Q26.352,13.429 26.491,13.49 Q26.629,13.552 26.721,13.644 Q27.121,14.044 27.121,14.598 Q27.121,15.028 26.937,15.29 Q26.752,15.551 26.506,15.705 Q26.229,15.89 25.891,15.982 L25.891,17.951 L27.121,17.951 L27.121,17.059 L29.921,17.059 L29.921,19.273 L31.028,19.273 L31.028,22.38 L29.921,22.38 L29.921,24.595 L27.121,24.595 L27.121,23.703 L25.891,23.703 L25.891,28.133 L26.198,28.256 Q26.322,28.317 26.445,28.348 Q26.568,28.379 26.66,28.44 Q26.844,28.502 26.968,28.594 Q27.091,28.687 27.214,28.748 Q27.706,29.117 27.706,29.609 L27.706,30.686 Q27.706,30.932 27.552,31.24 Q27.367,31.517 26.998,31.793 Q26.691,32.009 26.214,32.193 Q25.737,32.378 25.245,32.532 Q24.999,32.624 24.66,32.701 Q24.322,32.778 23.968,32.855 Q23.615,32.932 23.261,32.978 Q22.907,33.024 22.692,33.024 z M12.017,17.951 L10.971,17.951 L10.971,20.166 L9.864,20.166 L9.864,21.488 L10.971,21.488 L10.971,23.703 L12.017,23.703 z M27.983,23.703 L29.029,23.703 L29.029,21.488 L30.136,21.488 L30.136,20.166 L29.029,20.166 L29.029,17.951 L27.983,17.951 z M27.121,22.842 L27.121,18.843 L25.03,18.843 L25.03,16.013 Q24.076,15.982 23.153,15.951 Q22.353,15.92 21.507,15.89 Q20.661,15.859 20.015,15.859 Q19.339,15.859 18.493,15.89 Q17.647,15.92 16.847,15.951 Q15.924,16.013 15.001,16.043 L15.001,18.843 L12.909,18.843 L12.909,22.842 L15.001,22.842 L15.001,28.81 L14.663,28.902 Q14.386,28.963 14.14,29.071 Q13.894,29.179 13.74,29.24 L13.371,29.425 Q14.324,29.732 15.401,29.979 Q16.324,30.194 17.524,30.363 Q18.723,30.532 20.015,30.532 Q21.307,30.532 22.507,30.363 Q23.707,30.194 24.63,29.979 Q25.706,29.732 26.66,29.425 Q26.475,29.363 26.26,29.24 Q26.075,29.179 25.845,29.071 Q25.614,28.963 25.337,28.902 L25.03,28.81 L25.03,22.842 z M15.986,21.242 Q15.986,20.412 16.309,19.673 Q16.632,18.935 17.17,18.397 Q17.708,17.858 18.447,17.535 Q19.185,17.212 20.015,17.212 Q20.846,17.212 21.584,17.535 Q22.323,17.858 22.876,18.397 Q23.43,18.935 23.753,19.673 Q24.076,20.412 24.076,21.242 Q24.076,22.073 23.753,22.811 Q23.43,23.549 22.876,24.103 Q22.323,24.657 21.584,24.98 Q20.846,25.303 20.015,25.303 Q19.185,25.303 18.447,24.98 Q17.708,24.657 17.17,24.103 Q16.632,23.549 16.309,22.811 Q15.986,22.073 15.986,21.242 z M16.847,21.242 Q16.847,21.888 17.093,22.473 Q17.339,23.057 17.785,23.488 Q18.231,23.918 18.8,24.165 Q19.369,24.411 20.015,24.411 Q20.661,24.411 21.246,24.165 Q21.83,23.918 22.261,23.488 Q22.692,23.057 22.938,22.473 Q23.184,21.888 23.184,21.242 Q23.184,20.596 22.938,20.027 Q22.692,19.458 22.261,19.012 Q21.83,18.566 21.246,18.32 Q20.661,18.074 20.015,18.074 Q19.369,18.074 18.8,18.32 Q18.231,18.566 17.785,19.012 Q17.339,19.458 17.093,20.027 Q16.847,20.596 16.847,21.242 z M20.877,19.766 L21.738,21.242 L20.877,22.75 L19.123,22.75 L18.262,21.242 L19.123,19.766 z M19.646,20.627 L19.277,21.242 L19.646,21.888 L20.354,21.888 L20.723,21.242 L20.354,20.627 z M20.015,13.921 Q19.4,13.921 18.447,13.952 Q17.493,13.982 16.57,14.013 Q15.493,14.075 14.294,14.105 Q14.14,14.167 14.017,14.259 Q13.771,14.444 13.771,14.659 Q13.771,14.936 14.171,15.059 Q14.324,15.151 14.571,15.151 Q15.616,15.121 16.632,15.059 Q17.493,15.028 18.431,14.998 Q19.369,14.967 20.015,14.967 Q20.631,14.967 21.569,14.998 Q22.507,15.028 23.368,15.059 Q24.384,15.121 25.46,15.151 Q25.676,15.121 25.829,15.028 Q25.983,14.967 26.106,14.875 Q26.229,14.782 26.229,14.659 Q26.229,14.536 26.137,14.428 Q26.045,14.321 25.952,14.259 Q25.829,14.167 25.706,14.105 Q24.537,14.075 23.461,14.013 Q22.538,13.982 21.569,13.952 Q20.6,13.921 20.015,13.921 z M15.032,13.213 Q16.016,13.183 16.97,13.121 Q17.77,13.06 18.616,13.029 Q19.462,12.998 20.015,12.998 Q20.538,12.998 21.384,13.029 Q22.23,13.06 23.03,13.121 Q23.953,13.183 24.968,13.213 Q24.876,12.967 24.814,12.721 Q24.753,12.506 24.707,12.321 Q24.66,12.137 24.599,12.014 L24.568,11.952 Q24.507,11.829 24.368,11.598 Q24.23,11.368 24.03,11.122 Q23.83,10.875 23.553,10.645 Q23.276,10.414 22.907,10.26 Q22.538,10.106 22.215,10.03 Q21.892,9.953 21.646,9.891 Q21.369,9.83 21.154,9.83 L21.154,9.184 L20.477,9.184 L20.477,7.922 L19.523,7.922 L19.523,9.184 L18.877,9.184 L18.877,9.83 Q18.631,9.83 18.354,9.891 Q17.77,10.014 17.093,10.291 Q16.355,10.599 15.939,11.198 Q15.524,11.798 15.432,12.014 Q15.37,12.137 15.309,12.321 Q15.247,12.506 15.186,12.721 Q15.094,12.967 15.032,13.213 z M13.186,30.471 Q13.186,30.563 13.232,30.701 Q13.279,30.84 13.494,31.024 Q13.617,31.147 14.094,31.332 Q14.571,31.517 15.201,31.686 Q15.832,31.855 16.509,31.993 Q17.185,32.132 17.739,32.163 Q18.846,32.255 19.431,32.255 L20.015,32.255 L20.569,32.255 Q21.092,32.255 22.261,32.163 Q22.815,32.132 23.507,31.993 Q24.199,31.855 24.814,31.686 Q25.429,31.517 25.906,31.332 Q26.383,31.147 26.537,31.024 Q26.721,30.871 26.783,30.732 Q26.844,30.594 26.844,30.471 Q26.844,30.44 26.829,30.409 Q26.814,30.378 26.814,30.348 L26.814,30.317 Q25.983,30.625 24.937,30.871 Q24.045,31.086 22.784,31.255 Q21.523,31.424 20.015,31.424 Q18.477,31.424 17.216,31.255 Q15.955,31.086 15.063,30.871 Q14.017,30.625 13.186,30.317 z M20.015,35.485 Q23.153,35.485 25.891,34.301 Q28.629,33.116 30.69,31.055 Q32.751,28.994 33.935,26.241 Q35.119,23.488 35.119,20.35 Q35.119,17.212 33.935,14.459 Q32.751,11.706 30.69,9.66 Q28.629,7.615 25.891,6.415 Q23.153,5.215 20.015,5.215 Q16.878,5.215 14.125,6.415 Q11.371,7.615 9.31,9.66 Q7.249,11.706 6.065,14.459 Q4.881,17.212 4.881,20.35 Q4.881,23.488 6.065,26.241 Q7.249,28.994 9.31,31.055 Q11.371,33.116 14.125,34.301 Q16.878,35.485 20.015,35.485 z M36.196,20.35 Q36.196,23.703 34.919,26.656 Q33.643,29.609 31.443,31.793 Q29.244,33.978 26.306,35.254 Q23.368,36.531 20.015,36.531 Q16.662,36.531 13.709,35.254 Q10.756,33.978 8.557,31.793 Q6.357,29.609 5.081,26.656 Q3.804,23.703 3.804,20.35 Q3.804,16.997 5.081,14.044 Q6.357,11.091 8.557,8.907 Q10.756,6.723 13.709,5.446 Q16.662,4.169 20.015,4.169 Q23.368,4.169 26.306,5.446 Q29.244,6.723 31.443,8.907 Q33.643,11.091 34.919,14.044 Q36.196,16.997 36.196,20.35 z" fill="#C74343"/>
  </g>
</svg>
