<?xml version="1.0" encoding="UTF-8"?>
<!DOCTYPE svg PUBLIC "-//W3C//DTD SVG 1.1//EN" "http://www.w3.org/Graphics/SVG/1.1/DTD/svg11.dtd">
<svg version="1.1" xmlns="http://www.w3.org/2000/svg" xmlns:xlink="http://www.w3.org/1999/xlink" x="0" y="0" width="40" height="40" viewBox="0, 0, 40, 40">
  <g id="zmap-marker-hotel" transform="translate(0, 0)">
    <path d="M19.999,38.251 C17.896,35.874 7.5,23.628 7.5,14 C7.5,7.107 13.107,1.5 20,1.5 C26.893,1.5 32.5,7.107 32.5,14 C32.5,23.58 22.102,35.866 19.999,38.251 z" fill="#84D09C"/>
    <path d="M20,2 C26.617,2 32,7.383 32,14 C32,22.932 22.71,34.349 19.999,37.491 C17.286,34.358 8,22.977 8,14 C8,7.383 13.383,2 20,2 M20,1 C12.82,1 7,6.82 7,14 C7,24.981 20,39 20,39 C20,39 33,24.926 33,14 C33,6.82 27.18,1 20,1 L20,1 z" fill="#37A55A"/>
    <g>
      <path d="M16.864,15.068 C18.067,15.068 19.045,14.09 19.045,12.886 C19.045,11.683 18.067,10.705 16.864,10.705 C15.66,10.705 14.682,11.683 14.682,12.886 C14.682,14.09 15.66,15.068 16.864,15.068 z M25.591,10.705 L19.773,10.705 L19.773,15.795 L13.955,15.795 L13.955,9.25 L12.5,9.25 L12.5,20.159 L13.955,20.159 L13.955,17.977 L27.045,17.977 L27.045,20.159 L28.5,20.159 L28.5,13.614 C28.5,12.006 27.198,10.705 25.591,10.705 z" fill="#F2FAFF"/>
      <path d="M16.864,15.068 C18.067,15.068 19.045,14.09 19.045,12.886 C19.045,11.683 18.067,10.705 16.864,10.705 C15.66,10.705 14.682,11.683 14.682,12.886 C14.682,14.09 15.66,15.068 16.864,15.068 z M25.591,10.705 L19.773,10.705 L19.773,15.795 L13.955,15.795 L13.955,9.25 L12.5,9.25 L12.5,20.159 L13.955,20.159 L13.955,17.977 L27.045,17.977 L27.045,20.159 L28.5,20.159 L28.5,13.614 C28.5,12.006 27.198,10.705 25.591,10.705 z" fill-opacity="0" stroke="#36A55A" stroke-width="1"/>
    </g>
  </g>
</svg>
