<?xml version="1.0" encoding="UTF-8"?>
<!DOCTYPE svg PUBLIC "-//W3C//DTD SVG 1.1//EN" "http://www.w3.org/Graphics/SVG/1.1/DTD/svg11.dtd">
<svg version="1.1" xmlns="http://www.w3.org/2000/svg" xmlns:xlink="http://www.w3.org/1999/xlink" x="0" y="0" width="40" height="40" viewBox="0, 0, 40, 40">
  <g id="zmap-ers-evt-aftershock" transform="translate(0, 0)">
    <path d="M40,19.985 L20.015,39.97 L0,19.985 L20.015,0 z M28.84,13.101 Q27.991,12.009 26.899,11.16 L26.596,11.676 Q27.051,12.039 27.475,12.479 Q27.9,12.919 28.324,13.404 z M18.438,8.916 Q17.104,9.158 15.77,9.613 L16.103,10.159 Q16.71,9.917 17.271,9.78 Q17.832,9.644 18.438,9.553 z M30.447,21.531 Q30.387,21.804 30.296,22.199 Q30.205,22.593 30.083,22.942 Q29.962,23.29 29.886,23.548 Q29.81,23.806 29.81,23.836 L30.387,24.2 Q30.387,24.17 30.478,23.851 Q30.569,23.533 30.675,23.124 Q30.781,22.714 30.887,22.274 Q30.993,21.835 31.054,21.531 z M26.899,28.81 Q27.961,27.93 28.84,26.869 L28.264,26.566 Q27.9,27.051 27.475,27.46 Q27.051,27.87 26.596,28.234 z M24.23,9.613 Q23.563,9.34 22.911,9.189 Q22.259,9.037 21.562,8.916 L21.562,9.553 Q22.775,9.735 23.927,10.159 z M13.101,11.16 Q12.555,11.585 12.085,12.055 Q11.615,12.525 11.19,13.101 L11.736,13.404 Q12.525,12.434 13.434,11.736 z M11.19,26.869 Q11.615,27.384 12.1,27.885 Q12.585,28.385 13.101,28.81 L13.434,28.234 Q12.525,27.536 11.736,26.566 z M31.054,18.438 Q30.963,17.771 30.811,17.089 Q30.66,16.406 30.387,15.77 L29.81,16.073 Q30.053,16.679 30.205,17.255 Q30.356,17.832 30.447,18.438 z M8.946,21.531 Q9.037,22.199 9.219,22.866 Q9.401,23.533 9.644,24.139 L10.19,23.836 Q9.765,22.775 9.583,21.531 z M16.164,29.81 L15.83,30.356 Q15.982,30.356 16.103,30.478 Q16.71,30.66 17.271,30.796 Q17.832,30.933 18.438,31.054 L18.438,30.417 Q17.346,30.235 16.346,29.871 z M10.129,16.224 Q10.129,16.194 10.19,16.133 L9.644,15.83 Q9.583,15.891 9.583,15.951 Q9.583,15.982 9.522,16.073 Q9.31,16.649 9.158,17.24 Q9.007,17.832 8.946,18.438 L9.583,18.438 Q9.644,17.862 9.765,17.346 Q9.886,16.831 10.129,16.255 z M21.562,31.054 Q22.229,30.933 22.896,30.781 Q23.563,30.629 24.17,30.356 L23.867,29.81 Q22.805,30.235 21.562,30.417 z M26.717,17.134 Q26.717,17.195 26.748,17.24 Q26.778,17.286 26.778,17.377 L27.718,17.134 Q27.657,17.043 27.657,16.983 Q27.657,16.892 27.597,16.74 Q27.324,16.194 27.02,15.694 Q26.717,15.193 26.353,14.769 L25.656,15.375 Q26.293,16.224 26.717,17.134 z M17.074,13.283 Q17.195,13.283 17.255,13.252 Q17.316,13.222 17.407,13.161 L17.134,12.282 Q16.983,12.343 16.892,12.373 Q16.801,12.403 16.71,12.464 Q15.679,12.889 14.738,13.647 L15.406,14.284 Q15.8,13.98 16.209,13.753 Q16.619,13.525 17.074,13.283 z M22.623,13.222 Q23.685,13.586 24.594,14.344 L25.231,13.647 Q24.928,13.404 24.655,13.192 Q24.382,12.98 24.049,12.767 Q23.836,12.676 23.639,12.585 Q23.442,12.494 23.26,12.434 Q23.048,12.343 22.866,12.282 z M21.38,11.857 Q20.986,11.797 20.667,11.736 Q20.349,11.676 20.015,11.676 Q19.682,11.676 19.333,11.736 Q18.984,11.797 18.65,11.857 L18.893,12.767 Q19.166,12.707 19.439,12.646 Q19.712,12.585 20.015,12.585 Q20.288,12.585 20.561,12.646 Q20.834,12.707 21.137,12.767 z M22.926,26.687 Q22.835,26.687 22.775,26.717 Q22.714,26.748 22.623,26.808 L22.866,27.688 Q22.957,27.627 23.048,27.627 Q23.139,27.627 23.29,27.566 Q23.806,27.324 24.306,27.005 Q24.807,26.687 25.231,26.323 L24.594,25.625 Q23.776,26.323 22.926,26.687 z M18.65,28.112 Q18.984,28.173 19.333,28.203 Q19.682,28.234 20.015,28.234 Q20.349,28.234 20.667,28.203 Q20.986,28.173 21.38,28.112 L21.137,27.233 Q20.531,27.324 20.015,27.324 Q19.712,27.324 19.439,27.293 Q19.166,27.263 18.893,27.202 z M26.778,22.593 Q26.596,23.169 26.308,23.639 Q26.02,24.109 25.656,24.594 L26.353,25.201 Q26.596,24.958 26.778,24.685 Q26.96,24.412 27.142,24.079 Q27.202,23.927 27.309,23.73 Q27.415,23.533 27.506,23.321 Q27.627,23.078 27.718,22.835 z M28.143,21.35 Q28.203,21.016 28.234,20.682 Q28.264,20.349 28.264,19.985 Q28.264,19.651 28.234,19.303 Q28.203,18.954 28.143,18.62 L27.202,18.863 Q27.263,19.136 27.263,19.439 Q27.263,19.712 27.263,19.985 Q27.263,20.258 27.263,20.561 Q27.263,20.834 27.202,21.107 z M17.286,26.748 Q16.315,26.414 15.406,25.686 L14.738,26.323 Q15.77,27.172 16.952,27.627 Q17.013,27.688 17.134,27.688 L17.407,26.808 z M11.857,18.62 Q11.797,18.984 11.751,19.318 Q11.706,19.651 11.706,19.985 Q11.706,20.318 11.751,20.667 Q11.797,21.016 11.857,21.35 L12.798,21.107 Q12.737,20.834 12.707,20.546 Q12.676,20.258 12.676,19.985 Q12.676,19.712 12.707,19.424 Q12.737,19.136 12.798,18.863 z M13.222,17.255 Q13.434,16.74 13.692,16.27 Q13.95,15.8 14.284,15.375 L13.677,14.708 Q12.858,15.679 12.373,16.952 Q12.312,17.013 12.312,17.134 L13.161,17.377 z M13.161,22.593 L12.312,22.835 Q12.312,22.987 12.434,23.29 Q12.676,23.806 12.98,24.306 Q13.283,24.807 13.677,25.262 L14.284,24.594 Q14.011,24.2 13.753,23.791 Q13.495,23.381 13.313,22.896 z M20.015,24.018 Q19.348,24.018 18.711,23.836 L18.074,24.898 Q19.014,25.262 20.015,25.262 Q21.016,25.262 21.926,24.898 L21.319,23.836 Q20.622,24.018 20.015,24.018 z M22.684,23.017 L23.29,24.139 L23.745,23.715 Q24.958,22.472 25.231,20.804 L23.988,20.804 Q23.836,21.35 23.563,21.88 Q23.29,22.411 22.866,22.835 z M25.231,19.227 Q25.08,18.196 24.564,17.331 Q24.049,16.467 23.29,15.83 L22.684,16.952 Q23.139,17.377 23.487,17.953 Q23.836,18.529 23.988,19.227 z M20.015,15.951 Q20.713,15.951 21.319,16.194 L21.926,15.072 Q21.016,14.708 20.015,14.708 Q18.923,14.708 18.074,15.072 L18.711,16.194 Q18.984,16.042 19.333,15.997 Q19.682,15.951 20.015,15.951 z M17.134,22.835 Q16.649,22.35 16.406,21.835 Q16.133,21.38 16.042,20.804 L14.799,20.804 Q14.86,21.228 14.981,21.668 Q15.102,22.108 15.345,22.472 Q15.739,23.169 16.285,23.715 L16.71,24.139 L17.346,23.017 z M16.71,15.83 Q15.072,17.134 14.799,19.227 L16.042,19.227 Q16.194,18.529 16.513,17.953 Q16.831,17.377 17.346,16.952 z M21.986,19.985 Q21.986,19.136 21.425,18.56 Q20.864,17.983 20.015,17.983 Q19.166,17.983 18.56,18.56 Q17.953,19.136 17.953,19.985 Q17.953,20.834 18.56,21.44 Q19.166,22.047 20.015,22.047 Q20.864,22.047 21.425,21.44 Q21.986,20.834 21.986,19.985 z" fill="#C74343"/>
  </g>
</svg>
