<?xml version="1.0" encoding="UTF-8"?>
<!DOCTYPE svg PUBLIC "-//W3C//DTD SVG 1.1//EN" "http://www.w3.org/Graphics/SVG/1.1/DTD/svg11.dtd">
<svg version="1.1" xmlns="http://www.w3.org/2000/svg" xmlns:xlink="http://www.w3.org/1999/xlink" x="0" y="0" width="40" height="40" viewBox="0, 0, 40, 40">
  <g id="zmap-ers-ops-shelter" transform="translate(0, 0)">
    <path d="M20.015,35.135 Q23.153,35.135 25.891,33.95 Q28.629,32.766 30.69,30.705 Q32.751,28.644 33.935,25.891 Q35.119,23.138 35.119,20 Q35.119,16.862 33.935,14.109 Q32.751,11.356 30.69,9.31 Q28.629,7.265 25.891,6.065 Q23.153,4.865 20.015,4.865 Q16.878,4.865 14.125,6.065 Q11.371,7.265 9.31,9.31 Q7.249,11.356 6.065,14.109 Q4.881,16.862 4.881,20 Q4.881,23.138 6.065,25.891 Q7.249,28.644 9.31,30.705 Q11.371,32.766 14.125,33.95 Q16.878,35.135 20.015,35.135 z M36.196,20 Q36.196,23.353 34.919,26.306 Q33.643,29.259 31.443,31.443 Q29.244,33.627 26.306,34.904 Q23.368,36.181 20.015,36.181 Q16.662,36.181 13.709,34.904 Q10.756,33.627 8.557,31.443 Q6.357,29.259 5.081,26.306 Q3.804,23.353 3.804,20 Q3.804,16.647 5.081,13.694 Q6.357,10.741 8.557,8.557 Q10.756,6.373 13.709,5.096 Q16.662,3.819 20.015,3.819 Q23.368,3.819 26.306,5.096 Q29.244,6.373 31.443,8.557 Q33.643,10.741 34.919,13.694 Q36.196,16.647 36.196,20 z M26.875,12.156 L26.968,12.156 Q27.029,12.156 27.091,12.14 Q27.152,12.125 27.214,12.125 Q27.429,12.125 27.552,12.187 Q27.675,12.279 27.767,12.402 Q27.829,12.494 27.86,12.556 Q28.383,13.54 28.906,14.524 Q29.336,15.355 29.828,16.278 Q30.321,17.201 30.659,17.877 Q30.997,18.585 31.443,19.523 Q31.889,20.461 32.32,21.323 Q32.812,22.338 33.304,23.384 Q33.335,23.415 33.397,23.507 Q33.427,23.568 33.458,23.661 Q33.489,23.753 33.489,23.814 Q33.489,23.907 33.458,23.938 Q33.397,24.03 33.289,24.076 Q33.181,24.122 33.089,24.153 Q32.966,24.184 32.843,24.184 L22.261,26.645 L22.046,26.645 Q21.246,26.952 20.569,27.198 Q19.985,27.414 19.462,27.598 Q18.939,27.783 18.785,27.844 Q18.662,27.906 18.539,27.906 Q18.416,27.906 18.293,27.906 L17.985,27.906 L17.801,27.875 Q17.677,27.875 17.431,27.829 Q17.185,27.783 17.031,27.629 Q16.908,27.537 16.862,27.429 Q16.816,27.321 16.755,27.229 Q16.693,27.106 16.662,26.983 L16.262,26.029 L10.51,24.553 L10.049,25.014 Q9.895,25.168 9.679,25.183 Q9.464,25.199 9.187,25.199 Q8.941,25.199 8.618,25.076 Q8.295,24.953 8.049,24.83 Q7.926,24.768 7.695,24.614 Q7.465,24.46 7.234,24.291 Q7.003,24.122 6.803,23.953 Q6.603,23.784 6.511,23.722 Q6.357,23.568 6.25,23.368 Q6.142,23.168 6.142,23.015 Q6.142,22.892 6.311,22.769 Q6.48,22.646 6.665,22.584 Q6.757,22.522 6.88,22.492 Q7.003,22.461 7.157,22.399 Q7.28,22.338 7.465,22.307 L14.448,12.74 Q14.509,12.586 14.601,12.463 Q14.786,12.217 14.878,12.187 L22.015,12.187 z M15.34,12.74 L19.369,21.107 L21.307,24.583 L22.815,25.137 Q22.845,25.137 22.907,25.168 Q22.969,25.199 23.03,25.26 Q23.092,25.383 23.092,25.599 L23.092,25.691 Q23.092,25.752 23.076,25.768 Q23.061,25.783 23.061,25.845 L23.061,25.937 L32.874,23.63 Q32.166,22.276 31.613,21.077 Q31.12,20.062 30.644,19.077 Q30.167,18.093 29.982,17.662 Q29.705,17.078 29.244,16.232 Q28.782,15.386 28.352,14.586 Q27.829,13.663 27.306,12.648 z M15.063,13.294 Q15.032,13.663 15.001,14.032 Q14.97,14.371 14.955,14.801 Q14.94,15.232 14.94,15.693 Q14.94,15.97 14.94,16.247 Q14.94,16.493 14.97,16.77 Q15.001,17.354 15.078,18.2 Q15.155,19.046 15.232,19.877 Q15.309,20.708 15.401,21.4 Q15.493,22.092 15.586,22.369 Q15.647,22.676 15.909,23.415 Q16.17,24.153 16.447,24.922 Q16.785,25.845 17.124,26.891 Q17.155,27.014 17.247,27.106 Q17.401,27.321 17.554,27.352 Q17.801,27.414 18.231,27.414 Q18.693,27.414 18.939,27.321 Q19.031,27.26 19.615,27.029 Q20.2,26.798 20.846,26.552 L22.569,25.875 L22.599,25.691 L22.476,25.568 L21.123,25.014 L18.908,21.415 z M7.895,22.615 L7.68,22.769 L6.665,23.138 Q6.88,23.353 7.065,23.507 Q7.219,23.661 7.403,23.814 Q7.588,23.968 7.711,24.03 Q7.834,24.122 8.034,24.23 Q8.234,24.337 8.449,24.445 Q8.664,24.553 8.88,24.63 Q9.095,24.707 9.218,24.707 L9.341,24.707 Q9.587,24.676 9.926,24.476 Q10.264,24.276 10.695,23.568 Q11.033,22.984 11.417,22.076 Q11.802,21.169 12.171,20.185 L12.448,19.446 Q12.694,18.862 13.063,17.831 Q13.432,16.801 13.771,15.816 Q14.171,14.647 14.632,13.355 z" fill="#C74343"/>
  </g>
</svg>
