<?xml version="1.0" encoding="UTF-8"?>
<!DOCTYPE svg PUBLIC "-//W3C//DTD SVG 1.1//EN" "http://www.w3.org/Graphics/SVG/1.1/DTD/svg11.dtd">
<svg version="1.1" xmlns="http://www.w3.org/2000/svg" xmlns:xlink="http://www.w3.org/1999/xlink" x="0" y="0" width="40" height="40" viewBox="0, 0, 40, 40">
  <g id="zmap-ers-evt-tsunami" transform="translate(0, 0)">
    <path d="M40,19.985 L20.015,39.97 L0,19.985 L20.015,-0 z M19.439,10.038 Q17.71,10.038 16.088,10.538 Q14.466,11.039 13.01,11.873 Q11.554,12.707 10.281,13.753 Q9.007,14.799 7.945,15.891 Q5.428,18.438 3.366,21.713 L20.015,38.362 L30.69,27.688 Q30.296,27.718 29.841,27.748 Q29.447,27.779 28.901,27.794 Q28.355,27.809 27.718,27.809 Q26.566,27.809 25.292,27.733 Q24.018,27.657 22.866,27.384 Q21.592,27.111 20.455,26.429 Q19.318,25.747 18.453,24.761 Q17.589,23.776 17.089,22.578 Q16.588,21.38 16.588,20.045 Q16.588,18.681 17.089,17.513 Q17.589,16.346 18.469,15.466 Q19.348,14.587 20.516,14.086 Q21.683,13.586 23.048,13.586 Q24.352,13.586 25.534,14.071 Q26.717,14.556 27.597,15.436 Q27.688,15.497 27.748,15.588 Q27.809,15.679 27.9,15.77 L27.779,15.193 Q27.657,14.769 27.384,14.253 Q27.142,13.829 26.778,13.298 Q26.414,12.767 25.838,12.221 Q25.292,11.736 24.579,11.327 Q23.867,10.917 23.033,10.629 Q22.199,10.341 21.289,10.19 Q20.379,10.038 19.439,10.038 z" fill="#C74343"/>
  </g>
</svg>
