<?xml version="1.0" encoding="UTF-8"?>
<!DOCTYPE svg PUBLIC "-//W3C//DTD SVG 1.1//EN" "http://www.w3.org/Graphics/SVG/1.1/DTD/svg11.dtd">
<svg version="1.1" xmlns="http://www.w3.org/2000/svg" xmlns:xlink="http://www.w3.org/1999/xlink" x="0" y="0" width="40" height="40" viewBox="0, 0, 40, 40">
  <g id="zmap-ers-inc-airinc" transform="translate(0, 0)">
    <path d="M40,19.985 L20.015,39.97 L-0,19.985 L20.015,0 z M38.393,19.985 L20.015,1.607 L1.638,19.985 L20.015,38.362 z M34.359,19.985 L33.541,20.864 L29.871,21.41 L26.535,21.41 L24.928,23.897 L25.777,23.897 L25.777,25.262 L23.988,25.262 L22.745,27.051 L23.563,27.051 L23.563,28.446 L21.865,28.446 L18.832,32.904 L16.952,32.904 L20.864,23.139 L20.864,21.41 L13.374,21.168 L10.25,24.716 L9.249,24.716 L10.584,21.228 L10.584,20.531 L9.249,19.985 L10.584,19.5 L10.584,18.741 L9.249,15.254 L10.25,15.254 L13.374,18.802 L20.864,18.56 L20.864,16.831 L16.952,7.066 L18.832,7.066 L21.865,11.524 L23.563,11.524 L23.563,12.919 L22.745,12.919 L23.988,14.708 L25.777,14.708 L25.777,16.073 L24.928,16.073 L26.535,18.56 L29.871,18.56 L33.541,19.105 z" fill="#C74343"/>
  </g>
</svg>
