<?xml version="1.0" encoding="UTF-8"?>
<!DOCTYPE svg PUBLIC "-//W3C//DTD SVG 1.1//EN" "http://www.w3.org/Graphics/SVG/1.1/DTD/svg11.dtd">
<svg version="1.1" xmlns="http://www.w3.org/2000/svg" xmlns:xlink="http://www.w3.org/1999/xlink" x="0" y="0" width="40" height="40" viewBox="0, 0, 40, 40">
  <g id="zmap-ers-ops-teams" transform="translate(0, 0)">
    <path d="M20.015,35.135 Q23.153,35.135 25.891,33.95 Q28.629,32.766 30.69,30.705 Q32.751,28.644 33.935,25.891 Q35.119,23.138 35.119,20 Q35.119,16.862 33.935,14.109 Q32.751,11.356 30.69,9.31 Q28.629,7.265 25.891,6.065 Q23.153,4.865 20.015,4.865 Q16.878,4.865 14.125,6.065 Q11.371,7.265 9.31,9.31 Q7.249,11.356 6.065,14.109 Q4.881,16.862 4.881,20 Q4.881,23.138 6.065,25.891 Q7.249,28.644 9.31,30.705 Q11.371,32.766 14.125,33.95 Q16.878,35.135 20.015,35.135 z M36.196,20 Q36.196,23.353 34.919,26.306 Q33.643,29.259 31.443,31.443 Q29.244,33.627 26.306,34.904 Q23.368,36.181 20.015,36.181 Q16.662,36.181 13.709,34.904 Q10.756,33.627 8.557,31.443 Q6.357,29.259 5.081,26.306 Q3.804,23.353 3.804,20 Q3.804,16.647 5.081,13.694 Q6.357,10.741 8.557,8.557 Q10.756,6.373 13.709,5.096 Q16.662,3.819 20.015,3.819 Q23.368,3.819 26.306,5.096 Q29.244,6.373 31.443,8.557 Q33.643,10.741 34.919,13.694 Q36.196,16.647 36.196,20 z M20.015,5.911 L32.566,27.69 L7.434,27.69 z M8.48,27.075 L31.551,27.075 L20.015,7.111 z M23.276,21.169 L23.276,22.615 L24.076,22.615 L24.076,26.06 L23.215,26.06 L23.215,22.676 L22.476,22.676 L22.476,26.06 L21.615,26.06 L21.615,22.615 L22.415,22.615 L22.415,21.169 L17.185,21.169 L17.185,22.615 L17.985,22.615 L17.985,26.06 L17.124,26.06 L17.124,22.676 L16.385,22.676 L16.385,26.06 L15.555,26.06 L15.555,22.615 L16.324,22.615 L16.324,21.169 L13.432,21.169 L13.432,20.431 L16.324,20.431 L16.324,19.016 Q15.801,18.893 15.447,18.447 Q15.094,18 15.094,17.416 Q15.094,16.739 15.57,16.247 Q16.047,15.755 16.755,15.755 Q17.462,15.755 17.939,16.247 Q18.416,16.739 18.416,17.416 Q18.416,18 18.062,18.431 Q17.708,18.862 17.185,19.016 L17.185,20.431 L22.415,20.431 L22.415,19.016 Q21.892,18.893 21.538,18.447 Q21.184,18 21.184,17.416 Q21.184,16.739 21.661,16.247 Q22.138,15.755 22.845,15.755 Q23.553,15.755 24.03,16.247 Q24.507,16.739 24.507,17.416 Q24.507,18 24.153,18.431 Q23.799,18.862 23.276,19.016 L23.276,20.431 L26.229,20.431 L26.229,21.169 z" fill="#C74343"/>
  </g>
</svg>
