<?xml version="1.0" encoding="UTF-8"?>
<!DOCTYPE svg PUBLIC "-//W3C//DTD SVG 1.1//EN" "http://www.w3.org/Graphics/SVG/1.1/DTD/svg11.dtd">
<svg version="1.1" xmlns="http://www.w3.org/2000/svg" xmlns:xlink="http://www.w3.org/1999/xlink" x="0" y="0" width="40" height="40" viewBox="0, 0, 40, 40">
  <g id="zmap-ers-evt-landslide" transform="translate(0, 0)">
    <path d="M40,19.985 L20.015,39.97 L-0,19.985 L20.015,-0 z M23.745,24.382 L23.23,23.897 L23.23,23.715 L22.987,23.199 L22.987,21.592 L22.805,20.925 L22.047,20.167 L21.137,19.742 L20.925,19.5 L20.015,19.227 L20.015,18.802 L19.5,17.862 L19.257,17.619 L19.075,14.587 L18.832,14.132 L18.832,13.889 L19.075,12.707 L20.015,11.615 L20.44,11.342 L20.44,11.099 L20.682,10.432 L19.257,8.976 L8.582,24.837 L23.745,24.837 z M20.925,12.98 Q20.804,13.101 20.804,13.283 Q20.804,13.525 20.91,13.753 Q21.016,13.98 21.137,14.132 Q21.228,14.132 21.41,14.132 Q21.622,14.132 21.835,14.102 Q22.047,14.071 22.259,14.026 Q22.472,13.98 22.563,13.889 Q22.684,13.768 22.684,13.647 Q22.684,13.465 22.563,13.298 Q22.441,13.131 22.29,12.98 Q22.108,12.858 21.895,12.813 Q21.683,12.767 21.501,12.767 Q21.319,12.767 21.152,12.813 Q20.986,12.858 20.925,12.98 z M20.925,16.255 Q20.986,16.437 21.213,16.528 Q21.44,16.619 21.683,16.619 Q22.108,16.619 22.108,16.255 Q22.108,16.194 22.077,16.149 Q22.047,16.103 22.047,16.012 Q21.986,15.77 21.804,15.679 Q21.622,15.588 21.38,15.588 Q21.198,15.588 21.001,15.679 Q20.804,15.77 20.804,15.951 Q20.804,16.012 20.925,16.255 z M23.745,19.045 Q23.503,19.136 23.397,19.318 Q23.29,19.5 23.29,19.682 Q23.29,19.924 23.487,20.106 Q23.685,20.288 23.988,20.288 Q24.079,20.288 24.17,20.258 Q24.261,20.227 24.412,20.167 Q24.655,20.076 24.822,19.879 Q24.989,19.682 24.989,19.439 Q24.989,19.318 24.943,19.227 Q24.898,19.136 24.837,19.045 Q24.746,18.863 24.352,18.863 Q24.018,18.863 23.745,19.045 z M23.048,17.619 Q23.199,17.68 23.29,17.741 Q23.381,17.801 23.685,17.801 Q23.806,17.801 24.018,17.786 Q24.23,17.771 24.443,17.68 Q24.655,17.589 24.837,17.422 Q25.019,17.255 25.11,16.952 Q25.231,16.71 25.231,16.497 Q25.231,16.133 25.004,15.77 Q24.776,15.406 24.412,15.315 Q24.23,15.133 24.049,15.133 Q23.776,15.133 23.518,15.436 Q23.26,15.739 22.987,16.012 L22.987,16.073 Q22.896,16.255 22.79,16.513 Q22.684,16.77 22.684,17.013 Q22.684,17.437 23.048,17.619 z M25.353,21.107 Q25.353,21.35 25.125,21.592 Q24.898,21.835 24.655,22.047 Q24.534,22.168 24.534,22.411 Q24.534,22.896 24.837,23.199 Q25.08,23.442 25.246,23.624 Q25.413,23.806 25.595,24.139 Q25.747,24.321 25.944,24.579 Q26.141,24.837 26.535,24.837 Q26.717,24.928 26.899,24.943 Q27.081,24.958 27.324,24.958 Q27.718,24.958 28.052,24.837 Q28.385,24.716 28.567,24.382 Q28.719,24.139 28.81,23.882 Q28.901,23.624 28.901,23.351 Q28.901,22.926 28.779,22.532 Q28.658,22.138 28.567,21.835 L28.567,21.774 Q28.506,21.562 28.385,21.259 Q28.264,20.955 28.112,20.667 Q27.961,20.379 27.794,20.182 Q27.627,19.985 27.445,19.985 Q27.263,19.924 27.127,19.894 Q26.99,19.864 26.839,19.864 Q26.475,19.864 26.202,19.97 Q25.929,20.076 25.777,20.167 L25.777,20.227 Q25.625,20.409 25.489,20.622 Q25.353,20.834 25.353,21.107 z" fill="#C74343"/>
  </g>
</svg>
