<?xml version="1.0" encoding="UTF-8"?>
<!DOCTYPE svg PUBLIC "-//W3C//DTD SVG 1.1//EN" "http://www.w3.org/Graphics/SVG/1.1/DTD/svg11.dtd">
<svg version="1.1" xmlns="http://www.w3.org/2000/svg" xmlns:xlink="http://www.w3.org/1999/xlink" x="0" y="0" width="40" height="40" viewBox="0, 0, 40, 40">
  <g id="zmap-poi-police" transform="translate(0, 0)">
    <path d="M34.998,10 C34.998,5.874 36.48,3.859 36.492,3.844 C36.748,3.511 36.718,3.041 36.422,2.744 L33.922,0.244 C33.662,-0.018 33.26,-0.073 32.935,0.101 C32.907,0.116 30.009,1.666 26.667,1.666 C23.325,1.666 20.429,0.117 20.399,0.101 C20.15,-0.033 19.849,-0.033 19.602,0.101 C19.574,0.116 16.676,1.666 13.334,1.666 C9.992,1.666 7.096,0.117 7.066,0.101 C6.742,-0.074 6.341,-0.018 6.079,0.244 L3.579,2.744 C3.286,3.039 3.256,3.507 3.506,3.839 C3.521,3.859 5.001,5.874 5.001,10 C5.001,11.877 4.696,13.177 4.346,14.68 C3.872,16.712 3.334,19.014 3.334,23.334 C3.334,31.25 9.491,34.878 19.63,39.913 C19.747,39.97 19.874,40 20,40 C20.127,40 20.254,39.97 20.369,39.913 C30.509,34.878 36.665,31.25 36.665,23.334 C36.665,19.015 36.128,16.712 35.653,14.68 C35.302,13.175 34.998,11.875 34.998,10 z" fill="#98CCFD"/>
    <path d="M28.452,15.714 L23.082,14.948 L20.766,9.544 C20.504,8.931 19.496,8.931 19.234,9.544 L16.918,14.948 L11.548,15.714 C11.236,15.759 10.976,15.976 10.876,16.276 C10.776,16.576 10.854,16.906 11.078,17.129 L14.911,20.963 L13.359,27.172 C13.278,27.497 13.398,27.837 13.664,28.039 C13.931,28.241 14.291,28.264 14.581,28.099 L20.001,25.002 L25.421,28.099 C25.549,28.172 25.692,28.209 25.834,28.209 C26.012,28.209 26.189,28.152 26.336,28.039 C26.602,27.837 26.722,27.496 26.641,27.172 L25.089,20.963 L28.922,17.129 C29.146,16.906 29.224,16.576 29.124,16.276 C29.026,15.976 28.766,15.759 28.452,15.714 z" fill="#FFFFFF"/>
    <path d="M28.452,15.714 L23.082,14.948 L20.765,9.544 C20.504,8.931 19.495,8.931 19.234,9.544 L16.917,14.948 L11.547,15.714 C11.236,15.759 10.976,15.976 10.876,16.276 C10.776,16.576 10.854,16.906 11.077,17.129 L14.911,20.963 L13.359,27.172 C13.277,27.497 13.397,27.837 13.664,28.039 C13.931,28.241 14.291,28.264 14.581,28.099 L20.001,25.002 L25.42,28.099 C25.549,28.172 25.692,28.209 25.834,28.209 C26.012,28.209 26.189,28.152 26.335,28.039 C26.602,27.837 26.722,27.496 26.64,27.172 L25.089,20.963 L28.922,17.129 C29.145,16.906 29.224,16.576 29.124,16.276 C29.025,15.976 28.765,15.759 28.452,15.714 z M23.577,20.119 C23.37,20.326 23.287,20.628 23.359,20.911 L24.552,25.682 L20.414,23.319 C20.285,23.246 20.142,23.209 20,23.209 C19.859,23.209 19.715,23.246 19.585,23.319 L15.447,25.682 L16.64,20.911 C16.712,20.626 16.629,20.326 16.422,20.119 L13.434,17.131 L17.617,16.534 C17.905,16.493 18.15,16.306 18.265,16.038 L20,11.993 L21.734,16.038 C21.849,16.304 22.094,16.493 22.382,16.534 L26.565,17.131 L23.577,20.119 z" fill="#4788C7"/>
    <path d="M34.998,10 C34.998,5.874 36.48,3.859 36.492,3.844 C36.748,3.511 36.718,3.041 36.422,2.744 L33.922,0.244 C33.662,-0.018 33.26,-0.073 32.935,0.101 C32.907,0.116 30.009,1.666 26.667,1.666 C23.325,1.666 20.429,0.117 20.399,0.101 C20.15,-0.033 19.849,-0.033 19.602,0.101 C19.574,0.116 16.676,1.666 13.334,1.666 C9.992,1.666 7.096,0.117 7.066,0.101 C6.742,-0.074 6.341,-0.018 6.079,0.244 L3.579,2.744 C3.286,3.039 3.256,3.507 3.506,3.839 C3.521,3.859 5.001,5.874 5.001,10 C5.001,11.877 4.696,13.177 4.346,14.68 C3.872,16.712 3.334,19.014 3.334,23.334 C3.334,31.25 9.491,34.878 19.63,39.913 C19.747,39.97 19.874,40 20,40 C20.127,40 20.254,39.97 20.369,39.913 C30.509,34.878 36.665,31.25 36.665,23.334 C36.665,19.015 36.128,16.712 35.653,14.68 C35.302,13.175 34.998,11.875 34.998,10 z M20,38.235 C10.691,33.603 5.001,30.337 5.001,23.334 C5.001,19.205 5.516,17.004 5.969,15.059 C6.327,13.52 6.667,12.069 6.667,10 C6.667,6.609 5.764,4.449 5.222,3.457 L6.836,1.846 C7.924,2.346 10.447,3.336 13.334,3.336 C16.382,3.336 19.024,2.232 20,1.767 C20.977,2.232 23.619,3.336 26.667,3.336 C29.554,3.336 32.077,2.344 33.165,1.846 L34.779,3.457 C34.237,4.449 33.334,6.609 33.334,10 C33.334,12.069 33.674,13.52 34.032,15.059 C34.485,17.004 35,19.205 35,23.334 C35,30.335 29.31,33.602 20,38.235 z" fill="#4788C7"/>
  </g>
</svg>
