<?xml version="1.0" encoding="UTF-8"?>
<!DOCTYPE svg PUBLIC "-//W3C//DTD SVG 1.1//EN" "http://www.w3.org/Graphics/SVG/1.1/DTD/svg11.dtd">
<svg version="1.1" xmlns="http://www.w3.org/2000/svg" xmlns:xlink="http://www.w3.org/1999/xlink" x="0" y="0" width="40" height="40" viewBox="0, 0, 40, 40">
  <g id="zmap-ers-inc-wildfire" transform="translate(0, 0)">
    <path d="M40,19.985 L20.015,39.97 L0,19.985 L20.015,0 z M38.393,19.985 L20.015,1.607 L1.638,19.985 L20.015,38.362 z M11.069,26.384 Q10.826,25.929 10.644,25.489 Q10.462,25.049 10.311,24.716 L10.008,23.958 Q9.492,23.078 9.098,22.229 Q8.704,21.38 8.461,20.227 Q8.37,19.712 8.324,19.09 Q8.279,18.469 8.279,17.983 Q8.279,17.741 8.279,17.528 Q8.279,17.286 8.309,17.104 Q8.309,16.922 8.34,16.74 Q8.34,16.801 8.4,16.861 Q8.431,16.922 8.476,16.998 Q8.522,17.074 8.582,17.195 Q8.916,17.862 9.189,18.211 Q9.462,18.56 9.704,18.863 Q9.826,19.014 9.947,19.181 Q10.068,19.348 10.22,19.545 Q10.371,19.742 10.629,19.97 Q10.887,20.197 11.312,20.47 Q12.13,21.137 12.616,21.41 Q12.737,21.471 12.813,21.516 Q12.889,21.562 12.949,21.592 Q13.01,21.653 13.04,21.653 L13.04,21.35 Q12.98,21.259 12.964,21.137 Q12.949,21.016 12.858,20.925 Q12.676,20.561 12.479,20.136 Q12.282,19.712 12.115,19.333 Q11.948,18.954 11.827,18.681 Q11.706,18.408 11.676,18.317 Q11.615,18.226 11.554,17.998 Q11.494,17.771 11.433,17.483 Q11.372,17.195 11.296,16.892 Q11.221,16.588 11.19,16.315 L11.19,15.709 Q11.19,15.133 11.236,14.572 Q11.281,14.011 11.372,13.647 Q11.433,13.374 11.539,13.055 Q11.645,12.737 11.797,12.464 L12.13,11.797 Q12.191,11.857 12.252,11.979 Q12.373,12.221 12.373,12.403 Q12.434,12.828 12.585,13.298 Q12.737,13.768 12.98,14.344 Q13.283,14.89 13.601,15.33 Q13.92,15.77 14.162,16.012 Q14.284,16.103 14.359,16.164 Q14.435,16.224 14.541,16.315 Q14.647,16.406 14.814,16.528 Q14.981,16.649 15.284,16.831 Q15.527,16.983 15.709,17.134 Q15.891,17.286 16.042,17.437 L16.346,17.741 L16.346,17.316 Q16.406,17.225 16.406,17.134 Q16.406,17.013 16.406,16.952 L16.406,16.497 Q16.406,16.042 16.331,15.542 Q16.255,15.042 16.103,14.587 Q15.861,14.011 15.663,13.601 Q15.466,13.192 15.406,12.919 Q15.315,12.676 15.178,12.343 Q15.042,12.009 15.042,11.676 L15.102,11.221 Q15.193,10.948 15.481,10.599 Q15.77,10.25 16.103,9.856 L17.407,8.127 Q17.68,7.733 17.983,7.369 Q18.287,7.005 18.529,6.581 Q18.954,5.853 19.136,5.216 Q19.227,4.792 19.363,4.503 Q19.5,4.215 19.651,4.215 Q19.742,4.215 19.848,4.594 Q19.955,4.973 19.955,5.398 Q19.955,5.55 19.924,5.732 Q19.894,5.914 19.833,6.005 Q19.742,6.399 19.56,6.839 Q19.378,7.278 19.136,7.763 Q18.893,8.218 18.681,8.764 Q18.469,9.31 18.469,9.735 L18.408,10.432 Q18.408,10.675 18.453,10.948 Q18.499,11.221 18.59,11.403 Q18.741,11.797 18.908,12.024 Q19.075,12.252 19.136,12.343 L19.56,12.707 Q19.591,12.737 19.621,12.737 Q19.651,12.767 19.773,12.767 Q19.833,12.767 19.909,12.752 Q19.985,12.737 20.136,12.585 Q20.379,12.403 20.743,12.039 Q21.107,11.676 21.198,11.281 Q21.38,10.826 21.501,10.296 Q21.622,9.765 21.622,9.31 Q21.592,9.189 21.592,9.067 Q21.562,8.946 21.562,8.825 Q21.562,8.704 21.562,8.552 Q21.562,8.461 21.562,8.34 Q21.562,8.188 21.622,8.188 Q21.713,8.188 21.865,8.431 Q22.199,8.855 22.517,9.31 Q22.835,9.765 22.987,10.038 Q23.139,10.341 23.472,10.675 Q23.806,11.008 23.806,11.342 L23.806,11.736 Q23.806,12.009 23.776,12.267 Q23.745,12.525 23.563,12.919 Q23.351,13.465 23.245,13.829 Q23.139,14.193 23.048,14.526 Q22.957,14.86 22.851,15.178 Q22.745,15.497 22.745,15.891 L22.745,16.376 Q22.775,16.588 22.851,16.785 Q22.926,16.983 23.017,17.165 Q23.139,17.377 23.23,17.559 Q23.594,17.225 23.988,16.892 Q24.321,16.588 24.716,16.194 Q25.11,15.8 25.444,15.315 Q25.777,14.86 26.05,14.268 Q26.323,13.677 26.505,13.161 Q26.717,12.555 26.899,11.918 Q27.051,12.343 27.172,12.707 Q27.263,13.04 27.354,13.374 Q27.445,13.707 27.475,13.95 Q27.475,14.162 27.506,14.42 Q27.536,14.678 27.536,15.011 Q27.536,15.588 27.475,16.194 Q27.415,16.801 27.202,17.377 Q26.96,18.256 26.823,18.666 Q26.687,19.075 26.596,19.56 Q26.535,19.742 26.505,19.955 Q26.475,20.167 26.475,20.349 Q26.475,20.713 26.505,20.834 Q26.505,20.955 26.535,21.046 Q26.839,20.834 27.111,20.622 Q27.627,20.258 27.961,19.985 Q28.234,19.712 28.537,19.378 Q28.84,19.045 29.083,18.681 Q29.325,18.408 29.568,18.044 Q29.81,17.68 30.023,17.316 Q30.114,17.134 30.22,16.907 Q30.326,16.679 30.417,16.467 Q30.538,16.224 30.629,15.951 L30.933,15.254 L31.175,16.558 Q31.175,16.77 31.205,17.013 Q31.205,17.225 31.221,17.468 Q31.236,17.71 31.236,17.983 Q31.236,18.287 31.236,18.56 Q31.236,18.802 31.175,19.045 Q31.084,19.803 30.917,21.107 Q30.751,22.411 30.144,23.958 Q29.81,24.716 29.447,25.504 Q29.113,26.171 28.688,26.945 Q28.264,27.718 27.748,28.385 Q27.233,29.083 26.444,29.78 Q25.656,30.478 24.928,31.054 Q24.079,31.721 23.169,32.358 L25.656,32.358 L24.928,33.086 L21.319,33.086 L21.319,28.749 L25.777,28.749 L22.32,24.776 L24.928,24.776 L21.622,21.046 L23.745,21.046 L20.015,15.133 L16.224,21.046 L18.469,21.046 L15.224,24.776 L17.71,24.776 L14.223,28.749 L18.711,28.749 L18.711,33.086 L15.102,33.086 L14.344,32.358 L16.71,32.358 Q16.133,31.903 15.557,31.418 Q15.042,30.993 14.45,30.478 Q13.859,29.962 13.313,29.416 Q13.01,29.143 12.722,28.87 Q12.434,28.597 12.252,28.294 z" fill="#C74343"/>
  </g>
</svg>
