<?xml version="1.0" encoding="UTF-8"?>
<!DOCTYPE svg PUBLIC "-//W3C//DTD SVG 1.1//EN" "http://www.w3.org/Graphics/SVG/1.1/DTD/svg11.dtd">
<svg version="1.1" xmlns="http://www.w3.org/2000/svg" xmlns:xlink="http://www.w3.org/1999/xlink" x="0" y="0" width="40" height="40" viewBox="0, 0, 40, 40">
  <g id="zmap-ers-inc-hazgas" transform="translate(0, 0)">
    <path d="M40,19.985 L20.015,39.97 L0,19.985 L20.015,-0 z M38.393,19.985 L20.015,1.607 L1.638,19.985 L20.015,38.362 z M15.588,16.74 Q16.012,16.74 16.3,16.133 Q16.588,15.527 16.588,14.647 Q16.528,13.798 16.24,13.161 Q15.951,12.525 15.527,12.525 L15.466,12.525 Q15.042,12.525 14.769,13.146 Q14.496,13.768 14.496,14.647 Q14.556,15.497 14.829,16.118 Q15.102,16.74 15.527,16.74 z M17.71,9.856 L18.832,8.976 Q18.984,8.764 19.136,8.552 Q19.439,8.127 19.894,7.824 Q20.076,7.672 20.212,7.566 Q20.349,7.46 20.44,7.369 Q19.56,7.551 18.59,8.127 Q17.832,8.552 17.346,9.007 Q16.861,9.462 16.77,9.613 Q16.74,9.674 16.725,9.735 Q16.71,9.795 16.679,9.856 Q16.649,9.947 16.649,9.977 Q16.71,9.977 16.801,9.947 Q16.983,9.886 17.104,9.856 z M20.379,17.498 Q21.228,17.498 21.835,16.801 Q22.441,16.103 22.441,15.133 L22.441,15.011 Q22.441,14.496 22.259,14.041 Q22.077,13.586 21.789,13.252 Q21.501,12.919 21.107,12.722 Q20.713,12.525 20.258,12.525 Q19.409,12.585 18.802,13.283 Q18.196,13.98 18.196,14.951 L18.196,15.072 Q18.196,15.557 18.362,15.997 Q18.529,16.437 18.802,16.77 Q19.075,17.104 19.454,17.301 Q19.833,17.498 20.258,17.498 z M22.684,10.553 Q22.957,10.614 23.215,10.842 Q23.472,11.069 23.715,11.342 Q23.988,11.676 24.23,12.039 L25.292,12.039 Q25.474,12.009 25.656,11.918 Q26.05,11.766 26.232,11.524 Q26.171,11.372 26.171,11.251 Q26.171,11.099 26.111,10.917 Q25.898,10.22 25.565,9.659 Q25.231,9.098 24.655,8.673 Q24.321,8.34 23.882,8.097 Q23.442,7.854 22.926,7.612 L22.259,7.43 Q21.926,7.521 21.562,7.672 Q21.198,7.824 20.955,8.006 Q20.713,8.188 20.561,8.415 Q20.409,8.643 20.288,8.825 Q20.167,9.037 20.076,9.249 Q20.076,9.492 20.349,9.826 Q20.47,9.977 20.622,10.159 Q20.743,10.19 20.925,10.22 Q21.077,10.25 21.289,10.281 Q21.501,10.311 21.744,10.371 z M24.473,18.074 Q24.625,17.953 24.807,17.832 Q24.989,17.71 25.171,17.559 Q25.504,16.77 25.777,15.785 Q26.05,14.799 26.171,13.647 Q26.232,13.404 26.232,13.222 Q26.232,13.04 26.232,12.828 Q26.08,12.919 25.974,12.98 Q25.868,13.04 25.807,13.101 Q25.716,13.161 25.656,13.222 L24.534,14.344 Q24.443,15.072 24.352,15.739 Q24.261,16.315 24.17,16.937 Q24.079,17.559 23.927,17.983 Q23.927,18.196 23.806,18.317 z M17.346,22.047 Q18.469,22.745 19.121,23.487 Q19.773,24.23 19.773,24.716 Q19.773,24.776 19.773,24.837 Q19.773,24.898 19.712,24.958 L17.407,28.294 Q17.286,27.87 16.983,27.384 Q16.71,26.96 16.224,26.459 Q15.739,25.959 14.86,25.444 Q13.798,24.807 13.01,24.594 Q12.221,24.382 11.797,24.382 Q11.645,24.382 11.539,24.397 Q11.433,24.412 11.372,24.412 Q11.281,24.443 11.251,24.443 L13.616,21.168 Q13.768,20.925 14.284,20.925 Q14.86,20.925 15.663,21.228 Q16.467,21.531 17.346,22.047 z M14.617,25.838 Q15.102,26.111 15.542,26.49 Q15.982,26.869 16.331,27.263 Q16.679,27.657 16.892,28.036 Q17.104,28.415 17.104,28.688 Q17.104,28.87 17.013,28.931 Q16.922,29.083 16.725,29.128 Q16.528,29.174 16.285,29.174 Q15.709,29.174 14.89,28.87 Q14.071,28.567 13.192,27.991 Q12.616,27.657 12.191,27.293 Q11.766,26.929 11.433,26.566 L10.493,27.051 Q10.341,27.172 10.19,27.278 Q10.038,27.384 9.917,27.506 Q9.795,27.627 9.644,27.748 L9.189,27.324 Q9.34,27.202 9.462,27.081 Q9.583,26.99 9.704,26.869 Q9.826,26.748 9.947,26.687 Q10.19,26.535 10.417,26.414 Q10.644,26.293 10.796,26.202 Q10.978,26.08 10.978,26.05 L10.917,25.898 Q10.766,25.595 10.766,25.322 Q10.766,25.08 10.826,25.019 Q10.917,24.867 11.13,24.822 Q11.342,24.776 11.615,24.776 Q12.13,24.776 12.813,24.989 Q13.495,25.201 14.253,25.625 z M14.799,27.566 Q14.799,27.415 14.587,27.142 Q14.375,26.869 14.041,26.626 Q13.404,26.262 12.98,26.262 Q12.858,26.262 12.798,26.323 L12.798,26.444 Q12.798,26.596 12.98,26.839 Q13.161,27.081 13.556,27.324 Q14.102,27.688 14.556,27.688 Q14.738,27.688 14.799,27.627 z M26.717,25.049 Q27.111,25.201 27.536,25.322 Q27.961,25.444 28.294,25.534 Q28.688,25.656 29.174,25.898 Q29.659,26.141 30.083,26.384 Q30.569,26.687 31.054,27.02 L30.629,27.475 Q30.174,27.202 29.719,26.929 Q29.325,26.687 28.901,26.475 Q28.476,26.262 28.173,26.141 Q27.93,26.08 27.536,25.959 Q27.142,25.838 26.717,25.656 Q26.08,25.413 25.504,25.049 Q24.928,24.685 24.776,24.109 Q24.594,23.412 24.428,22.593 Q24.261,21.774 24.261,20.925 Q24.261,20.197 24.443,19.5 Q24.443,19.409 24.503,19.287 Q24.534,19.227 24.534,19.166 Q24.352,19.227 24.2,19.318 Q23.867,19.469 23.624,19.53 L22.532,20.409 Q22.168,20.955 21.941,21.304 Q21.713,21.653 21.44,21.956 Q21.077,22.32 20.561,22.472 Q20.318,22.563 20.167,22.563 Q20.106,22.563 20.076,22.547 Q20.045,22.532 20.015,22.532 Q19.833,22.654 19.651,22.835 Q19.439,23.048 19.439,23.169 Q19.136,22.745 18.514,22.244 Q17.892,21.744 17.013,21.319 Q16.073,20.864 15.254,20.622 Q15.375,20.47 15.512,20.243 Q15.648,20.015 15.739,19.773 Q15.77,19.651 15.785,19.545 Q15.8,19.439 15.8,19.287 Q15.8,18.893 15.679,18.469 Q15.557,18.044 15.315,17.619 Q15.163,17.377 14.951,17.089 Q14.738,16.801 14.556,16.437 Q14.375,16.073 14.238,15.588 Q14.102,15.102 14.102,14.435 L14.102,14.132 Q14.132,13.434 14.405,12.873 Q14.678,12.312 15.011,11.948 Q15.375,11.524 15.891,11.221 L16.012,10.493 L16.012,10.25 Q16.012,10.159 16.012,10.068 Q16.012,9.947 16.042,9.826 Q16.103,9.583 16.164,9.431 Q16.194,9.34 16.255,9.249 Q16.467,8.976 16.801,8.673 Q17.043,8.431 17.422,8.127 Q17.801,7.824 18.256,7.551 Q19.075,7.066 19.818,6.869 Q20.561,6.672 21.168,6.672 Q21.35,6.672 21.531,6.687 Q21.713,6.702 21.865,6.732 Q22.563,6.854 22.866,6.96 Q23.169,7.066 23.594,7.248 Q23.806,7.339 24.185,7.582 Q24.564,7.824 24.973,8.173 Q25.383,8.522 25.762,8.931 Q26.141,9.34 26.353,9.795 Q26.414,9.917 26.459,10.083 Q26.505,10.25 26.566,10.402 Q26.626,10.584 26.687,10.796 L26.869,10.917 Q26.99,11.008 27.081,11.16 Q27.111,11.221 27.127,11.372 Q27.142,11.524 27.142,11.706 Q27.142,11.888 27.142,12.039 Q27.142,12.191 27.142,12.221 Q27.142,12.252 26.99,12.403 Q26.929,12.464 26.869,12.494 Q26.839,12.707 26.839,12.919 Q26.839,13.101 26.823,13.313 Q26.808,13.525 26.808,13.677 Q26.717,14.375 26.581,15.027 Q26.444,15.679 26.293,16.164 Q26.141,16.74 25.959,17.225 Q25.898,17.316 25.868,17.437 Q25.807,17.68 25.807,17.892 Q25.807,18.135 25.671,18.332 Q25.534,18.529 25.383,18.711 Q25.262,18.984 25.186,19.212 Q25.11,19.439 25.049,19.682 Q24.898,20.288 24.898,20.925 Q24.898,21.592 25.019,22.35 Q25.14,23.108 25.383,23.927 Q25.504,24.321 25.868,24.594 Q26.232,24.867 26.717,25.049 z" fill="#C74343"/>
  </g>
</svg>
