<?xml version="1.0" encoding="UTF-8"?>
<!DOCTYPE svg PUBLIC "-//W3C//DTD SVG 1.1//EN" "http://www.w3.org/Graphics/SVG/1.1/DTD/svg11.dtd">
<svg version="1.1" xmlns="http://www.w3.org/2000/svg" xmlns:xlink="http://www.w3.org/1999/xlink" x="0" y="0" width="40" height="40" viewBox="0, 0, 40, 40">
  <g id="zmap-marker-red" transform="translate(0, 0)">
    <path d="M19.999,38.251 C17.896,35.874 7.5,23.628 7.5,14 C7.5,7.107 13.107,1.5 20,1.5 C26.893,1.5 32.5,7.107 32.5,14 C32.5,23.58 22.102,35.866 19.999,38.251 z" fill="#F78F8F"/>
    <path d="M20,2 C26.617,2 32,7.383 32,14 C32,22.932 22.71,34.349 19.999,37.491 C17.286,34.358 8,22.977 8,14 C8,7.383 13.383,2 20,2 M20,1 C12.82,1 7,6.82 7,14 C7,24.981 20,39 20,39 C20,39 33,24.926 33,14 C33,6.82 27.18,1 20,1 L20,1 z" fill="#C74343"/>
    <path d="M20,19.5 C16.968,19.5 14.5,17.033 14.5,14 C14.5,10.967 16.968,8.5 20,8.5 C23.032,8.5 25.5,10.967 25.5,14 C25.5,17.033 23.032,19.5 20,19.5 z" fill="#F2FAFF"/>
    <path d="M20,9 C22.761,9 25,11.239 25,14 C25,16.761 22.761,19 20,19 C17.239,19 15,16.761 15,14 C15,11.239 17.239,9 20,9 M20,8 C16.692,8 14,10.692 14,14 C14,17.308 16.692,20 20,20 C23.308,20 26,17.308 26,14 C26,10.692 23.308,8 20,8 L20,8 z" fill="#C74343"/>
  </g>
</svg>
