<?xml version="1.0" encoding="UTF-8"?>
<!DOCTYPE svg PUBLIC "-//W3C//DTD SVG 1.1//EN" "http://www.w3.org/Graphics/SVG/1.1/DTD/svg11.dtd">
<svg version="1.1" xmlns="http://www.w3.org/2000/svg" xmlns:xlink="http://www.w3.org/1999/xlink" x="0" y="0" width="40" height="40" viewBox="0, 0, 40, 40">
  <g id="zmap-ers-inc-toxicinfect" transform="translate(0, 0)">
    <path d="M40,19.985 L20.015,39.97 L-0,19.985 L20.015,0 z M38.393,19.985 L20.015,1.607 L1.638,19.985 L20.015,38.362 z M10.371,20.531 Q10.038,21.046 9.901,21.607 Q9.765,22.168 9.765,22.714 Q9.765,23.048 9.826,23.366 Q9.886,23.685 9.977,24.018 L10.008,24.139 L9.644,24.321 Q9.401,23.776 9.265,23.169 Q9.128,22.563 9.128,21.895 Q9.128,20.136 10.068,18.499 Q10.644,17.468 11.494,16.77 Q12.343,16.073 13.374,15.648 Q13.313,15.406 13.313,15.193 Q13.313,14.951 13.313,14.708 Q13.313,12.98 14.193,11.387 Q15.072,9.795 16.649,8.916 Q17.255,8.552 17.862,8.355 Q18.469,8.158 19.136,8.067 L19.136,8.431 Q18.408,8.613 17.771,8.976 Q16.649,9.583 16.058,10.69 Q15.466,11.797 15.466,12.98 Q15.466,13.525 15.618,14.102 Q15.77,14.678 16.103,15.193 Q16.649,16.224 17.604,16.801 Q18.56,17.377 19.712,17.437 L19.712,18.256 Q19.287,18.347 18.999,18.681 Q18.711,19.014 18.711,19.5 L18.772,19.864 L18.074,20.227 Q17.801,19.803 17.437,19.454 Q17.074,19.105 16.588,18.863 Q16.073,18.529 15.497,18.393 Q14.92,18.256 14.344,18.256 Q13.192,18.256 12.085,18.832 Q10.978,19.409 10.371,20.531 z M29.507,25.838 Q28.567,27.111 27.187,27.839 Q25.807,28.567 24.109,28.567 Q22.957,28.567 21.911,28.203 Q20.864,27.839 20.015,27.142 Q19.136,27.839 18.059,28.203 Q16.983,28.567 15.861,28.567 Q15.011,28.567 14.147,28.355 Q13.283,28.143 12.494,27.688 Q11.888,27.324 11.387,26.869 Q10.887,26.414 10.493,25.898 L10.826,25.686 Q11.281,26.293 12.07,26.748 Q12.585,27.081 13.161,27.233 Q13.738,27.384 14.284,27.384 Q15.466,27.384 16.558,26.793 Q17.65,26.202 18.256,25.08 Q18.59,24.503 18.741,23.942 Q18.893,23.381 18.893,22.775 Q18.893,22.259 18.802,21.759 Q18.711,21.259 18.469,20.804 L19.136,20.409 Q19.318,20.561 19.545,20.682 Q19.773,20.804 20.015,20.804 Q20.288,20.804 20.546,20.667 Q20.804,20.531 20.955,20.349 L21.622,20.743 Q21.44,21.198 21.319,21.713 Q21.198,22.229 21.198,22.775 Q21.198,23.715 21.547,24.534 Q21.895,25.353 22.517,25.959 Q23.139,26.566 23.958,26.914 Q24.776,27.263 25.716,27.263 Q26.748,27.263 27.642,26.823 Q28.537,26.384 29.204,25.625 z M26.657,15.648 Q27.566,16.012 28.324,16.634 Q29.083,17.255 29.644,18.059 Q30.205,18.863 30.508,19.833 Q30.811,20.804 30.811,21.835 Q30.811,22.502 30.72,23.139 Q30.629,23.776 30.387,24.321 L30.023,24.139 Q30.114,23.806 30.19,23.457 Q30.265,23.108 30.265,22.775 Q30.265,21.835 29.901,21.001 Q29.538,20.167 28.916,19.56 Q28.294,18.954 27.475,18.605 Q26.657,18.256 25.716,18.256 Q24.564,18.256 23.578,18.772 Q22.593,19.287 21.986,20.167 L21.319,19.803 L21.319,19.5 Q21.319,19.014 21.031,18.681 Q20.743,18.347 20.318,18.256 L20.318,17.437 Q21.35,17.437 22.32,16.892 Q23.442,16.285 24.018,15.178 Q24.594,14.071 24.594,12.919 Q24.594,12.343 24.458,11.766 Q24.321,11.19 23.988,10.675 Q23.472,9.735 22.638,9.174 Q21.804,8.613 20.864,8.431 L20.864,8.067 Q22.381,8.249 23.685,9.098 Q24.989,9.947 25.777,11.342 Q26.262,12.13 26.49,13.025 Q26.717,13.92 26.717,14.769 Q26.717,15.011 26.717,15.224 Q26.717,15.406 26.657,15.648 z M26.02,18.923 L26.02,19.5 Q26.02,20.379 25.762,21.198 Q25.504,22.017 25.049,22.729 Q24.594,23.442 23.973,23.988 Q23.351,24.534 22.623,24.898 L21.865,23.654 Q23.017,23.078 23.776,21.986 Q24.534,20.895 24.534,19.5 L24.534,18.923 z M15.466,19.5 Q15.466,20.895 16.224,21.986 Q16.983,23.078 18.135,23.654 L17.407,24.898 Q15.891,24.2 14.936,22.729 Q13.98,21.259 13.98,19.5 L13.98,18.923 L15.466,18.923 z M20.015,14.951 Q18.499,14.951 17.346,15.77 L16.588,14.526 Q18.105,13.465 20.015,13.465 Q21.926,13.465 23.412,14.526 L22.684,15.77 Q22.108,15.375 21.44,15.163 Q20.773,14.951 20.015,14.951 z" fill="#C74343"/>
  </g>
</svg>
