<?xml version="1.0" encoding="UTF-8"?>
<!DOCTYPE svg PUBLIC "-//W3C//DTD SVG 1.1//EN" "http://www.w3.org/Graphics/SVG/1.1/DTD/svg11.dtd">
<svg version="1.1" xmlns="http://www.w3.org/2000/svg" xmlns:xlink="http://www.w3.org/1999/xlink" x="0" y="0" width="40" height="40" viewBox="0, 0, 40, 40">
  <g id="zmap-ers-ops-firestation" transform="translate(0, 0)">
    <path d="M20.015,35.485 Q23.153,35.485 25.891,34.301 Q28.629,33.116 30.69,31.055 Q32.751,28.994 33.935,26.241 Q35.119,23.488 35.119,20.35 Q35.119,17.212 33.935,14.459 Q32.751,11.706 30.69,9.66 Q28.629,7.615 25.891,6.415 Q23.153,5.215 20.015,5.215 Q16.878,5.215 14.125,6.415 Q11.371,7.615 9.31,9.66 Q7.249,11.706 6.065,14.459 Q4.881,17.212 4.881,20.35 Q4.881,23.488 6.065,26.241 Q7.249,28.994 9.31,31.055 Q11.371,33.116 14.125,34.301 Q16.878,35.485 20.015,35.485 z M36.196,20.35 Q36.196,23.703 34.919,26.656 Q33.643,29.609 31.443,31.793 Q29.244,33.978 26.306,35.254 Q23.368,36.531 20.015,36.531 Q16.662,36.531 13.709,35.254 Q10.756,33.978 8.557,31.793 Q6.357,29.609 5.081,26.656 Q3.804,23.703 3.804,20.35 Q3.804,16.997 5.081,14.044 Q6.357,11.091 8.557,8.907 Q10.756,6.723 13.709,5.446 Q16.662,4.169 20.015,4.169 Q23.368,4.169 26.306,5.446 Q29.244,6.723 31.443,8.907 Q33.643,11.091 34.919,14.044 Q36.196,16.997 36.196,20.35 z M27.244,24.472 Q27.244,23.765 27.767,23.242 Q28.29,22.719 28.998,22.719 Q29.736,22.719 30.244,23.242 Q30.751,23.765 30.751,24.472 Q30.751,25.21 30.244,25.718 Q29.736,26.226 28.998,26.226 Q28.29,26.226 27.767,25.718 Q27.244,25.21 27.244,24.472 z M12.817,24.472 Q12.817,23.765 13.325,23.242 Q13.832,22.719 14.571,22.719 Q15.278,22.719 15.786,23.242 Q16.293,23.765 16.293,24.472 Q16.293,25.21 15.786,25.718 Q15.278,26.226 14.571,26.226 Q13.832,26.226 13.325,25.718 Q12.817,25.21 12.817,24.472 z M33.797,24.349 L31.397,24.349 Q31.336,23.396 30.644,22.75 Q29.951,22.104 28.998,22.104 Q28.044,22.104 27.367,22.75 Q26.691,23.396 26.629,24.349 L16.939,24.349 Q16.878,23.396 16.201,22.75 Q15.524,22.104 14.571,22.104 Q13.586,22.104 12.909,22.75 Q12.233,23.396 12.171,24.349 L6.326,24.349 L6.326,23.149 L6.942,23.149 L6.942,21.365 L7.865,19.858 L22.907,19.858 L23.676,19.089 L23.676,17.52 L24.599,17.52 L25.091,17.858 L25.091,19.304 L26.66,19.304 L26.66,16.382 L27.275,16.382 L27.275,18.935 L30.567,18.935 L32.812,20.166 L32.812,23.149 L33.797,23.149 z M20.938,15.551 L20.938,17.951 L22.538,17.951 L22.538,18.935 L7.311,18.935 L7.311,17.951 L8.88,17.951 L8.88,15.551 L7.311,15.551 L7.311,14.567 L22.538,14.567 L22.538,15.551 z M15.217,17.951 L17.524,17.951 L17.524,15.551 L15.217,15.551 z M14.632,15.551 L12.325,15.551 L12.325,17.951 L14.632,17.951 z M9.464,17.951 L11.771,17.951 L11.771,15.551 L9.464,15.551 z M20.385,15.551 L18.077,15.551 L18.077,17.951 L20.385,17.951 z" fill="#C74343"/>
  </g>
</svg>
