<?xml version="1.0" encoding="UTF-8"?>
<!DOCTYPE svg PUBLIC "-//W3C//DTD SVG 1.1//EN" "http://www.w3.org/Graphics/SVG/1.1/DTD/svg11.dtd">
<svg version="1.1" xmlns="http://www.w3.org/2000/svg" xmlns:xlink="http://www.w3.org/1999/xlink" x="0" y="0" width="40" height="40" viewBox="0, 0, 40, 40">
  <g id="zmap-ers-inc-civriot" transform="translate(0, 0)">
    <path d="M40,19.985 L20.015,39.97 L-0,19.985 L20.015,0 z M38.393,19.985 L20.015,1.607 L1.638,19.985 L20.015,38.362 z M8.582,19.045 L8.582,14.951 L9.886,14.951 L9.886,19.045 L13.859,19.045 L13.859,16.497 Q12.889,16.255 12.252,15.466 Q11.615,14.678 11.615,13.647 Q11.615,13.04 11.857,12.509 Q12.1,11.979 12.509,11.569 Q12.919,11.16 13.465,10.917 Q14.011,10.675 14.617,10.675 Q15.254,10.675 15.785,10.917 Q16.315,11.16 16.725,11.569 Q17.134,11.979 17.362,12.509 Q17.589,13.04 17.589,13.647 Q17.589,14.678 16.967,15.466 Q16.346,16.255 15.406,16.497 L15.406,19.045 L19.318,19.045 L19.318,14.951 L20.682,14.951 L20.682,19.045 L24.716,19.045 L24.716,16.497 Q23.776,16.255 23.169,15.466 Q22.563,14.678 22.563,13.647 Q22.563,13.04 22.79,12.509 Q23.017,11.979 23.412,11.569 Q23.806,11.16 24.337,10.917 Q24.867,10.675 25.474,10.675 Q26.111,10.675 26.641,10.917 Q27.172,11.16 27.582,11.569 Q27.991,11.979 28.218,12.509 Q28.446,13.04 28.446,13.647 Q28.446,14.678 27.839,15.466 Q27.233,16.255 26.293,16.497 L26.293,19.045 L30.144,19.045 L30.144,14.951 L31.448,14.951 L31.448,20.349 L26.293,20.349 L26.293,23.017 L24.716,23.017 L24.716,20.349 L15.406,20.349 L15.406,23.017 L13.859,23.017 L13.859,20.349 L8.582,20.349 z M15.406,23.078 L16.892,23.078 L16.892,29.234 L15.406,29.234 z M12.312,23.078 L13.859,23.078 L13.859,29.234 L12.312,29.234 z M26.293,23.078 L27.779,23.078 L27.779,29.234 L26.293,29.234 z M23.23,23.078 L24.716,23.078 L24.716,29.234 L23.23,29.234 z" fill="#C74343"/>
  </g>
</svg>
