<?xml version="1.0" encoding="UTF-8"?>
<!DOCTYPE svg PUBLIC "-//W3C//DTD SVG 1.1//EN" "http://www.w3.org/Graphics/SVG/1.1/DTD/svg11.dtd">
<svg version="1.1" xmlns="http://www.w3.org/2000/svg" xmlns:xlink="http://www.w3.org/1999/xlink" x="0" y="0" width="40" height="40" viewBox="0, 0, 40, 40">
  <g id="zmap-ers-evt-hurricane" transform="translate(0, 0)">
    <path d="M40,19.985 L20.015,39.97 L0,19.985 L20.015,-0 z M26.96,18.499 Q26.687,17.225 26.02,16.194 Q25.353,15.163 24.412,14.435 Q23.472,13.707 22.35,13.313 Q21.228,12.919 20.015,12.919 Q19.621,12.919 19.257,12.934 Q18.893,12.949 18.529,13.04 L18.317,13.04 Q17.953,13.04 17.953,12.464 Q17.953,11.918 18.271,10.948 Q18.59,9.977 19.075,8.901 Q19.56,7.824 20.136,6.778 Q20.713,5.732 21.259,5.004 Q19.409,5.641 17.847,6.975 Q16.285,8.309 15.148,10.114 Q14.011,11.918 13.374,14.071 Q12.737,16.224 12.737,18.499 Q12.737,19.257 12.828,19.985 Q12.919,20.713 13.071,21.471 Q13.343,22.745 14.011,23.776 Q14.678,24.807 15.603,25.534 Q16.528,26.262 17.665,26.657 Q18.802,27.051 20.015,27.051 Q20.379,27.051 20.743,27.036 Q21.107,27.02 21.501,26.929 L21.683,26.929 Q22.047,26.929 22.047,27.506 Q22.047,28.052 21.729,29.022 Q21.41,29.992 20.91,31.069 Q20.409,32.146 19.833,33.192 Q19.257,34.238 18.711,34.966 Q20.561,34.329 22.138,32.995 Q23.715,31.66 24.852,29.856 Q25.989,28.052 26.626,25.898 Q27.263,23.745 27.263,21.471 Q27.263,20.713 27.187,19.985 Q27.111,19.257 26.96,18.499 z M20.015,16.315 Q20.773,16.315 21.44,16.603 Q22.108,16.892 22.608,17.407 Q23.108,17.923 23.397,18.605 Q23.685,19.287 23.685,20.045 Q23.685,20.804 23.381,21.471 Q23.078,22.138 22.578,22.638 Q22.077,23.139 21.41,23.427 Q20.743,23.715 20.015,23.715 L19.894,23.715 Q19.105,23.715 18.438,23.412 Q17.771,23.108 17.286,22.593 Q16.801,22.077 16.513,21.395 Q16.224,20.713 16.224,19.924 Q16.224,19.196 16.513,18.544 Q16.801,17.892 17.301,17.392 Q17.801,16.892 18.469,16.603 Q19.136,16.315 19.894,16.315 z" fill="#C74343"/>
  </g>
</svg>
