<?xml version="1.0" encoding="UTF-8"?>
<!DOCTYPE svg PUBLIC "-//W3C//DTD SVG 1.1//EN" "http://www.w3.org/Graphics/SVG/1.1/DTD/svg11.dtd">
<svg version="1.1" xmlns="http://www.w3.org/2000/svg" xmlns:xlink="http://www.w3.org/1999/xlink" x="0" y="0" width="40" height="40" viewBox="0, 0, 40, 40">
  <g id="zmap-road-pr-pri" transform="translate(0, 0)">
    <path d="M3,0 L37,0 C38.657,0 40,1.333 40,2.977 L40,37.023 C40,38.667 38.657,40 37,40 L3,40 C1.343,40 0,38.667 0,37.023 L0,2.977 C0,1.333 1.343,0 3,0 z" fill="#FFFFFF"/>
    <path d="M36.853,4.306 L3.147,4.313 C3.147,4.313 3.125,19.243 3.125,23.562 C3.125,31.479 9.492,31.278 19.631,36.313 C19.748,36.37 19.875,36.4 20.001,36.4 C20.128,36.4 20.255,36.37 20.37,36.313 C30.51,31.278 36.853,31.5 36.853,23.584 L36.853,4.306 z" fill="#0600FF"/>
  </g>
</svg>
