<?xml version="1.0" encoding="UTF-8"?>
<!DOCTYPE svg PUBLIC "-//W3C//DTD SVG 1.1//EN" "http://www.w3.org/Graphics/SVG/1.1/DTD/svg11.dtd">
<svg version="1.1" xmlns="http://www.w3.org/2000/svg" xmlns:xlink="http://www.w3.org/1999/xlink" x="0" y="0" width="40" height="40" viewBox="0, 0, 40, 40">
  <g id="zmap-ers-ops-food" transform="translate(0, 0)">
    <path d="M20.015,35.135 Q23.153,35.135 25.891,33.95 Q28.629,32.766 30.69,30.705 Q32.751,28.644 33.935,25.891 Q35.119,23.138 35.119,20 Q35.119,16.862 33.935,14.109 Q32.751,11.356 30.69,9.31 Q28.629,7.265 25.891,6.065 Q23.153,4.865 20.015,4.865 Q16.878,4.865 14.125,6.065 Q11.371,7.265 9.31,9.31 Q7.249,11.356 6.065,14.109 Q4.881,16.862 4.881,20 Q4.881,23.138 6.065,25.891 Q7.249,28.644 9.31,30.705 Q11.371,32.766 14.125,33.95 Q16.878,35.135 20.015,35.135 z M36.196,20 Q36.196,23.353 34.919,26.306 Q33.643,29.259 31.443,31.443 Q29.244,33.627 26.306,34.904 Q23.368,36.181 20.015,36.181 Q16.662,36.181 13.709,34.904 Q10.756,33.627 8.557,31.443 Q6.357,29.259 5.081,26.306 Q3.804,23.353 3.804,20 Q3.804,16.647 5.081,13.694 Q6.357,10.741 8.557,8.557 Q10.756,6.373 13.709,5.096 Q16.662,3.819 20.015,3.819 Q23.368,3.819 26.306,5.096 Q29.244,6.373 31.443,8.557 Q33.643,10.741 34.919,13.694 Q36.196,16.647 36.196,20 z M16.97,11.264 L17.585,16.247 L18.508,16.247 L19.216,10.864 L20.015,16.893 L17.647,18.954 L17.647,22.246 L18.17,23.599 L18.17,31.689 L15.77,31.689 L15.77,23.599 L16.293,22.246 L16.293,18.954 L13.925,16.893 L14.724,10.864 L15.463,16.247 L16.355,16.247 z M23.061,8.064 L24.045,10.002 L25.829,14.709 L25.829,20.123 L23.768,20.308 L24.291,31.689 L22.076,31.689 L22.076,7.941 z" fill="#C74343"/>
  </g>
</svg>
