<?xml version="1.0" encoding="UTF-8"?>
<!DOCTYPE svg PUBLIC "-//W3C//DTD SVG 1.1//EN" "http://www.w3.org/Graphics/SVG/1.1/DTD/svg11.dtd">
<svg version="1.1" xmlns="http://www.w3.org/2000/svg" xmlns:xlink="http://www.w3.org/1999/xlink" x="0" y="0" width="40" height="40" viewBox="0, 0, 40, 40">
  <g id="zmap-ers-inc-civdist" transform="translate(0, 0)">
    <path d="M40,19.985 L20.015,39.97 L0,19.985 L20.015,-0 z M38.393,19.985 L20.015,1.607 L1.638,19.985 L20.015,38.362 z M27.263,20.531 L20.955,20.531 L20.955,23.715 L19.075,23.715 L19.075,20.531 L12.737,20.531 L12.737,14.011 L14.344,14.011 L14.344,18.923 L19.075,18.923 L19.075,15.951 Q17.953,15.618 17.18,14.678 Q16.406,13.738 16.406,12.464 Q16.406,11.736 16.694,11.099 Q16.983,10.462 17.468,9.977 Q17.953,9.492 18.605,9.204 Q19.257,8.916 20.015,8.916 Q20.743,8.916 21.395,9.204 Q22.047,9.492 22.532,9.977 Q23.017,10.462 23.29,11.099 Q23.563,11.736 23.563,12.464 Q23.563,13.738 22.82,14.678 Q22.077,15.618 20.955,15.951 L20.955,18.923 L25.656,18.923 L25.656,14.011 L27.263,14.011 L27.263,18.923 z M21.016,23.776 L22.805,23.776 L22.805,31.236 L21.016,31.236 z M17.225,23.776 L19.014,23.776 L19.014,31.236 L17.225,31.236 z" fill="#C74343"/>
  </g>
</svg>
