<?xml version="1.0" encoding="UTF-8"?>
<!DOCTYPE svg PUBLIC "-//W3C//DTD SVG 1.1//EN" "http://www.w3.org/Graphics/SVG/1.1/DTD/svg11.dtd">
<svg version="1.1" xmlns="http://www.w3.org/2000/svg" xmlns:xlink="http://www.w3.org/1999/xlink" x="0" y="0" width="40" height="40" viewBox="0, 0, 40, 40">
  <g id="zmap-ers-ops-police" transform="translate(0, 0)">
    <path d="M20.015,35.135 Q23.153,35.135 25.891,33.95 Q28.629,32.766 30.69,30.705 Q32.751,28.644 33.935,25.891 Q35.119,23.138 35.119,20 Q35.119,16.862 33.935,14.109 Q32.751,11.356 30.69,9.31 Q28.629,7.265 25.891,6.065 Q23.153,4.865 20.015,4.865 Q16.878,4.865 14.125,6.065 Q11.371,7.265 9.31,9.31 Q7.249,11.356 6.065,14.109 Q4.881,16.862 4.881,20 Q4.881,23.138 6.065,25.891 Q7.249,28.644 9.31,30.705 Q11.371,32.766 14.125,33.95 Q16.878,35.135 20.015,35.135 z M36.196,20 Q36.196,23.353 34.919,26.306 Q33.643,29.259 31.443,31.443 Q29.244,33.627 26.306,34.904 Q23.368,36.181 20.015,36.181 Q16.662,36.181 13.709,34.904 Q10.756,33.627 8.557,31.443 Q6.357,29.259 5.081,26.306 Q3.804,23.353 3.804,20 Q3.804,16.647 5.081,13.694 Q6.357,10.741 8.557,8.557 Q10.756,6.373 13.709,5.096 Q16.662,3.819 20.015,3.819 Q23.368,3.819 26.306,5.096 Q29.244,6.373 31.443,8.557 Q33.643,10.741 34.919,13.694 Q36.196,16.647 36.196,20 z M24.476,12.063 L24.476,13.971 Q24.722,13.971 24.937,14.001 Q25.122,14.032 25.322,14.078 Q25.522,14.125 25.645,14.186 Q25.768,14.278 25.906,14.448 Q26.045,14.617 26.168,14.771 Q26.291,14.955 26.414,15.17 L28.26,19.6 Q28.506,19.631 28.721,19.692 Q28.906,19.754 29.121,19.846 Q29.336,19.938 29.521,20.092 Q29.828,20.461 29.951,20.892 Q30.013,21.107 30.044,21.354 L30.044,24.983 Q30.013,25.199 29.951,25.383 Q29.89,25.537 29.828,25.706 Q29.767,25.875 29.613,26.029 Q29.459,26.183 29.275,26.26 Q29.09,26.337 28.936,26.398 Q28.752,26.46 28.567,26.491 L28.567,28.859 Q28.536,29.29 28.383,29.628 Q28.229,29.936 27.937,30.167 Q27.644,30.397 27.121,30.397 Q26.598,30.397 26.322,30.167 Q26.045,29.936 25.891,29.628 Q25.737,29.29 25.676,28.859 L25.676,26.46 L14.355,26.46 L14.355,28.859 Q14.294,29.29 14.14,29.628 Q13.986,29.936 13.694,30.167 Q13.402,30.397 12.879,30.397 Q12.356,30.397 12.079,30.167 Q11.802,29.936 11.648,29.628 Q11.494,29.29 11.433,28.859 L11.433,26.491 Q11.218,26.46 11.033,26.398 Q10.633,26.275 10.387,26.029 Q10.233,25.875 10.172,25.706 Q10.11,25.537 10.049,25.383 Q9.987,25.199 9.987,24.983 L9.987,21.354 Q9.987,21.107 10.049,20.892 Q10.11,20.708 10.202,20.492 Q10.295,20.277 10.479,20.092 Q10.633,19.938 10.864,19.846 Q11.094,19.754 11.279,19.692 Q11.494,19.631 11.74,19.6 L13.586,15.17 Q13.74,14.955 13.863,14.771 Q13.986,14.617 14.109,14.448 Q14.232,14.278 14.355,14.186 Q14.478,14.125 14.694,14.078 Q14.909,14.032 15.094,14.001 Q15.309,13.971 15.555,13.971 L15.555,12.063 z M13.125,23.968 Q13.74,23.968 14.171,23.538 Q14.601,23.107 14.601,22.492 Q14.601,21.876 14.171,21.446 Q13.74,21.015 13.125,21.015 Q12.51,21.015 12.094,21.446 Q11.679,21.876 11.679,22.492 Q11.679,23.107 12.094,23.538 Q12.51,23.968 13.125,23.968 z M28.321,22.492 Q28.321,21.876 27.89,21.446 Q27.46,21.015 26.844,21.015 Q26.229,21.015 25.814,21.446 Q25.399,21.876 25.399,22.492 Q25.399,23.107 25.814,23.538 Q26.229,23.968 26.844,23.968 Q27.46,23.968 27.89,23.538 Q28.321,23.107 28.321,22.492 z M16.139,12.648 L16.139,13.694 L18.447,13.694 L18.447,12.648 z M23.891,13.694 L23.891,12.648 L21.553,12.648 L21.553,13.694 z M27.89,12.709 L27.89,13.294 L25.891,13.294 L25.891,12.709 z M26.414,9.879 L26.814,10.279 L25.399,11.694 L24.999,11.294 z M23.861,8.987 L23.861,10.956 L23.276,10.956 L23.276,8.987 z M21.277,8.987 L21.277,10.956 L20.723,10.956 L20.723,8.987 z M18.969,8.987 L18.969,10.956 L18.416,10.956 L18.416,8.987 z M16.601,8.987 L16.601,10.956 L16.047,10.956 L16.047,8.987 z M13.586,9.879 L15.001,11.294 L14.601,11.694 L13.186,10.279 z M14.109,12.709 L14.109,13.294 L12.14,13.294 L12.14,12.709 z M26.568,19.169 L25.368,15.939 L25.276,15.755 Q25.214,15.693 25.137,15.586 Q25.06,15.478 24.937,15.386 Q24.691,15.232 24.507,15.232 L15.524,15.232 Q15.463,15.232 15.34,15.263 Q15.217,15.293 15.063,15.386 Q14.94,15.478 14.878,15.586 Q14.817,15.693 14.755,15.755 L14.663,15.939 L13.432,19.169 z" fill="#C74343"/>
  </g>
</svg>
