<?xml version="1.0" encoding="UTF-8"?>
<!DOCTYPE svg PUBLIC "-//W3C//DTD SVG 1.1//EN" "http://www.w3.org/Graphics/SVG/1.1/DTD/svg11.dtd">
<svg version="1.1" xmlns="http://www.w3.org/2000/svg" xmlns:xlink="http://www.w3.org/1999/xlink" x="0" y="0" width="40" height="40" viewBox="0, 0, 40, 40">
  <g id="zmap-ers-ops-staging" transform="translate(0, 0)">
    <path d="M20.015,35.485 Q23.153,35.485 25.891,34.301 Q28.629,33.116 30.69,31.055 Q32.751,28.994 33.935,26.241 Q35.119,23.488 35.119,20.35 Q35.119,17.212 33.935,14.459 Q32.751,11.706 30.69,9.66 Q28.629,7.615 25.891,6.415 Q23.153,5.215 20.015,5.215 Q16.878,5.215 14.125,6.415 Q11.371,7.615 9.31,9.66 Q7.249,11.706 6.065,14.459 Q4.881,17.212 4.881,20.35 Q4.881,23.488 6.065,26.241 Q7.249,28.994 9.31,31.055 Q11.371,33.116 14.125,34.301 Q16.878,35.485 20.015,35.485 z M36.196,20.35 Q36.196,23.703 34.919,26.656 Q33.643,29.609 31.443,31.793 Q29.244,33.978 26.306,35.254 Q23.368,36.531 20.015,36.531 Q16.662,36.531 13.709,35.254 Q10.756,33.978 8.557,31.793 Q6.357,29.609 5.081,26.656 Q3.804,23.703 3.804,20.35 Q3.804,16.997 5.081,14.044 Q6.357,11.091 8.557,8.907 Q10.756,6.723 13.709,5.446 Q16.662,4.169 20.015,4.169 Q23.368,4.169 26.306,5.446 Q29.244,6.723 31.443,8.907 Q33.643,11.091 34.919,14.044 Q36.196,16.997 36.196,20.35 z M26.937,21.857 L25.583,22.842 L25.583,26.164 L26.937,24.841 z M22.076,22.596 L25.368,22.596 L26.598,21.704 L23.276,21.704 z M21.8,26.379 L25.245,26.379 L25.245,22.903 L21.8,22.903 z M21.461,22.75 L8.049,28.81 L7.803,28.563 L8.326,28.317 L8.326,19.858 L12.879,17.951 L12.879,26.287 L14.54,25.549 L14.54,17.12 L19.093,15.213 L19.093,23.488 L20.723,22.75 L20.723,14.29 L25.276,12.414 L25.276,20.688 L26.537,20.135 L26.537,8.292 L6.972,16.782 L6.972,27.364 L6.603,26.81 L6.603,16.843 L5.773,16.443 L5.773,16.105 L6.757,16.536 L26.291,8.076 L19.585,5.523 L20.292,5.431 L26.752,7.892 Q26.783,7.922 26.829,7.969 Q26.875,8.015 26.875,8.076 L26.875,20.227 Q26.875,20.289 26.783,20.381 L24.537,21.365 L26.998,21.365 Q27.183,21.365 27.244,21.488 Q27.275,21.55 27.275,21.581 L27.275,24.564 Q27.275,24.903 27.214,25.026 Q27.183,25.087 27.152,25.087 L26.937,25.303 L30.074,25.303 Q30.228,25.303 30.274,25.41 Q30.321,25.518 30.321,25.58 L30.321,28.779 Q30.321,28.871 30.29,28.917 Q30.259,28.963 30.228,29.025 Q30.167,29.086 30.136,29.086 Q29.675,29.548 29.305,29.886 Q28.967,30.194 28.69,30.455 Q28.413,30.717 28.352,30.778 Q28.26,30.871 28.136,30.871 L24.476,30.871 Q24.26,30.871 24.26,30.717 L24.26,29.271 Q23.768,29.702 23.43,30.04 Q23.122,30.348 22.861,30.578 Q22.599,30.809 22.599,30.84 Q22.569,30.871 22.476,30.871 L18.693,30.871 Q18.631,30.871 18.57,30.809 Q18.539,30.778 18.539,30.717 L18.539,27.118 Q18.539,26.902 18.631,26.81 Q18.662,26.749 18.723,26.749 L20.354,25.457 Q20.354,25.426 20.385,25.395 Q20.446,25.333 20.508,25.333 Q20.569,25.333 20.6,25.318 Q20.631,25.303 20.661,25.303 L20.723,25.303 L21.461,25.303 z M22.323,27.118 L18.846,27.118 L18.846,30.563 L22.323,30.563 z M22.599,26.687 L21.646,26.687 Q21.461,26.687 21.461,26.533 L21.461,25.641 L20.631,25.641 L19.154,26.81 L22.415,26.81 z M24.26,26.964 L24.26,26.902 L24.291,26.872 L24.291,26.687 L23.092,26.687 L22.63,27.056 L22.63,30.348 L24.26,28.84 z M28.013,27.118 L24.568,27.118 L24.568,30.563 L28.013,30.563 z M29.982,28.779 L29.982,25.795 L28.321,27.056 L28.321,30.348 z M29.675,25.641 L26.598,25.641 L25.522,26.625 L25.399,26.687 L24.999,26.687 L24.845,26.81 L28.136,26.81 z" fill="#C74343"/>
  </g>
</svg>
